<?xml version="1.0" encoding="UTF-8" standalone="no"?>
<!DOCTYPE svg PUBLIC "-//W3C//DTD SVG 1.1//EN" "http://www.w3.org/Graphics/SVG/1.1/DTD/svg11.dtd">
<svg width="100%" height="100%" viewBox="0 0 500 500" version="1.1" xmlns="http://www.w3.org/2000/svg" xmlns:xlink="http://www.w3.org/1999/xlink" xml:space="preserve" xmlns:serif="http://www.serif.com/" style="fill-rule:evenodd;clip-rule:evenodd;stroke-linecap:round;stroke-linejoin:round;stroke-miterlimit:1.5;">
    <g transform="matrix(1,0,0,1,-542.767,-1.47528)">
        <g id="Artboard1" transform="matrix(1,0,0,1,542.767,1.47528)">
            <rect x="0" y="0" width="499.999" height="500" style="fill:none;"/>
            <g transform="matrix(1,0,0,1,-8.45296,-63)">
                <g id="Background-Complete" serif:id="Background Complete">
                    <path d="M85.026,453C68.756,424.533 59.453,391.571 59.453,356.453C59.453,248.83 146.83,161.453 254.453,161.453C362.076,161.453 449.453,248.83 449.453,356.453C449.453,391.571 440.15,424.533 423.88,453L85.026,453Z" style="fill:rgb(220,245,226);"/>
                </g>
            </g>
            <g transform="matrix(1,0,0,1,3.54704,-66)">
                <g id="Floor">
                    <path d="M54,456L414,456" style="fill:none;stroke:black;stroke-width:1px;"/>
                </g>
            </g>
            <g id="Plant">
            </g>
            <g id="Device">
            </g>
            <g id="Character">
                <g transform="matrix(0.74747,0,0,0.74747,146.365,384.291)">
                    <path d="M0,3.649L0,-4.907L-15.331,-5.009L-15.458,7.916L-14.507,7.987C-10.278,8.26 7.013,8.658 9.847,7.781C13.007,6.802 0,3.649 0,3.649" style="fill:rgb(147,154,244);fill-rule:nonzero;"/>
                </g>
                <g transform="matrix(0,-0.74747,-0.74747,0,144.423,379.934)">
                    <path d="M-12.807,-12.808C-12.952,-12.808 -13.068,-7.073 -13.068,-0.001C-13.068,7.074 -12.952,12.807 -12.807,12.807C-12.663,12.807 -12.547,7.074 -12.547,-0.001C-12.547,-7.073 -12.663,-12.808 -12.807,-12.808" style="fill:rgb(26,46,53);fill-rule:nonzero;"/>
                </g>
                <g transform="matrix(0.601687,0.443492,0.443492,-0.601687,146.298,387.961)">
                    <path d="M0.578,-0.178C0.437,-0.199 0.255,0.23 0.257,0.784C0.256,1.338 0.438,1.767 0.578,1.745C0.722,1.723 0.776,1.295 0.778,0.783C0.777,0.272 0.721,-0.156 0.578,-0.178" style="fill:rgb(26,46,53);fill-rule:nonzero;"/>
                </g>
                <g transform="matrix(0.651111,0.367105,0.367105,-0.651111,147,388.465)">
                    <path d="M0.531,-0.131C0.391,-0.152 0.202,0.323 0.202,0.935C0.201,1.549 0.391,2.023 0.531,2.001C0.675,1.98 0.721,1.505 0.723,0.935C0.722,0.366 0.675,-0.11 0.531,-0.131" style="fill:rgb(26,46,53);fill-rule:nonzero;"/>
                </g>
                <g transform="matrix(0.74747,0,0,0.74747,138.302,387.241)">
                    <path d="M0,2.994C-0.06,3.036 -0.288,2.811 -0.62,2.434C-0.954,2.061 -1.391,1.533 -1.964,1.088C-2.534,0.643 -3.16,0.421 -3.623,0.363C-4.089,0.301 -4.395,0.373 -4.421,0.298C-4.448,0.242 -4.163,0.028 -3.611,-0.005C-3.066,-0.042 -2.297,0.165 -1.647,0.675C-1,1.18 -0.586,1.782 -0.323,2.218C-0.061,2.658 0.058,2.954 0,2.994" style="fill:rgb(26,46,53);fill-rule:nonzero;"/>
                </g>
                <g transform="matrix(-0.25792,-0.701562,-0.701562,0.25792,145.669,386.932)">
                    <path d="M-0.669,-1.083C-0.809,-1.112 -0.997,-0.762 -0.996,-0.297C-0.997,0.169 -0.809,0.52 -0.669,0.491C-0.526,0.463 -0.477,0.112 -0.476,-0.296C-0.476,-0.705 -0.527,-1.054 -0.669,-1.083" style="fill:rgb(26,46,53);fill-rule:nonzero;"/>
                </g>
                <g transform="matrix(-0.0101992,-0.747401,-0.747401,0.0101992,145.719,385.83)">
                    <path d="M-0.913,-0.927C-1.058,-0.939 -1.175,-0.528 -1.174,-0.011C-1.174,0.507 -1.057,0.917 -0.913,0.905C-0.771,0.893 -0.654,0.484 -0.654,-0.012C-0.654,-0.505 -0.77,-0.915 -0.913,-0.927" style="fill:rgb(26,46,53);fill-rule:nonzero;"/>
                </g>
                <g transform="matrix(0.74747,0,0,0.74747,174.583,384.291)">
                    <path d="M0,3.649L0,-4.907L-15.331,-5.009L-15.458,7.785L-14.507,7.855C-10.278,8.128 7.014,8.658 9.847,7.781C13.007,6.802 0,3.649 0,3.649" style="fill:rgb(147,154,244);fill-rule:nonzero;"/>
                </g>
                <g transform="matrix(0,-0.74747,-0.74747,0,172.641,379.949)">
                    <path d="M-12.808,-12.808C-12.952,-12.808 -13.069,-7.074 -13.069,-0.001C-13.069,7.074 -12.952,12.808 -12.808,12.808C-12.664,12.808 -12.547,7.074 -12.547,-0.001C-12.547,-7.074 -12.664,-12.808 -12.808,-12.808" style="fill:rgb(26,46,53);fill-rule:nonzero;"/>
                </g>
                <g transform="matrix(0.601687,0.443492,0.443492,-0.601687,174.516,387.961)">
                    <path d="M0.578,-0.178C0.437,-0.199 0.255,0.23 0.257,0.784C0.256,1.338 0.438,1.767 0.578,1.745C0.722,1.723 0.776,1.295 0.778,0.783C0.777,0.272 0.721,-0.156 0.578,-0.178" style="fill:rgb(26,46,53);fill-rule:nonzero;"/>
                </g>
                <g transform="matrix(0.651111,0.367105,0.367105,-0.651111,175.218,388.465)">
                    <path d="M0.531,-0.131C0.391,-0.152 0.202,0.323 0.202,0.935C0.201,1.549 0.391,2.023 0.531,2.001C0.675,1.98 0.721,1.505 0.723,0.935C0.722,0.366 0.675,-0.11 0.531,-0.131" style="fill:rgb(26,46,53);fill-rule:nonzero;"/>
                </g>
                <g transform="matrix(0.74747,0,0,0.74747,166.52,387.241)">
                    <path d="M0,2.994C-0.06,3.036 -0.288,2.811 -0.62,2.434C-0.953,2.061 -1.391,1.533 -1.964,1.088C-2.533,0.643 -3.16,0.421 -3.623,0.363C-4.089,0.301 -4.395,0.373 -4.421,0.298C-4.448,0.242 -4.163,0.028 -3.611,-0.005C-3.066,-0.042 -2.297,0.165 -1.646,0.675C-0.999,1.18 -0.586,1.782 -0.322,2.218C-0.061,2.658 0.058,2.954 0,2.994" style="fill:rgb(26,46,53);fill-rule:nonzero;"/>
                </g>
                <g transform="matrix(-0.25792,-0.701562,-0.701562,0.25792,173.887,386.932)">
                    <path d="M-0.669,-1.083C-0.809,-1.112 -0.997,-0.762 -0.996,-0.297C-0.997,0.17 -0.809,0.52 -0.669,0.491C-0.526,0.463 -0.477,0.113 -0.476,-0.295C-0.476,-0.705 -0.527,-1.054 -0.669,-1.083" style="fill:rgb(26,46,53);fill-rule:nonzero;"/>
                </g>
                <g transform="matrix(-0.0101992,-0.747401,-0.747401,0.0101992,173.938,385.831)">
                    <path d="M-0.913,-0.927C-1.057,-0.939 -1.175,-0.528 -1.173,-0.011C-1.173,0.507 -1.057,0.917 -0.913,0.906C-0.77,0.893 -0.654,0.483 -0.653,-0.011C-0.653,-0.505 -0.77,-0.915 -0.913,-0.927" style="fill:rgb(26,46,53);fill-rule:nonzero;"/>
                </g>
                <g transform="matrix(0.74747,0,0,0.74747,157.904,202.826)">
                    <path d="M0,-3.948C0.035,-3.963 0.229,-3.591 0.526,-2.96C0.823,-2.328 1.222,-1.437 1.664,-0.413L1.748,-0.219L1.536,-0.201C1.202,-0.173 0.865,-0.144 0.518,-0.114C-0.18,-0.068 -0.762,0.015 -1.438,0.008C-1.545,-0.011 -1.664,-0.109 -1.696,-0.219C-1.732,-0.327 -1.722,-0.418 -1.711,-0.497C-1.682,-0.654 -1.648,-0.77 -1.617,-0.903L-1.44,-1.611C-1.219,-2.475 -1.062,-3.004 -1.02,-2.995C-0.978,-2.985 -1.059,-2.438 -1.225,-1.563L-1.364,-0.847C-1.416,-0.606 -1.503,-0.244 -1.373,-0.272C-0.875,-0.294 -0.166,-0.377 0.492,-0.425C0.84,-0.453 1.177,-0.479 1.51,-0.506L1.382,-0.294C0.954,-1.323 0.591,-2.23 0.344,-2.882C0.097,-3.534 -0.035,-3.933 0,-3.948" style="fill:rgb(147,154,244);fill-rule:nonzero;"/>
                </g>
                <g transform="matrix(0.74747,0,0,0.74747,132.316,384.464)">
                    <path d="M0,-162.752L44.34,-164.105L63.625,-88.766L60.073,-2.347L36.604,-2.347L39.513,-86.926L22.361,-139.372L25.003,1.004L1.31,1.353L-1.187,-130.595C-1.291,-134.262 -2.498,-142.536 -2.048,-146.174L0,-162.752Z" style="fill:rgb(26,46,53);fill-rule:nonzero;"/>
                </g>
                <g transform="matrix(0.74747,0,0,0.74747,153.445,278.846)">
                    <path d="M0,2.994C-0.009,3.063 -0.841,3.022 -2.175,2.865C-3.509,2.708 -5.344,2.427 -7.354,2.023C-9.364,1.618 -11.166,1.168 -12.457,0.797C-13.748,0.426 -14.531,0.143 -14.512,0.075C-14.473,-0.069 -11.253,0.711 -7.251,1.513C-3.252,2.321 0.019,2.846 0,2.994" style="fill:rgb(55,90,100);fill-rule:nonzero;"/>
                </g>
                <g transform="matrix(0,-0.74747,-0.74747,0,168.19,370.298)">
                    <path d="M-11.866,-11.867C-12.011,-11.867 -12.127,-6.554 -12.127,-0.001C-12.127,6.554 -12.011,11.866 -11.866,11.866C-11.722,11.866 -11.606,6.554 -11.606,-0.001C-11.606,-6.554 -11.722,-11.867 -11.866,-11.867" style="fill:rgb(55,90,100);fill-rule:nonzero;"/>
                </g>
                <g transform="matrix(0,-0.74747,-0.74747,0,142.242,373.884)">
                    <path d="M-11.512,-11.513C-11.657,-11.513 -11.772,-6.359 -11.772,-0.001C-11.772,6.359 -11.657,11.512 -11.512,11.512C-11.368,11.512 -11.252,6.359 -11.252,-0.001C-11.252,-6.359 -11.368,-11.513 -11.512,-11.513" style="fill:rgb(55,90,100);fill-rule:nonzero;"/>
                </g>
                <g transform="matrix(0.747369,-0.0123433,-0.0123433,-0.747369,149.411,382.199)">
                    <path d="M-1.131,-0.009C-1.276,-0.009 -1.392,30.671 -1.392,68.507C-1.392,106.357 -1.274,137.032 -1.131,137.03C-0.987,137.03 -0.871,106.357 -0.871,68.508C-0.871,30.672 -0.987,-0.009 -1.131,-0.009" style="fill:rgb(55,90,100);fill-rule:nonzero;"/>
                </g>
                <g transform="matrix(0.74747,0,0,0.74747,174.704,262.811)">
                    <path d="M0,155.667C-0.009,155.667 -0.012,155.528 -0.011,155.259C-0.005,154.964 0.002,154.567 0.011,154.061C0.042,152.979 0.087,151.434 0.145,149.456C0.284,145.431 0.485,139.653 0.732,132.525C1.28,118.208 2.035,98.474 2.868,76.676C2.876,76.475 2.884,76.273 2.892,76.088L2.899,76.162C-2.356,55.119 -7.106,36.1 -10.549,22.309C-12.239,15.439 -13.608,9.874 -14.562,5.996C-15.02,4.09 -15.377,2.599 -15.627,1.557C-15.739,1.067 -15.826,0.685 -15.891,0.399C-15.948,0.138 -15.973,0.003 -15.964,0.001C-15.956,-0.001 -15.914,0.13 -15.84,0.387C-15.763,0.668 -15.659,1.048 -15.526,1.531C-15.253,2.568 -14.864,4.051 -14.366,5.947C-13.375,9.814 -11.951,15.366 -10.194,22.22C-6.711,36 -1.909,55.007 3.404,76.035L3.414,76.071L3.412,76.109C3.405,76.294 3.396,76.495 3.389,76.697C2.496,98.492 1.687,118.224 1.1,132.54C0.783,139.665 0.526,145.439 0.347,149.464C0.248,151.439 0.17,152.984 0.116,154.064C0.085,154.57 0.061,154.967 0.042,155.261C0.023,155.53 0.009,155.668 0,155.667" style="fill:rgb(55,90,100);fill-rule:nonzero;"/>
                </g>
                <g transform="matrix(0.74747,0,0,0.74747,168.986,319.636)">
                    <path d="M0,-1.694C0.024,-1.552 -2.297,-1.036 -5.185,-0.54C-7.341,-0.169 -9.203,0.085 -10.016,0.131L-10.018,-0.072C-9.748,0.002 -9.603,0.06 -9.608,0.096C-9.614,0.132 -9.77,0.143 -10.049,0.131L-10.656,0.105L-10.051,-0.072C-9.269,-0.3 -7.429,-0.682 -5.273,-1.052C-2.385,-1.548 -0.024,-1.837 0,-1.694" style="fill:rgb(55,90,100);fill-rule:nonzero;"/>
                </g>
                <g transform="matrix(0.0580932,-0.74521,-0.74521,-0.0580932,165.741,316.782)">
                    <path d="M-4.682,-4.27C-4.828,-4.261 -4.829,-2.172 -4.832,0.401C-4.83,2.974 -4.828,5.063 -4.682,5.072C-4.541,5.08 -4.309,2.99 -4.311,0.4C-4.309,-2.187 -4.54,-4.278 -4.682,-4.27" style="fill:rgb(55,90,100);fill-rule:nonzero;"/>
                </g>
                <g transform="matrix(0.74747,0,0,0.74747,18.4356,51.8973)">
                    <g opacity="0.2">
                        <g transform="matrix(1,0,0,1,152.158,283.439)">
                            <path d="M0,0.324C1.072,1.833 2.601,2.362 4.377,2.653C6.154,2.944 7.966,2.75 9.755,2.552C21.2,1.282 33.328,0.11 44.537,-2.62C30.028,-1.807 14.706,-2.081 0.197,-1.268C0.197,-1.268 0.073,-0.27 0.044,-0.03" style="fill-rule:nonzero;"/>
                        </g>
                    </g>
                </g>
                <g transform="matrix(0.74747,0,0,0.74747,18.4356,51.8973)">
                    <g opacity="0.2">
                        <g transform="matrix(1,0,0,1,167.114,335.946)">
                            <path d="M0,-31.732L8.174,0L7.602,-30.395L0,-31.732Z" style="fill-rule:nonzero;"/>
                        </g>
                    </g>
                </g>
                <g transform="matrix(0.990889,0,0,0.990889,0.349915,4.06206)">
                    <g transform="matrix(0.96,0.29,-0.29,0.96,48.42,-25.9)">
                        <path d="M140.1,135.722C140.1,133.773 138.517,132.19 136.568,132.19L86.662,132.19C84.713,132.19 83.13,133.773 83.13,135.722L83.13,165.088C83.13,167.037 84.713,168.62 86.662,168.62L136.568,168.62C138.517,168.62 140.1,167.037 140.1,165.088L140.1,135.722Z" style="fill:none;stroke:rgb(141,133,180);stroke-width:1px;stroke-linecap:butt;stroke-linejoin:miter;stroke-miterlimit:10;"/>
                    </g>
                    <path d="M87.18,132.84L141.69,149.36" style="fill:none;fill-rule:nonzero;stroke:rgb(141,133,180);stroke-width:1px;stroke-linecap:butt;stroke-linejoin:miter;stroke-miterlimit:10;"/>
                    <path d="M85.52,138.31L140.04,154.83" style="fill:none;fill-rule:nonzero;stroke:rgb(141,133,180);stroke-width:1px;stroke-linecap:butt;stroke-linejoin:miter;stroke-miterlimit:10;"/>
                    <path d="M123.45,165.06C123.17,165.99 123.282,166.995 123.76,167.84C122.943,168.243 122.003,168.322 121.13,168.06C119.636,167.609 118.607,166.222 118.607,164.662C118.607,162.714 120.209,161.112 122.157,161.112C123.437,161.112 124.622,161.804 125.25,162.92C124.387,163.361 123.737,164.134 123.45,165.06Z" style="fill:none;fill-rule:nonzero;stroke:rgb(141,133,180);stroke-width:1px;stroke-linecap:butt;stroke-linejoin:miter;stroke-miterlimit:10;"/>
                    <path d="M130.24,167.12C129.786,168.61 128.402,169.635 126.844,169.635C124.897,169.635 123.294,168.033 123.294,166.085C123.294,164.138 124.897,162.535 126.844,162.535C127.195,162.535 127.544,162.588 127.88,162.69C129.742,163.258 130.807,165.258 130.24,167.12Z" style="fill:none;fill-rule:nonzero;stroke:rgb(141,133,180);stroke-width:1px;stroke-linecap:butt;stroke-linejoin:miter;stroke-miterlimit:10;"/>
                </g>
                <g transform="matrix(0.990889,0,0,0.990889,0.349915,4.06206)">
                    <g transform="matrix(0.957016,0.290034,-0.290034,0.957016,82.13,-119.07)">
                        <path d="M467.05,205.622C467.05,203.667 465.463,202.08 463.508,202.08L422.142,202.08C420.187,202.08 418.6,203.667 418.6,205.622L418.6,229.518C418.6,231.473 420.187,233.06 422.142,233.06L463.508,233.06C465.463,233.06 467.05,231.473 467.05,229.518L467.05,205.622Z" style="fill:none;stroke:rgb(141,133,180);stroke-width:1px;stroke-linecap:butt;stroke-linejoin:miter;stroke-miterlimit:10;"/>
                    </g>
                    <path d="M422.04,202.62L468.41,216.67" style="fill:none;fill-rule:nonzero;stroke:rgb(141,133,180);stroke-width:1px;stroke-linecap:butt;stroke-linejoin:miter;stroke-miterlimit:10;"/>
                    <path d="M420.63,207.28L466.99,221.33" style="fill:none;fill-rule:nonzero;stroke:rgb(141,133,180);stroke-width:1px;stroke-linecap:butt;stroke-linejoin:miter;stroke-miterlimit:10;"/>
                    <path d="M452.89,230C452.649,230.789 452.743,231.643 453.15,232.36C452.741,232.559 452.292,232.662 451.838,232.662C450.192,232.662 448.838,231.308 448.838,229.662C448.838,228.016 450.192,226.662 451.838,226.662C452.119,226.662 452.399,226.702 452.67,226.78C453.412,227.003 454.04,227.505 454.42,228.18C453.681,228.55 453.127,229.209 452.89,230Z" style="fill:none;fill-rule:nonzero;stroke:rgb(141,133,180);stroke-width:1px;stroke-linecap:butt;stroke-linejoin:miter;stroke-miterlimit:10;"/>
                    <path d="M458.66,231.78C458.269,233.028 457.105,233.883 455.797,233.883C454.151,233.883 452.797,232.529 452.797,230.883C452.797,229.237 454.151,227.883 455.797,227.883C456.089,227.883 456.38,227.926 456.66,228.01C457.925,228.39 458.797,229.562 458.797,230.883C458.797,231.187 458.751,231.49 458.66,231.78Z" style="fill:none;fill-rule:nonzero;stroke:rgb(141,133,180);stroke-width:1px;stroke-linecap:butt;stroke-linejoin:miter;stroke-miterlimit:10;"/>
                </g>
                <g transform="matrix(0.990889,0,0,0.990889,0.349915,4.06206)">
                    <g transform="matrix(1,-0.09,0.09,1,-22.5674,5.7022)">
                        <rect x="39.58" y="237.71" width="44.51" height="23.15" style="fill:none;stroke:rgb(141,133,180);stroke-width:1px;stroke-linecap:butt;stroke-linejoin:miter;stroke-miterlimit:10;"/>
                    </g>
                    <path d="M82.75,254.86L81.49,240.21C80.194,240.319 79.036,239.346 78.92,238.05L43.08,241.15C43.183,242.445 42.213,243.599 40.92,243.72L42.18,258.37C42.249,258.364 42.319,258.361 42.389,258.361C43.613,258.361 44.646,259.31 44.75,260.53L80.59,257.43C80.487,256.135 81.457,254.981 82.75,254.86Z" style="fill:none;fill-rule:nonzero;stroke:rgb(141,133,180);stroke-width:1px;stroke-linecap:butt;stroke-linejoin:miter;stroke-miterlimit:10;"/>
                    <g transform="matrix(1.34251,-0.12947,0.12947,1.34251,-716.506,141.044)">
                        <text x="561.253px" y="137.435px" style="font-family:'LucidaGrande-Bold', 'Lucida Grande', sans-serif;font-weight:600;font-size:8.711px;fill:rgb(146,153,244);">Rp</text>
                    </g>
                </g>
                <g transform="matrix(0.990889,0,0,0.990889,0.349915,4.06206)">
                    <g transform="matrix(1.45396,0.54843,-0.44482,1.27648,415.474,-196.119)">
                        <rect x="39.58" y="237.71" width="44.51" height="23.15" style="fill:none;stroke:rgb(141,133,180);stroke-width:1px;stroke-linecap:butt;stroke-linejoin:miter;stroke-miterlimit:10;"/>
                    </g>
                    <g transform="matrix(1.40257,0.657984,-0.571051,1.21726,448.834,-189.751)">
                        <path d="M82.75,254.86L81.49,240.21C80.194,240.319 79.036,239.346 78.92,238.05L43.08,241.15C43.183,242.445 42.213,243.599 40.92,243.72L42.18,258.37C42.249,258.364 42.319,258.361 42.389,258.361C43.613,258.361 44.646,259.31 44.75,260.53L80.59,257.43C80.487,256.135 81.457,254.981 82.75,254.86Z" style="fill:none;fill-rule:nonzero;stroke:rgb(141,133,180);stroke-width:1px;stroke-linecap:butt;stroke-linejoin:miter;stroke-miterlimit:10;"/>
                    </g>
                    <g transform="matrix(1.95689,0.725751,-0.585051,1.71937,-636.657,-489.513)">
                        <text x="561.253px" y="137.435px" style="font-family:'LucidaGrande-Bold', 'Lucida Grande', sans-serif;font-weight:600;font-size:8.711px;fill:rgb(146,153,244);">Rp</text>
                    </g>
                </g>
                <g transform="matrix(0.990889,0,0,0.990889,162.891,231.491)">
                    <path d="M43.66,193.23C41.276,195.324 38.208,196.48 35.035,196.48C27.865,196.48 21.965,190.58 21.965,183.41C21.965,176.24 27.865,170.34 35.035,170.34C38.791,170.34 42.37,171.959 44.85,174.78C46.947,177.165 48.105,180.234 48.105,183.41C48.105,187.168 46.484,190.75 43.66,193.23Z" style="fill:none;fill-rule:nonzero;stroke:rgb(141,133,180);stroke-width:1px;stroke-linecap:butt;stroke-linejoin:miter;stroke-miterlimit:10;"/>
                </g>
                <g transform="matrix(1.33645,0,0,1.33645,-560.007,232.849)">
                    <text x="561.253px" y="137.435px" style="font-family:'LucidaGrande-Bold', 'Lucida Grande', sans-serif;font-weight:600;font-size:8.711px;fill:rgb(186,203,235);">Rp</text>
                </g>
                <g transform="matrix(0.990889,0,0,0.990889,0.349915,4.06206)">
                    <path d="M260.81,327.81C260.81,327.81 253.1,366.94 205.81,375.81C205.81,375.81 193.46,385.66 189.35,391.49C185.24,397.32 163.35,407.23 141.05,438.15C118.75,469.07 85.55,370.88 85.55,370.88L158.93,275.58L260.81,327.81Z" style="fill-opacity:0.14;fill-rule:nonzero;"/>
                </g>
                <g transform="matrix(0.990889,0,0,0.990889,0.349915,4.06206)">
                    <path d="M302.84,144.08C302.84,144.08 328.34,131.61 333.95,133.76C339.56,135.91 344.95,148.81 323.5,161.16C302.05,173.51 308.45,196.52 308.45,196.52L323.75,196.52C323.75,196.52 332.93,200.26 336.5,205.07C340.07,209.88 342.62,226.28 344.66,231.84C346.7,237.4 345.66,242.97 340.07,244.78C340.07,244.78 336.5,260.34 337.52,267.24C338.54,274.14 338.03,278.58 331.4,279.42C331.001,279.462 330.601,279.482 330.2,279.482C323.853,279.482 318.63,274.259 318.63,267.912C318.63,267.688 318.637,267.464 318.65,267.24L313.55,285.72L317.12,292.82C322.163,294.772 326.824,297.595 330.89,301.16C338.03,307.28 345.17,308.95 343.13,315.77C341.09,322.59 337.01,329.94 315.59,321.42C294.17,312.9 276.32,279.42 276.32,279.42L263.45,162.68L302.84,144.08Z" style="fill:white;fill-rule:nonzero;"/>
                </g>
                <g transform="matrix(0.990889,0,0,0.990889,0.349915,4.06206)">
                    <path d="M329.68,211.14C318.12,226.9 330.91,245.05 330.91,245.05C330.91,245.05 322.91,249.51 322.68,260.89C322.59,265.62 323.78,272.23 325.2,278.35C320.955,276.345 318.353,271.925 318.66,267.24L313.55,285.72L317.12,292.81C320.876,294.248 324.416,296.196 327.64,298.6C324.47,305.88 323.5,314.88 323.78,324.16C320.995,323.421 318.259,322.505 315.59,321.42C294.17,312.89 276.32,279.42 276.32,279.42L263.45,162.67L302.84,144.08C302.84,144.08 316.77,137.27 326.31,134.58C325.57,143.5 327.31,152.73 328.57,157.87C326.943,159.061 325.25,160.159 323.5,161.16C302.08,173.51 308.45,196.52 308.45,196.52L323.76,196.52C323.76,196.52 332.48,200.08 336.22,204.71C333.662,206.432 331.445,208.612 329.68,211.14Z" style="fill:rgb(146,227,169);fill-opacity:0.4;fill-rule:nonzero;"/>
                </g>
                <g transform="matrix(0.990889,0,0,0.990889,0.349915,4.06206)">
                    <path d="M263,309C263,309 235.26,363.39 185.26,375.73C185.26,375.73 183.35,386.49 174.89,391.11C170.37,393.57 152.13,420.9 136.12,445.85L47.44,391.45C52.9,386.05 59.12,379.83 65.44,373.34C83.94,354.48 103.68,333.34 109.72,322.88C115.12,313.58 121.95,297.44 127.9,282.27C135.52,262.87 141.72,245.05 141.72,245.05L171.28,212.19L217.75,160.52L219.75,167.13L263,309Z" style="fill:white;fill-rule:nonzero;"/>
                </g>
                <g transform="matrix(0.990889,0,0,0.990889,0.349915,4.06206)">
                    <path d="M217.79,160.52L263,309C263,309 235.26,363.39 185.26,375.73C185.26,375.73 183.35,386.49 174.89,391.11C170.83,393.32 155.72,415.57 141.1,438.11C146.52,419.51 162.21,389.86 162.21,389.86C152.14,377.93 155.08,365.36 159.11,368.94C163.14,372.52 173.27,382.58 173.91,383.21C169.46,377.97 168.43,369.76 168.43,369.76C168.43,369.76 180.91,378.06 181.92,364.76C182.93,351.46 174.44,318.96 174.44,318.96L152.15,233.5L217.79,160.52Z" style="fill:rgb(146,227,169);fill-opacity:0.4;fill-rule:nonzero;"/>
                </g>
                <g transform="matrix(0.990889,0,0,0.990889,0.349915,4.06206)">
                    <path d="M263.45,162.68L302.84,144.08C302.84,144.08 328.34,131.61 333.95,133.76C339.56,135.91 344.95,148.81 323.5,161.16C302.05,173.51 308.45,196.52 308.45,196.52L323.75,196.52C323.75,196.52 332.93,200.26 336.5,205.07C340.07,209.88 342.62,226.28 344.66,231.84C346.7,237.4 345.66,242.97 340.07,244.78C340.07,244.78 336.5,260.34 337.52,267.24C338.54,274.14 338.03,278.58 331.4,279.42C331.001,279.462 330.601,279.482 330.2,279.482C323.853,279.482 318.63,274.259 318.63,267.912C318.63,267.688 318.637,267.464 318.65,267.24L313.55,285.72L317.12,292.82C322.163,294.772 326.824,297.595 330.89,301.16C338.03,307.28 345.17,308.95 343.13,315.77C341.09,322.59 337.01,329.94 315.59,321.42C294.17,312.9 276.32,279.42 276.32,279.42" style="fill:none;fill-rule:nonzero;stroke:rgb(141,133,180);stroke-width:1px;stroke-miterlimit:4;"/>
                </g>
                <g transform="matrix(0.990889,0,0,0.990889,0.349915,4.06206)">
                    <path d="M340.07,244.78C332.42,246.85 323.5,245.32 320.18,231.78C316.86,218.24 323.5,203.78 327.83,202.45" style="fill:none;fill-rule:nonzero;stroke:rgb(141,133,180);stroke-width:1px;stroke-miterlimit:4;"/>
                </g>
                <g transform="matrix(0.990889,0,0,0.990889,0.349915,4.06206)">
                    <path d="M318.65,267.24C318.65,267.24 318.14,249.83 324.52,245.53" style="fill:none;fill-rule:nonzero;stroke:rgb(141,133,180);stroke-width:1px;stroke-miterlimit:4;"/>
                </g>
                <g transform="matrix(0.990889,0,0,0.990889,0.349915,4.06206)">
                    <path d="M132.62,353.71C132.62,353.71 113.93,351.38 109.76,343.02C106.31,336.1 87.61,362.02 65.48,373.34C83.98,354.48 103.72,333.34 109.76,322.88C115.16,313.58 121.99,297.44 127.94,282.27C127.64,294.85 120.94,314.11 122.85,324.14C118.619,325.259 116.036,329.635 117.1,333.88C118.53,341.85 132.62,353.71 132.62,353.71Z" style="fill:rgb(146,227,169);fill-opacity:0.4;fill-rule:nonzero;"/>
                </g>
                <g transform="matrix(0.990889,0,0,0.990889,0.349915,4.06206)">
                    <path d="M263,309C263,309 235.26,363.39 185.25,375.73C185.25,375.73 183.35,386.49 174.89,391.11C170.37,393.57 152.14,420.9 136.11,445.85" style="fill:none;fill-rule:nonzero;stroke:rgb(141,133,180);stroke-width:1px;stroke-miterlimit:4;"/>
                </g>
                <g transform="matrix(0.990889,0,0,0.990889,0.349915,4.06206)">
                    <path d="M47.44,391.45C68.8,370.34 101.63,336.87 109.76,322.88C122.06,301.71 141.76,245.04 141.76,245.04L217.76,160.52" style="fill:none;fill-rule:nonzero;stroke:rgb(141,133,180);stroke-width:1px;stroke-miterlimit:4;"/>
                </g>
                <g transform="matrix(0.990889,0,0,0.990889,0.349915,4.06206)">
                    <path d="M121.5,254.75C124.77,263.7 128.24,269.75 127.94,282.29C127.64,294.83 120.94,314.13 122.85,324.16C121.759,324.482 120.74,325.012 119.85,325.72L109.79,322.88C119.79,308.99 124.55,281.63 121.94,259.49C121.71,257.82 121.59,256.25 121.5,254.75Z" style="fill:rgb(146,227,169);fill-opacity:0.4;fill-rule:nonzero;"/>
                </g>
                <g transform="matrix(0.990889,0,0,0.990889,0.349915,4.06206)">
                    <path d="M183.55,187.13L171.84,235.61C171.84,235.61 175.79,242.42 179.67,254.78C171.74,242 165,238.18 165,238.18C170.28,231.85 174.35,185.55 174.35,185.55C174.35,185.55 190.9,166.1 189.35,145.75C188.853,138.334 187.087,131.059 184.13,124.24C186.83,125.6 189.52,128.33 191.69,133.39C196.78,145.28 189.63,178.89 183.55,187.13Z" style="fill:rgb(146,227,169);fill-opacity:0.4;fill-rule:nonzero;"/>
                </g>
                <g transform="matrix(0.990889,0,0,0.990889,0.349915,4.06206)">
                    <path d="M109.76,322.88C119.76,308.99 124.52,281.63 121.92,259.49C119.32,237.35 127.56,231.81 134.51,223.07C141.46,214.33 157.08,181.34 157.08,173.52C157.08,165.7 176.62,146.61 172.28,124.9C172.28,124.9 184.75,117.17 191.69,133.39C196.78,145.29 189.63,178.89 183.55,187.14L171.85,235.61C171.85,235.61 184.34,257.16 186.69,293.24C188.19,316.29 177.51,341.97 177.51,341.97" style="fill:none;fill-rule:nonzero;stroke:rgb(141,133,180);stroke-width:1px;stroke-miterlimit:4;"/>
                </g>
                <g transform="matrix(0.990889,0,0,0.990889,0.349915,4.06206)">
                    <path d="M148.32,360.41C148.32,360.41 161.45,368.49 169.11,381.27" style="fill:none;fill-rule:nonzero;stroke:rgb(141,133,180);stroke-width:1px;stroke-miterlimit:4;"/>
                </g>
                <g transform="matrix(0.990889,0,0,0.990889,0.349915,4.06206)">
                    <path d="M185.2,375.7C185.2,375.7 173.89,377.31 163.67,365.08C157.12,357.25 137.23,353.71 132.67,333.23" style="fill:none;fill-rule:nonzero;stroke:rgb(141,133,180);stroke-width:1px;stroke-miterlimit:4;"/>
                </g>
                <g transform="matrix(0.990889,0,0,0.990889,0.349915,4.06206)">
                    <path d="M349.58,436.26C320.63,422.41 338.16,411.31 298.33,394.12C258.5,376.93 258.1,362.24 262.9,328.46C267.7,294.68 263.9,258.75 275.48,255.7C287.06,252.65 266.42,206.06 279.92,189.59L346.36,318.83L349.58,436.26Z" style="fill-opacity:0.14;fill-rule:nonzero;"/>
                </g>
                <g transform="matrix(0.990889,0,0,0.990889,0.349915,4.06206)">
                    <path d="M427.31,345.31C429.78,368.36 429.81,380.86 432.58,387.53C437.26,398.79 444.15,401.07 444.15,401.07C441.859,396.706 440.038,392.11 438.72,387.36C437.27,381.89 438.72,368.42 440.08,355.36C441.08,345.98 442,337.12 441.74,332.1L441.65,330.32C440.97,317.2 439.55,289.88 436.65,282.32C433.81,275.04 431.14,273.95 426.29,272C425.79,271.79 425.29,271.59 424.71,271.35C422.89,270.59 419.8,268.99 416.22,267.14C408.17,262.97 398.15,257.78 393.06,257.14C388.299,256.599 383.481,256.822 378.79,257.8C372.52,252.99 361.85,246.8 358.67,246.67C356.07,246.54 349.02,248.59 346.28,249.46C358.28,259.25 375.56,271.46 375.56,271.46C389.23,274.18 387.48,280.11 393.01,283.46C398.01,286.46 402.79,277.68 407.01,276.91C412.53,275.91 418.8,281.73 418.52,288.79C417.66,308.24 425.19,325.52 427.31,345.31Z" style="fill:rgb(146,227,169);fill-opacity:0.4;fill-rule:nonzero;"/>
                </g>
                <g transform="matrix(0.990889,0,0,0.990889,0.349915,4.06206)">
                    <path d="M358.21,273.88C358.21,273.88 347.38,264.88 342.21,261.88C337.04,258.88 336.21,248.54 340.29,246.03C340.445,245.937 340.62,245.882 340.8,245.87L340.43,245.7C336.9,244.25 331.57,244.19 328.66,244.28C334.66,255.45 339.45,264.02 340.74,265.9C345.09,272.18 358.21,273.88 358.21,273.88Z" style="fill:rgb(146,227,169);fill-opacity:0.4;fill-rule:nonzero;"/>
                </g>
                <g transform="matrix(0.990889,0,0,0.990889,0.349915,4.06206)">
                    <path d="M341.78,413.84C342.24,411.45 338.3,404.45 336.57,401.61C332.64,395.13 287.01,354.81 293.62,344.05C300.23,333.29 306.27,341.25 310.45,341.95C313.45,342.45 321.69,337.54 321.65,337.13C320.71,328.84 328.36,323.45 328.36,323.45C328.36,323.45 327.66,290.45 325.9,291.01C324.14,291.57 303.08,241.46 303.08,241.46C303.08,241.46 280.82,211.86 282.08,198.05C283.34,184.24 293,184 293,184L293,183.63C291.82,183.29 283.13,181.08 279.64,189.5C275.82,198.67 281.27,218.8 286.59,226.11C289.15,229.63 296.14,243.99 303.23,258.85C301.41,260.54 286.85,273.99 279.78,276.5C273.99,278.55 275.35,308.23 276.44,332.06C276.85,340.86 277.19,348.43 277.09,352.98C276.89,361.78 292.9,373.9 308.42,385.62C322.42,396.24 336.94,407.21 338.64,415.18C339.11,417.42 340.45,419.24 342.05,421.29C341.731,418.82 341.641,416.326 341.78,413.84ZM311.78,276.84C316.87,287.5 320.02,293.84 320.78,294.55C321.54,295.26 321.49,298.64 321.47,301.93C321.36,304.81 321.461,307.694 321.77,310.56C320.53,311.65 312.7,318.78 311.12,324.56L304.47,316.73L302.79,292.16C303.79,291.07 310.63,283.84 311.78,276.81L311.78,276.84Z" style="fill:rgb(146,227,169);fill-opacity:0.4;fill-rule:nonzero;"/>
                </g>
            </g>
            <g transform="matrix(1,0,0,1,1.97849,14.9897)">
                <g transform="matrix(1,0,0,1,298.772,75.0116)">
                    <path d="M0,294.379L-99.881,293.917C-111.894,293.862 -121.588,284.081 -121.538,272.068L-120.479,21.665C-120.428,9.645 -110.641,-0.056 -98.622,-0.001L1.26,0.461C13.272,0.516 22.967,10.297 22.916,22.31L21.857,272.714C21.807,284.733 12.02,294.435 0,294.379" style="fill:rgb(75,67,111);fill-rule:nonzero;"/>
                </g>
                <g transform="matrix(1,0,0,1,299.889,358.542)">
                    <path d="M0,-274.428L-19.365,-274.517C-21.962,-274.529 -24.077,-272.338 -24.088,-269.623L-24.104,-266.111C-24.114,-263.396 -26.229,-261.204 -28.826,-261.217L-66.573,-261.391C-69.17,-261.403 -71.266,-263.614 -71.255,-266.328L-71.24,-269.841C-71.229,-272.556 -73.325,-274.767 -75.922,-274.779L-82.732,-274.81L-99.682,-274.888C-108.099,-274.927 -114.954,-268.133 -114.989,-259.715L-116.022,-15.303C-116.058,-6.889 -109.269,-0.039 -100.855,0L-1.174,0.46C7.243,0.499 14.098,-6.295 14.134,-14.713L15.167,-259.126C15.202,-267.539 8.413,-274.389 0,-274.428" style="fill:rgb(146,153,244);fill-rule:nonzero;"/>
                </g>
                <g transform="matrix(1.01941,0,0,1,-4.67931,24.4746)">
                    <rect x="185.7" y="136.76" width="127.44" height="121.55" style="fill:rgb(193,198,249);"/>
                </g>
                <g transform="matrix(1,0,0,1,-1.08052,23.1146)">
                    <rect x="195.91" y="151.49" width="107.02" height="15.99" style="fill:white;"/>
                </g>
                <g transform="matrix(1,0,0,1,-1.08052,23.1146)">
                    <rect x="195.91" y="181.48" width="107.02" height="15.99" style="fill:white;"/>
                </g>
                <g transform="matrix(1,0,0,1,-1.08052,23.1146)">
                    <rect x="195.91" y="208.75" width="107.02" height="15.99" style="fill:white;"/>
                </g>
                <g transform="matrix(1,0,0,1,-1.08052,23.1146)">
                    <rect x="195.91" y="230.57" width="50.67" height="18.72" style="fill:white;"/>
                </g>
                <g transform="matrix(1,0,0,1,-1.08052,23.1146)">
                    <rect x="252.27" y="230.57" width="50.67" height="18.72" style="fill:white;"/>
                </g>
                <g transform="matrix(1,0,0,1,-1.08052,23.1146)">
                    <path d="M202.58,148.7L202.58,149.13L199.23,149.13L199.23,144.4L202.48,144.4L202.48,144.83L199.74,144.83L199.74,146.52L202.18,146.52L202.18,146.94L199.74,146.94L199.74,148.7L202.58,148.7Z" style="fill:rgb(38,50,56);fill-rule:nonzero;"/>
                </g>
                <g transform="matrix(1,0,0,1,-1.08052,23.1146)">
                    <path d="M209.52,147.07L209.52,149.13L209,149.13L209,147.13C209,146.38 208.62,145.99 208,145.99C207.984,145.989 207.968,145.989 207.951,145.989C207.32,145.989 206.801,146.508 206.801,147.139C206.801,147.186 206.804,147.233 206.81,147.28L206.81,149.14L206.33,149.14L206.33,147.14C206.33,146.39 205.95,146 205.33,146C205.314,145.999 205.298,145.999 205.281,145.999C204.65,145.999 204.131,146.518 204.131,147.149C204.131,147.196 204.134,147.243 204.14,147.29L204.14,149.15L203.66,149.15L203.66,145.6L204.12,145.6L204.12,146.25C204.398,145.8 204.902,145.539 205.43,145.57C205.966,145.525 206.474,145.827 206.69,146.32C206.986,145.831 207.529,145.542 208.1,145.57C208.13,145.568 208.16,145.567 208.19,145.567C208.925,145.567 209.53,146.172 209.53,146.907C209.53,146.961 209.527,147.016 209.52,147.07Z" style="fill:rgb(38,50,56);fill-rule:nonzero;"/>
                </g>
                <g transform="matrix(1,0,0,1,-1.08052,23.1146)">
                    <path d="M213.51,146.93L213.51,149.13L213.05,149.13L213.05,148.58C212.776,148.982 212.306,149.208 211.82,149.17C211.02,149.17 210.53,148.75 210.53,148.17C210.53,147.59 210.88,147.17 211.9,147.17L213,147.17L213,146.95C213,146.34 212.65,146.01 212,146.01C211.569,146.003 211.15,146.153 210.82,146.43L210.6,146.07C211.014,145.75 211.526,145.58 212.05,145.59C212.117,145.579 212.185,145.573 212.254,145.573C212.945,145.573 213.514,146.142 213.514,146.833C213.514,146.866 213.512,146.898 213.51,146.93ZM213.03,148.07L213.03,147.48L211.91,147.48C211.22,147.48 211,147.75 211,148.12C211,148.49 211.33,148.79 211.9,148.79C212.38,148.804 212.821,148.516 213,148.07L213.03,148.07Z" style="fill:rgb(38,50,56);fill-rule:nonzero;"/>
                </g>
                <g transform="matrix(1,0,0,1,-1.08052,23.1146)">
                    <path d="M214.7,144.46C214.705,144.272 214.862,144.12 215.05,144.12C215.237,144.12 215.39,144.273 215.39,144.46C215.39,144.647 215.237,144.8 215.05,144.8C214.862,144.8 214.705,144.648 214.7,144.46ZM214.81,145.58L215.29,145.58L215.29,149.13L214.81,149.13L214.81,145.58Z" style="fill:rgb(38,50,56);fill-rule:nonzero;"/>
                </g>
                <g transform="matrix(1,0,0,1,-1.08052,23.1146)">
                    <rect x="216.63" y="144.12" width="0.48" height="5" style="fill:rgb(38,50,56);fill-rule:nonzero;"/>
                </g>
                <g transform="matrix(1,0,0,1,-1.08052,23.1146)">
                    <path d="M203.39,189.56L204.23,190.04L204.08,190.32L203.23,189.83L203.23,190.83L202.92,190.83L202.92,189.83L202.07,190.32L201.91,190.04L202.76,189.56L201.91,189.09L202.07,188.8L202.92,189.3L202.92,188.3L203.23,188.3L203.23,189.3L204.08,188.8L204.23,189.09L203.39,189.56Z" style="fill:rgb(38,50,56);fill-rule:nonzero;"/>
                </g>
                <g transform="matrix(1,0,0,1,-1.08052,23.1146)">
                    <path d="M206.14,189.56L206.98,190.04L206.82,190.32L205.98,189.83L205.98,190.83L205.66,190.83L205.66,189.83L204.82,190.32L204.65,190.04L205.5,189.56L204.65,189.09L204.82,188.8L205.66,189.3L205.66,188.3L206,188.3L206,189.3L206.84,188.8L207,189.09L206.14,189.56Z" style="fill:rgb(38,50,56);fill-rule:nonzero;"/>
                </g>
                <g transform="matrix(1,0,0,1,-1.08052,23.1146)">
                    <path d="M208.88,189.56L209.72,190.04L209.56,190.32L208.72,189.83L208.72,190.83L208.41,190.83L208.41,189.83L207.57,190.32L207.41,190.04L208.25,189.56L207.41,189.09L207.57,188.8L208.41,189.3L208.41,188.3L208.72,188.3L208.72,189.3L209.56,188.8L209.72,189.09L208.88,189.56Z" style="fill:rgb(38,50,56);fill-rule:nonzero;"/>
                </g>
                <g transform="matrix(1,0,0,1,-1.08052,23.1146)">
                    <path d="M211.62,189.56L212.46,190.04L212.31,190.32L211.46,189.83L211.46,190.83L211.15,190.83L211.15,189.83L210.3,190.32L210.14,190.04L210.99,189.56L210.14,189.09L210.3,188.8L211.15,189.3L211.15,188.3L211.46,188.3L211.46,189.3L212.31,188.8L212.46,189.09L211.62,189.56Z" style="fill:rgb(38,50,56);fill-rule:nonzero;"/>
                </g>
                <g transform="matrix(1,0,0,1,-1.08052,23.1146)">
                    <path d="M214.37,189.56L215.21,190.04L215.05,190.32L214.21,189.83L214.21,190.83L213.89,190.83L213.89,189.83L213.05,190.32L212.88,190.04L213.73,189.56L212.88,189.09L213.05,188.8L213.89,189.3L213.89,188.3L214.21,188.3L214.21,189.3L215.05,188.8L215.21,189.09L214.37,189.56Z" style="fill:rgb(38,50,56);fill-rule:nonzero;"/>
                </g>
                <g transform="matrix(1,0,0,1,-1.08052,23.1146)">
                    <path d="M217.11,189.56L217.95,190.04L217.79,190.32L216.95,189.83L216.95,190.83L216.64,190.83L216.64,189.83L215.8,190.32L215.64,190.04L216.48,189.56L215.64,189.09L215.8,188.8L216.64,189.3L216.64,188.3L217,188.3L217,189.3L217.84,188.8L218,189.09L217.11,189.56Z" style="fill:rgb(38,50,56);fill-rule:nonzero;"/>
                </g>
                <g transform="matrix(1,0,0,1,-1.08052,23.1146)">
                    <path d="M219.85,189.56L220.69,190.04L220.54,190.32L219.69,189.83L219.69,190.83L219.38,190.83L219.38,189.83L218.53,190.32L218.37,190.04L219.22,189.56L218.37,189.09L218.53,188.8L219.38,189.3L219.38,188.3L219.69,188.3L219.69,189.3L220.54,188.8L220.69,189.09L219.85,189.56Z" style="fill:rgb(38,50,56);fill-rule:nonzero;"/>
                </g>
                <g transform="matrix(1,0,0,1,-1.08052,23.1146)">
                    <path d="M222.6,189.56L223.44,190.04L223.28,190.32L222.43,189.83L222.43,190.83L222.12,190.83L222.12,189.83L221.28,190.32L221.11,190.04L221.96,189.56L221.11,189.09L221.28,188.8L222.12,189.3L222.12,188.3L222.43,188.3L222.43,189.3L223.28,188.8L223.44,189.09L222.6,189.56Z" style="fill:rgb(38,50,56);fill-rule:nonzero;"/>
                </g>
                <g transform="matrix(1,0,0,1,-1.08052,23.1146)">
                    <path d="M225.34,189.56L226.18,190.04L226.02,190.32L225.18,189.83L225.18,190.83L224.87,190.83L224.87,189.83L224.03,190.32L223.87,190.04L224.71,189.56L223.87,189.09L224.03,188.8L224.87,189.3L224.87,188.3L225.18,188.3L225.18,189.3L226.02,188.8L226.18,189.09L225.34,189.56Z" style="fill:rgb(38,50,56);fill-rule:nonzero;"/>
                </g>
                <g transform="matrix(1,0,0,1,-1.08052,23.1146)">
                    <path d="M228.08,189.56L228.92,190.04L228.77,190.32L227.92,189.83L227.92,190.83L227.61,190.83L227.61,189.83L226.76,190.32L226.6,190.04L227.44,189.56L226.6,189.09L226.76,188.8L227.61,189.3L227.61,188.3L227.92,188.3L227.92,189.3L228.77,188.8L228.92,189.09L228.08,189.56Z" style="fill:rgb(38,50,56);fill-rule:nonzero;"/>
                </g>
                <g transform="matrix(1,0,0,1,-1.08052,23.1146)">
                    <path d="M230.83,189.56L231.66,190.04L231.51,190.32L230.66,189.83L230.66,190.83L230.35,190.83L230.35,189.83L229.51,190.32L229.34,190.04L230.19,189.56L229.34,189.09L229.51,188.8L230.35,189.3L230.35,188.3L230.66,188.3L230.66,189.3L231.51,188.8L231.66,189.09L230.83,189.56Z" style="fill:rgb(38,50,56);fill-rule:nonzero;"/>
                </g>
                <g transform="matrix(1,0,0,1,-1.08052,23.1146)">
                    <path d="M202.94,176C202.94,177 202.21,177.62 201.01,177.62L199.74,177.62L199.74,179.11L199.23,179.11L199.23,174.4L201,174.4C202.21,174.4 202.94,175 202.94,176ZM202.44,176C202.44,175.24 201.94,174.81 200.99,174.81L199.74,174.81L199.74,177.18L201,177.18C201.94,177.2 202.44,176.77 202.44,176Z" style="fill:rgb(38,50,56);fill-rule:nonzero;"/>
                </g>
                <g transform="matrix(1,0,0,1,-1.08052,23.1146)">
                    <path d="M206.57,176.93L206.57,179.13L206.11,179.13L206.11,178.58C205.835,178.98 205.364,179.202 204.88,179.16C204.08,179.16 203.59,178.75 203.59,178.16C203.59,177.57 203.94,177.16 204.96,177.16L206.09,177.16L206.09,176.95C206.09,176.34 205.74,176.01 205.09,176.01C204.659,176.003 204.24,176.153 203.91,176.43L203.69,176.07C204.102,175.745 204.615,175.575 205.14,175.59C205.197,175.582 205.255,175.578 205.313,175.578C206.005,175.578 206.573,176.147 206.573,176.838C206.573,176.869 206.572,176.899 206.57,176.93ZM206.09,178.06L206.09,177.48L205,177.48C204.31,177.48 204.09,177.75 204.09,178.12C204.09,178.49 204.42,178.79 204.99,178.79C205.473,178.805 205.916,178.511 206.09,178.06Z" style="fill:rgb(38,50,56);fill-rule:nonzero;"/>
                </g>
                <g transform="matrix(1,0,0,1,-1.08052,23.1146)">
                    <path d="M207.38,178.73L207.59,178.35C207.962,178.611 208.406,178.751 208.86,178.75C209.53,178.75 209.81,178.52 209.81,178.16C209.81,177.24 207.51,177.97 207.51,176.56C207.51,175.98 208.01,175.56 208.91,175.56C209.352,175.554 209.788,175.668 210.17,175.89L209.96,176.27C209.648,176.067 209.282,175.963 208.91,175.97C208.27,175.97 207.99,176.22 207.99,176.56C207.99,177.56 210.29,176.8 210.29,178.16C210.29,178.78 209.75,179.16 208.82,179.16C208.306,179.177 207.801,179.026 207.38,178.73Z" style="fill:rgb(38,50,56);fill-rule:nonzero;"/>
                </g>
                <g transform="matrix(1,0,0,1,-1.08052,23.1146)">
                    <path d="M210.68,178.73L210.9,178.35C211.268,178.612 211.708,178.752 212.16,178.75C212.84,178.75 213.16,178.52 213.16,178.16C213.16,177.24 210.86,177.97 210.86,176.56C210.86,175.98 211.36,175.56 212.27,175.56C212.709,175.553 213.142,175.667 213.52,175.89L213.31,176.27C213.012,176.076 212.665,175.972 212.31,175.97C211.66,175.97 211.38,176.22 211.38,176.56C211.38,177.56 213.68,176.8 213.68,178.16C213.68,178.78 213.14,179.16 212.22,179.16C211.673,179.199 211.128,179.047 210.68,178.73Z" style="fill:rgb(38,50,56);fill-rule:nonzero;"/>
                </g>
                <g transform="matrix(1,0,0,1,-1.08052,23.1146)">
                    <path d="M219.63,175.58L218.28,179.13L217.83,179.13L216.71,176.22L215.59,179.13L215.13,179.13L213.8,175.58L214.26,175.58L215.37,178.58L216.51,175.58L216.93,175.58L218.06,178.58L219.19,175.58L219.63,175.58Z" style="fill:rgb(38,50,56);fill-rule:nonzero;"/>
                </g>
                <g transform="matrix(1,0,0,1,-1.08052,23.1146)">
                    <path d="M219.89,177.35C219.89,176.357 220.707,175.54 221.7,175.54C222.693,175.54 223.51,176.357 223.51,177.35C223.51,178.343 222.693,179.16 221.7,179.16C221.68,179.161 221.659,179.161 221.639,179.161C220.679,179.161 219.889,178.371 219.889,177.411C219.889,177.391 219.889,177.37 219.89,177.35ZM223.02,177.35C223.02,176.626 222.424,176.03 221.7,176.03C220.976,176.03 220.38,176.626 220.38,177.35C220.38,178.074 220.976,178.67 221.7,178.67C222.424,178.67 223.02,178.074 223.02,177.35Z" style="fill:rgb(38,50,56);fill-rule:nonzero;"/>
                </g>
                <g transform="matrix(1,0,0,1,-1.08052,23.1146)">
                    <path d="M226.28,175.55L226.28,176L226.16,176C226.143,175.999 226.126,175.999 226.109,175.999C225.478,175.999 224.959,176.518 224.959,177.149C224.959,177.203 224.962,177.257 224.97,177.31L224.97,179.12L224.49,179.12L224.49,175.57L225,175.57L225,176.26C225.246,175.79 225.751,175.51 226.28,175.55Z" style="fill:rgb(38,50,56);fill-rule:nonzero;"/>
                </g>
                <g transform="matrix(1,0,0,1,-1.08052,23.1146)">
                    <path d="M230.35,174.12L230.35,179.12L229.89,179.12L229.89,178.42C229.6,178.894 229.075,179.174 228.52,179.15C227.58,179.08 226.844,178.287 226.844,177.345C226.844,176.403 227.58,175.61 228.52,175.54C229.061,175.519 229.575,175.786 229.87,176.24L229.87,174.11L230.35,174.12ZM229.88,177.35C229.843,176.653 229.26,176.1 228.562,176.1C227.838,176.1 227.242,176.696 227.242,177.42C227.242,178.143 227.837,178.739 228.56,178.74C228.568,178.74 228.575,178.74 228.583,178.74C229.296,178.74 229.883,178.153 229.883,177.44C229.883,177.41 229.882,177.38 229.88,177.35Z" style="fill:rgb(38,50,56);fill-rule:nonzero;"/>
                </g>
                <g transform="matrix(1,0,0,1,-1.08052,23.1146)">
                    <path d="M237.46,215L237.46,219.74L237,219.74L237,215.44L235.88,215.44L235.88,215L237.46,215Z" style="fill:rgb(38,50,56);fill-rule:nonzero;"/>
                </g>
                <g transform="matrix(1,0,0,1,-1.08052,23.1146)">
                    <path d="M241.82,219.28L241.82,219.72L238.5,219.72L238.5,219.37L240.5,217.44C241.03,216.92 241.14,216.6 241.14,216.28C241.14,215.73 240.75,215.39 240.03,215.39C239.542,215.359 239.065,215.554 238.74,215.92L238.39,215.62C238.821,215.156 239.437,214.907 240.07,214.94C241.07,214.94 241.64,215.43 241.64,216.22C241.609,216.803 241.323,217.345 240.86,217.7L239.25,219.28L241.82,219.28Z" style="fill:rgb(38,50,56);fill-rule:nonzero;"/>
                </g>
                <g transform="matrix(1,0,0,1,-1.08052,23.1146)">
                    <path d="M245.56,218.36C245.56,219.15 244.98,219.76 243.84,219.76C243.217,219.78 242.609,219.561 242.14,219.15L242.37,218.76C242.77,219.127 243.297,219.325 243.84,219.31C244.63,219.31 245.06,218.95 245.06,218.36C245.06,217.77 244.66,217.42 243.78,217.42L243.44,217.42L243.44,217.06L244.75,215.42L242.33,215.42L242.33,215L245.33,215L245.33,215.35L244,217C245.05,217.07 245.56,217.6 245.56,218.36Z" style="fill:rgb(38,50,56);fill-rule:nonzero;"/>
                </g>
                <g transform="matrix(1,0,0,1,-1.08052,23.1146)">
                    <path d="M250.26,218.47L249.31,218.47L249.31,219.72L248.83,219.72L248.83,218.47L246.16,218.47L246.16,218.12L248.67,214.98L249.21,214.98L246.79,218L248.84,218L248.84,216.9L249.31,216.9L249.31,218L250.26,218L250.26,218.47Z" style="fill:rgb(38,50,56);fill-rule:nonzero;"/>
                </g>
                <g transform="matrix(1,0,0,1,-1.08052,23.1146)">
                    <path d="M255.69,218.32C255.69,219.13 255.13,219.76 253.97,219.76C253.347,219.779 252.739,219.561 252.27,219.15L252.51,218.76C252.9,219.131 253.423,219.329 253.96,219.31C254.77,219.31 255.19,218.92 255.19,218.31C255.19,217.7 254.81,217.31 253.61,217.31L252.61,217.31L252.86,214.93L255.45,214.93L255.45,215.37L253.28,215.37L253.12,216.87L253.73,216.87C255.15,216.92 255.69,217.49 255.69,218.32Z" style="fill:rgb(38,50,56);fill-rule:nonzero;"/>
                </g>
                <g transform="matrix(1,0,0,1,-1.08052,23.1146)">
                    <path d="M259.86,218.3C259.853,219.107 259.187,219.767 258.38,219.767C258.333,219.767 258.287,219.764 258.24,219.76C256.98,219.76 256.3,218.88 256.3,217.39C256.3,215.9 257.18,214.94 258.46,214.94C258.853,214.925 259.243,215.015 259.59,215.2L259.39,215.59C259.111,215.43 258.791,215.354 258.47,215.37C257.47,215.37 256.79,216.02 256.79,217.31L256.79,217.69C257.071,217.159 257.641,216.841 258.24,216.88C258.3,216.872 258.36,216.869 258.42,216.869C259.207,216.869 259.855,217.513 259.86,218.3ZM259.38,218.3C259.38,217.67 258.92,217.3 258.19,217.3C258.146,217.295 258.101,217.292 258.057,217.292C257.49,217.292 257.013,217.734 256.97,218.3C256.97,218.82 257.4,219.3 258.22,219.3C258.273,219.309 258.326,219.313 258.38,219.313C258.926,219.313 259.376,218.866 259.38,218.32L259.38,218.3Z" style="fill:rgb(38,50,56);fill-rule:nonzero;"/>
                </g>
                <g transform="matrix(1,0,0,1,-1.08052,23.1146)">
                    <path d="M263.7,215L263.7,215.35L261.7,219.74L261.17,219.74L263.12,215.44L260.69,215.44L260.69,216.32L260.21,216.32L260.21,215L263.7,215Z" style="fill:rgb(38,50,56);fill-rule:nonzero;"/>
                </g>
                <g transform="matrix(1,0,0,1,-1.08052,23.1146)">
                    <path d="M267.85,218.4C267.85,219.24 267.14,219.76 266.01,219.76C264.88,219.76 264.19,219.24 264.19,218.4C264.184,217.848 264.563,217.36 265.1,217.23C264.652,217.11 264.344,216.693 264.36,216.23C264.36,215.46 265.01,214.98 266.01,214.98C267.01,214.98 267.68,215.46 267.68,216.23C267.673,216.692 267.364,217.099 266.92,217.23C267.463,217.355 267.85,217.843 267.85,218.4ZM267.35,218.4C267.35,217.82 266.85,217.45 266.01,217.45C265.17,217.45 264.68,217.82 264.68,218.4C264.68,218.98 265.17,219.4 266.01,219.4C266.85,219.4 267.35,219 267.35,218.39L267.35,218.4ZM266,217.06C266.74,217.06 267.18,216.73 267.18,216.21C267.18,215.69 266.71,215.36 266,215.36C265.29,215.36 264.83,215.68 264.83,216.21C264.83,216.74 265.27,217.06 266,217.06Z" style="fill:rgb(38,50,56);fill-rule:nonzero;"/>
                </g>
                <g transform="matrix(1,0,0,1,-1.08052,23.1146)">
                    <path d="M273.71,217.31C273.71,218.92 272.83,219.76 271.54,219.76C271.15,219.774 270.764,219.684 270.42,219.5L270.62,219.11C270.899,219.27 271.219,219.346 271.54,219.33C272.54,219.33 273.21,218.67 273.21,217.39C273.219,217.264 273.219,217.136 273.21,217.01C272.936,217.543 272.368,217.862 271.77,217.82C271.717,217.826 271.663,217.829 271.61,217.829C270.824,217.829 270.176,217.186 270.17,216.4C270.177,215.593 270.843,214.933 271.65,214.933C271.697,214.933 271.743,214.936 271.79,214.94C273,214.94 273.71,215.82 273.71,217.31ZM273.04,216.37C273.04,215.85 272.61,215.37 271.79,215.37C271.737,215.361 271.684,215.357 271.63,215.357C271.081,215.357 270.63,215.809 270.63,216.357C270.63,216.361 270.63,216.366 270.63,216.37C270.63,217 271.09,217.37 271.82,217.37C272.417,217.416 272.947,216.966 273,216.37L273.04,216.37Z" style="fill:rgb(38,50,56);fill-rule:nonzero;"/>
                </g>
                <g transform="matrix(1,0,0,1,-1.08052,23.1146)">
                    <path d="M275.71,215L275.71,219.74L275.22,219.74L275.22,215.44L274.1,215.44L274.1,215L275.71,215Z" style="fill:rgb(38,50,56);fill-rule:nonzero;"/>
                </g>
                <g transform="matrix(1,0,0,1,-1.08052,23.1146)">
                    <path d="M276.83,217.35C276.83,215.84 277.63,214.94 278.72,214.94C279.81,214.94 280.61,215.84 280.61,217.35C280.61,218.86 279.82,219.76 278.72,219.76C277.62,219.76 276.83,218.86 276.83,217.35ZM280.11,217.35C280.11,216.09 279.55,215.35 278.72,215.35C277.89,215.35 277.33,216.05 277.33,217.35C277.33,218.65 277.9,219.35 278.72,219.35C279.54,219.35 280.11,218.61 280.11,217.35Z" style="fill:rgb(38,50,56);fill-rule:nonzero;"/>
                </g>
                <g transform="matrix(1,0,0,1,-1.08052,23.1146)">
                    <path d="M282.61,215L282.61,219.74L282.12,219.74L282.12,215.44L281,215.44L281,215L282.61,215Z" style="fill:rgb(38,50,56);fill-rule:nonzero;"/>
                </g>
                <g transform="matrix(1,0,0,1,-1.08052,23.1146)">
                    <path d="M286.82,215L286.82,219.74L286.33,219.74L286.33,215.44L285.21,215.44L285.21,215L286.82,215Z" style="fill:rgb(38,50,56);fill-rule:nonzero;"/>
                </g>
                <g transform="matrix(1,0,0,1,-1.08052,23.1146)">
                    <path d="M289.25,215L289.25,219.74L288.77,219.74L288.77,215.44L287.65,215.44L287.65,215L289.25,215Z" style="fill:rgb(38,50,56);fill-rule:nonzero;"/>
                </g>
                <g transform="matrix(1,0,0,1,-1.08052,23.1146)">
                    <path d="M293.61,219.28L293.61,219.72L290.29,219.72L290.29,219.37L292.29,217.44C292.82,216.92 292.93,216.6 292.93,216.28C292.93,215.73 292.54,215.39 291.82,215.39C291.332,215.359 290.855,215.554 290.53,215.92L290.18,215.62C290.613,215.158 291.228,214.909 291.86,214.94C292.86,214.94 293.43,215.43 293.43,216.22C293.399,216.803 293.113,217.345 292.65,217.7L291,219.28L293.61,219.28Z" style="fill:rgb(38,50,56);fill-rule:nonzero;"/>
                </g>
                <g transform="matrix(1,0,0,1,-1.08052,23.1146)">
                    <path d="M295.53,215L295.53,219.74L295,219.74L295,215.44L293.89,215.44L293.89,215L295.53,215Z" style="fill:rgb(38,50,56);fill-rule:nonzero;"/>
                </g>
                <g transform="matrix(1,0,0,1,-1.08052,23.1146)">
                    <path d="M215.79,213.9L215.79,213.18C215.79,212.489 215.221,211.92 214.53,211.92L201.76,211.92C201.069,211.92 200.5,212.489 200.5,213.18L200.5,213.9L215.79,213.9Z" style="fill:rgb(158,168,246);fill-rule:nonzero;"/>
                </g>
                <g transform="matrix(1,0,0,1,-1.08052,23.1146)">
                    <path d="M200.5,214.89L200.5,220.19C200.5,220.881 201.069,221.45 201.76,221.45L214.53,221.45C215.221,221.45 215.79,220.881 215.79,220.19L215.79,214.89L200.5,214.89Z" style="fill:rgb(158,168,246);fill-rule:nonzero;"/>
                </g>
                <g transform="matrix(1,0,0,1,-1.08052,23.1146)">
                    <path d="M200.69,242.8C200.69,241.29 201.48,240.4 202.58,240.4C203.68,240.4 204.47,241.29 204.47,242.8C204.47,244.31 203.67,245.21 202.58,245.21C201.49,245.21 200.69,244.31 200.69,242.8ZM203.97,242.8C203.97,241.54 203.4,240.8 202.58,240.8C201.76,240.8 201.19,241.5 201.19,242.8C201.19,244.1 201.75,244.8 202.58,244.8C203.41,244.8 204,244.07 204,242.8L203.97,242.8Z" style="fill:rgb(38,50,56);fill-rule:nonzero;"/>
                </g>
                <g transform="matrix(1,0,0,1,-1.08052,23.1146)">
                    <path d="M208.8,243.85C208.8,244.69 208.09,245.21 206.96,245.21C205.83,245.21 205.14,244.69 205.14,243.85C205.131,243.299 205.513,242.812 206.05,242.69C205.616,242.549 205.318,242.146 205.31,241.69C205.31,240.92 205.96,240.44 206.96,240.44C207.96,240.44 208.63,240.92 208.63,241.69C208.618,242.148 208.316,242.55 207.88,242.69C208.419,242.812 208.804,243.297 208.8,243.85ZM208.3,243.85C208.3,243.27 207.8,242.91 206.96,242.91C206.12,242.91 205.63,243.27 205.63,243.85C205.63,244.43 206.13,244.85 206.96,244.85C207.79,244.85 208.3,244.43 208.3,243.84L208.3,243.85ZM207,242.51C207.74,242.51 208.18,242.18 208.18,241.67C208.18,241.16 207.71,240.81 207,240.81C206.29,240.81 205.83,241.13 205.83,241.66C205.83,242.19 206.23,242.51 207,242.51Z" style="fill:rgb(38,50,56);fill-rule:nonzero;"/>
                </g>
                <g transform="matrix(1,0,0,1,-1.08052,23.1146)">
                    <path d="M211.19,239.48L211.63,239.48L209.39,245.84L209,245.84L211.19,239.48Z" style="fill:rgb(38,50,56);fill-rule:nonzero;"/>
                </g>
                <g transform="matrix(1,0,0,1,-1.08052,23.1146)">
                    <path d="M215,244.73L215,245.17L211.68,245.17L211.68,244.82L213.68,242.9C214.21,242.37 214.31,242.05 214.31,241.73C214.31,241.18 213.93,240.84 213.21,240.84C212.719,240.809 212.239,241.004 211.91,241.37L211.57,241.07C212.002,240.607 212.618,240.361 213.25,240.4C214.25,240.4 214.81,240.88 214.81,241.67C214.789,242.254 214.506,242.798 214.04,243.15L212.43,244.73L215,244.73Z" style="fill:rgb(38,50,56);fill-rule:nonzero;"/>
                </g>
                <g transform="matrix(1,0,0,1,-1.08052,23.1146)">
                    <path d="M218.79,243.77C218.79,244.58 218.23,245.21 217.07,245.21C216.447,245.229 215.839,245.011 215.37,244.6L215.61,244.21C216,244.581 216.523,244.779 217.06,244.76C217.87,244.76 218.29,244.37 218.29,243.76C218.29,243.15 217.92,242.76 216.71,242.76L215.71,242.76L215.95,240.39L218.54,240.39L218.54,240.82L216.37,240.82L216.21,242.33L216.82,242.33C218.25,242.38 218.79,242.94 218.79,243.77Z" style="fill:rgb(38,50,56);fill-rule:nonzero;"/>
                </g>
                <g transform="matrix(1,0,0,1,-1.08052,23.1146)">
                    <path d="M202.9,237.39L202.9,237.66L200.82,237.66L200.82,234.72L202.82,234.72L202.82,235L201.12,235L201.12,236L202.64,236L202.64,236.27L201.12,236.27L201.12,237.36L202.9,237.39Z" style="fill:rgb(38,50,56);fill-rule:nonzero;"/>
                </g>
                <g transform="matrix(1,0,0,1,-1.08052,23.1146)">
                    <path d="M205.43,237.66L204.49,236.36L203.49,237.66L203.13,237.66L204.25,236.15L203.25,234.72L203.6,234.72L204.49,235.92L205.37,234.72L205.7,234.72L204.7,236.14L205.82,237.66L205.43,237.66Z" style="fill:rgb(38,50,56);fill-rule:nonzero;"/>
                </g>
                <g transform="matrix(1,0,0,1,-1.08052,23.1146)">
                    <path d="M208.55,235.73C208.55,236.35 208.09,236.73 207.35,236.73L206.56,236.73L206.56,237.66L206.25,237.66L206.25,234.72L207.35,234.72C208.09,234.72 208.55,235.1 208.55,235.73ZM208.24,235.73C208.24,235.26 207.93,234.99 207.34,234.99L206.56,234.99L206.56,236.46L207.34,236.46C207.93,236.46 208.24,236.19 208.24,235.73Z" style="fill:rgb(38,50,56);fill-rule:nonzero;"/>
                </g>
                <g transform="matrix(1,0,0,1,-1.08052,23.1146)">
                    <path d="M210.37,234.72L211.56,234.72C212.366,234.72 213.03,235.384 213.03,236.19C213.03,236.996 212.366,237.66 211.56,237.66L210.37,237.66L210.37,234.72ZM211.54,237.39C212.198,237.39 212.74,236.848 212.74,236.19C212.74,235.532 212.198,234.99 211.54,234.99L210.68,234.99L210.68,237.39L211.54,237.39Z" style="fill:rgb(38,50,56);fill-rule:nonzero;"/>
                </g>
                <g transform="matrix(1,0,0,1,-1.08052,23.1146)">
                    <path d="M215.44,236.29L215.44,237.66L215.15,237.66L215.15,237.31C214.985,237.564 214.692,237.707 214.39,237.68C213.9,237.68 213.59,237.42 213.59,237.04C213.59,236.66 213.81,236.41 214.44,236.41L215.14,236.41L215.14,236.28C215.142,236.261 215.143,236.242 215.143,236.224C215.143,235.927 214.899,235.684 214.603,235.684C214.575,235.684 214.547,235.686 214.52,235.69C214.25,235.686 213.988,235.778 213.78,235.95L213.65,235.73C213.905,235.528 214.224,235.421 214.55,235.43C214.588,235.424 214.627,235.421 214.665,235.421C215.093,235.421 215.445,235.774 215.445,236.201C215.445,236.231 215.443,236.261 215.44,236.29ZM215.14,237L215.14,236.63L214.45,236.63C214.02,236.63 213.88,236.8 213.88,237.03C213.88,237.26 214.09,237.44 214.44,237.44C214.743,237.461 215.028,237.283 215.14,237Z" style="fill:rgb(38,50,56);fill-rule:nonzero;"/>
                </g>
                <g transform="matrix(1,0,0,1,-1.08052,23.1146)">
                    <path d="M217.41,237.52C217.283,237.63 217.118,237.687 216.95,237.68C216.929,237.682 216.908,237.683 216.888,237.683C216.564,237.683 216.298,237.417 216.298,237.093C216.298,237.076 216.298,237.058 216.3,237.04L216.3,235.7L215.91,235.7L215.91,235.45L216.3,235.45L216.3,235L216.6,235L216.6,235.48L217.27,235.48L217.27,235.73L216.6,235.73L216.6,237C216.597,237.017 216.596,237.034 216.596,237.052C216.596,237.244 216.754,237.402 216.946,237.402C216.957,237.402 216.969,237.401 216.98,237.4C217.099,237.402 217.216,237.363 217.31,237.29L217.41,237.52Z" style="fill:rgb(38,50,56);fill-rule:nonzero;"/>
                </g>
                <g transform="matrix(1,0,0,1,-1.08052,23.1146)">
                    <path d="M219.8,236.65L218,236.65C218.032,237.096 218.423,237.438 218.87,237.41C219.129,237.421 219.379,237.314 219.55,237.12L219.72,237.32C219.499,237.559 219.185,237.691 218.86,237.68C218.84,237.681 218.819,237.682 218.799,237.682C218.201,237.682 217.709,237.19 217.709,236.592C217.709,236.578 217.709,236.564 217.71,236.55C217.709,236.53 217.708,236.51 217.708,236.49C217.708,235.908 218.187,235.43 218.768,235.43C218.772,235.43 218.776,235.43 218.78,235.43C218.806,235.428 218.832,235.427 218.858,235.427C219.406,235.427 219.858,235.878 219.858,236.427C219.858,236.468 219.855,236.509 219.85,236.55L219.8,236.65ZM217.95,236.42L219.52,236.42C219.475,236.023 219.135,235.719 218.735,235.719C218.335,235.719 217.995,236.023 217.95,236.42Z" style="fill:rgb(38,50,56);fill-rule:nonzero;"/>
                </g>
                <g transform="matrix(1,0,0,1,-1.08052,23.1146)">
                    <path d="M256.54,240.44L256.54,245.17L256.06,245.17L256.06,240.87L254.94,240.87L254.94,240.44L256.54,240.44Z" style="fill:rgb(38,50,56);fill-rule:nonzero;"/>
                </g>
                <g transform="matrix(1,0,0,1,-1.08052,23.1146)">
                    <path d="M260.9,244.73L260.9,245.17L257.58,245.17L257.58,244.82L259.58,242.9C260.11,242.37 260.22,242.05 260.22,241.73C260.22,241.18 259.83,240.84 259.11,240.84C258.622,240.809 258.145,241.004 257.82,241.37L257.47,241.07C257.903,240.61 258.519,240.364 259.15,240.4C260.15,240.4 260.72,240.88 260.72,241.67C260.689,242.253 260.403,242.795 259.94,243.15L258.33,244.73L260.9,244.73Z" style="fill:rgb(38,50,56);fill-rule:nonzero;"/>
                </g>
                <g transform="matrix(1,0,0,1,-1.08052,23.1146)">
                    <path d="M264.64,243.81C264.64,244.6 264.06,245.21 262.92,245.21C262.297,245.23 261.689,245.011 261.22,244.6L261.46,244.21C261.852,244.583 262.379,244.782 262.92,244.76C263.71,244.76 264.14,244.4 264.14,243.81C264.14,243.22 263.74,242.87 262.86,242.87L262.52,242.87L262.52,242.51L263.83,240.87L261.41,240.87L261.41,240.44L264.41,240.44L264.41,240.78L263.07,242.46C264.13,242.52 264.64,243.05 264.64,243.81Z" style="fill:rgb(38,50,56);fill-rule:nonzero;"/>
                </g>
                <g transform="matrix(1,0,0,1,-1.08052,23.1146)">
                    <path d="M255.1,236.19C255.1,236.183 255.1,236.176 255.1,236.169C255.1,235.357 255.768,234.689 256.58,234.689C256.6,234.689 256.62,234.689 256.64,234.69C257.041,234.677 257.43,234.833 257.71,235.12L257.52,235.32C257.29,235.089 256.976,234.963 256.65,234.97C256.613,234.967 256.576,234.965 256.54,234.965C255.87,234.965 255.32,235.516 255.32,236.185C255.32,236.854 255.87,237.405 256.54,237.405C256.576,237.405 256.613,237.403 256.65,237.4C256.976,237.412 257.293,237.285 257.52,237.05L257.71,237.25C257.429,237.543 257.035,237.7 256.63,237.68C256.61,237.681 256.59,237.681 256.57,237.681C255.763,237.681 255.1,237.018 255.1,236.211C255.1,236.204 255.1,236.197 255.1,236.19Z" style="fill:rgb(38,50,56);fill-rule:nonzero;"/>
                </g>
                <g transform="matrix(1,0,0,1,-1.08052,23.1146)">
                    <path d="M262.38,234.72L261.38,237.66L261.05,237.66L260.19,235.15L259.33,237.66L259,237.66L258,234.72L258.32,234.72L259.17,237.25L260.05,234.72L260.34,234.72L261.2,237.26L262.06,234.72L262.38,234.72Z" style="fill:rgb(38,50,56);fill-rule:nonzero;"/>
                </g>
                <g transform="matrix(1.15916,0,0,1.15916,125.171,-585.475)">
                    <text x="68.666px" y="632.151px" style="font-family:'LucidaGrande-Bold', 'Lucida Grande', sans-serif;font-weight:600;font-size:12px;fill:white;">PEMBAYARAN</text>
                </g>
                <g transform="matrix(1.51863,0,0,1.51863,106.027,-774.942)">
                    <text x="68.666px" y="632.151px" style="font-family:'AppleMyungjo';font-size:6.039px;fill:rgb(52,52,52);">email@zmail.com</text>
                </g>
                <g transform="matrix(1,0,0,1,1.17448,-5.13541)">
                    <path d="M270.15,323.78L228.69,323.78C223.371,323.775 218.995,319.399 218.99,314.08C218.99,308.757 223.367,304.375 228.69,304.37L270.15,304.37C275.471,304.37 279.85,308.749 279.85,314.07C279.85,314.073 279.85,314.077 279.85,314.08C279.85,319.401 275.471,323.78 270.15,323.78Z" style="fill:white;fill-rule:nonzero;"/>
                </g>
                <g transform="matrix(0.818017,0,0,0.818017,168.319,-204.329)">
                    <text x="68.666px" y="632.151px" style="font-family:'LucidaGrande-Bold', 'Lucida Grande', sans-serif;font-weight:600;font-size:12px;fill:rgb(75,67,111);">TRANSFER</text>
                </g>
            </g>
            <path d="M186.69,293.24C188.19,316.29 177.51,341.96 177.51,341.96L119.82,325.72L109.76,322.88C119.76,308.99 124.52,281.63 121.91,259.49C121.71,257.82 121.59,256.25 121.5,254.75C120.5,236.49 128.09,231.15 134.5,223.08C141.5,214.34 157.08,181.34 157.08,173.53C157.08,165.72 176.63,146.6 172.28,124.9C172.28,124.9 178.19,121.23 184.13,124.24C186.83,125.6 189.52,128.33 191.69,133.39C196.78,145.28 189.63,178.89 183.55,187.13L171.84,235.61C171.84,235.61 175.79,242.42 179.67,254.78C183.527,267.276 185.883,280.187 186.69,293.24Z" style="fill:white;fill-rule:nonzero;"/>
            <g transform="matrix(1,0,0,1,-811.563,18)">
                <g transform="matrix(1,0,0,1,825.403,-8.48)">
                    <path d="M457.45,434.91C456.09,431.02 454.71,426.77 453.64,422.91C452.26,417.91 451.18,413.91 448.64,409.26C448.24,408.52 447.81,407.74 447.33,406.9C444.62,402.07 440.91,395.46 438.74,387.34C437.28,381.87 438.74,368.4 440.1,355.34C441.1,345.96 442.01,337.11 441.74,332.09L441.66,330.31C440.98,317.18 439.56,289.86 436.66,282.31C433.81,275.03 431.15,273.94 426.3,272C425.8,271.78 425.3,271.58 424.72,271.34C422.9,270.58 419.8,268.98 416.23,267.13C408.18,262.96 398.16,257.77 393.07,257.13C388.308,256.595 383.492,256.818 378.8,257.79C372.53,252.98 361.86,246.79 358.68,246.66C356.08,246.53 350.4,248.16 347.68,249.01L346.31,249.45C344.588,248.114 342.762,246.917 340.85,245.87C340.72,245.8 340.59,245.75 340.48,245.7C336.95,244.25 331.62,244.2 328.71,244.28C327.83,244.28 327.14,244.37 326.83,244.4C321.34,235.95 315.94,227.54 313.59,223.85C308.69,216.09 293.52,184.16 293.37,183.85C293.335,183.767 293.259,183.706 293.17,183.69C293.124,183.684 293.076,183.684 293.03,183.69C291.85,183.35 283.16,181.14 279.67,189.56C275.85,198.73 281.3,218.86 286.62,226.17C289.18,229.69 296.17,244.05 303.26,258.91C301.44,260.6 286.88,274.05 279.81,276.56C274.02,278.61 275.38,308.29 276.47,332.12C276.88,340.92 277.22,348.49 277.12,353.04C276.92,361.84 292.93,373.96 308.45,385.68C322.45,396.3 336.97,407.27 338.67,415.24C339.14,417.48 340.48,419.3 342.08,421.35C344.75,424.75 348.19,428.76 349.65,436.35C350.08,438.63 353.74,441.61 356.65,446.48L461.69,446.48C460.81,444.11 459.15,439.79 457.45,434.91ZM311.78,276.81C316.87,287.47 320.02,293.81 320.78,294.52C321.54,295.23 321.49,298.61 321.47,301.9C321.36,304.78 321.461,307.664 321.77,310.53C320.53,311.62 312.7,318.75 311.12,324.53L304.47,316.7L302.79,292.13C303.79,291.07 310.63,283.84 311.78,276.81Z" style="fill:white;fill-rule:nonzero;"/>
                </g>
                <g>
                    <g transform="matrix(1,0,0,1,822.704,-9.45022)">
                        <path d="M352,273.75C347.532,272.344 343.605,269.591 340.76,265.87C336.19,259.75 318.24,231.87 313.27,224.01C308.3,216.15 293,184 293,184C293,184 283.6,180.85 279.94,189.63C276.28,198.41 281.29,218.25 286.86,225.89C292.43,233.53 318.9,292.36 321,294.26C323.1,296.16 319.95,311.86 324.16,315.66" style="fill:none;fill-rule:nonzero;stroke:rgb(141,133,180);stroke-width:1px;stroke-miterlimit:4;"/>
                    </g>
                    <g transform="matrix(1,0,0,1,822.704,-9.45022)">
                        <path d="M303.63,258.88C303.63,258.88 287.52,274.08 279.86,276.79C272.2,279.5 277.79,336.45 277.41,352.94C277.03,369.43 335.36,398.16 338.94,415.04C340.36,421.76 346.24,423.13 349.83,436.04" style="fill:none;fill-rule:nonzero;stroke:rgb(141,133,180);stroke-width:1px;stroke-miterlimit:4;"/>
                    </g>
                    <g transform="matrix(1,0,0,1,822.704,-9.45022)">
                        <path d="M326.56,244.73C326.56,244.73 335.33,243.94 340.27,246C345.21,248.06 365.27,265.29 370.11,268.58C374.95,271.87 382.23,273.12 383.61,276.67" style="fill:none;fill-rule:nonzero;stroke:rgb(141,133,180);stroke-width:1px;stroke-miterlimit:4;"/>
                    </g>
                    <g transform="matrix(1,0,0,1,822.704,-9.45022)">
                        <path d="M346.17,249.81C346.17,249.81 355.17,246.81 358.61,246.98C362.05,247.15 374.99,254.78 380.79,259.88C385.234,263.823 390.353,266.933 395.9,269.06" style="fill:none;fill-rule:nonzero;stroke:rgb(141,133,180);stroke-width:1px;stroke-miterlimit:4;"/>
                    </g>
                    <g transform="matrix(1,0,0,1,822.704,-9.45022)">
                        <path d="M378.68,258.15C383.377,257.139 388.208,256.906 392.98,257.46C400.3,258.46 418.68,269.26 424.54,271.7C430.4,274.14 433.2,274.59 436.28,282.47C439.36,290.35 440.77,320.31 441.39,332.15C442.01,343.99 435.84,377.9 438.39,387.44C440.94,396.98 445.54,404.34 448.33,409.44" style="fill:none;fill-rule:nonzero;stroke:rgb(141,133,180);stroke-width:1px;stroke-miterlimit:4;"/>
                    </g>
                    <g transform="matrix(1,0,0,1,822.704,-9.45022)">
                        <path d="M340.07,292C340.07,292 346.14,282.18 351.96,281.7C357.78,281.22 364.5,289.48 368.09,288.7C371.68,287.92 376.2,282.64 382.24,281.7C388.28,280.76 391.11,283.64 395.9,283.88C400.69,284.12 401.18,277.72 406.9,276.88C412.62,276.04 414.57,278.88 418.41,279.62C422.25,280.36 423.21,277.33 426.32,275.62" style="fill:none;fill-rule:nonzero;stroke:rgb(141,133,180);stroke-width:1px;stroke-miterlimit:4;"/>
                    </g>
                </g>
            </g>
        </g>
        <g id="Padlock">
        </g>
        <g id="Speech-Bubble" serif:id="Speech Bubble">
        </g>
    </g>
</svg>
