<?xml version="1.0" encoding="UTF-8" standalone="no"?>
<!DOCTYPE svg PUBLIC "-//W3C//DTD SVG 1.1//EN" "http://www.w3.org/Graphics/SVG/1.1/DTD/svg11.dtd">
<svg width="100%" height="100%" viewBox="0 0 500 500" version="1.1" xmlns="http://www.w3.org/2000/svg" xmlns:xlink="http://www.w3.org/1999/xlink" xml:space="preserve" xmlns:serif="http://www.serif.com/" style="fill-rule:evenodd;clip-rule:evenodd;stroke-linecap:round;stroke-linejoin:round;stroke-miterlimit:1.5;">
    <g transform="matrix(1,0,0,1,-540.889,-542.929)">
        <g id="Artboard1" transform="matrix(1,0,0,1,540.889,542.929)">
            <rect x="0" y="0" width="499.999" height="500" style="fill:none;"/>
            <g transform="matrix(1,0,0,1,-8.45296,-63)">
                <g id="Background-Complete" serif:id="Background Complete">
                    <path d="M85.026,453C68.756,424.533 59.453,391.571 59.453,356.453C59.453,248.83 146.83,161.453 254.453,161.453C362.076,161.453 449.453,248.83 449.453,356.453C449.453,391.571 440.15,424.533 423.88,453L85.026,453Z" style="fill:rgb(220,245,226);"/>
                </g>
            </g>
            <g transform="matrix(1.15681,0,0,1.15681,-28.9209,-137.507)">
                <g id="Floor">
                    <path d="M54,456L414,456" style="fill:none;stroke:black;stroke-width:0.86px;"/>
                </g>
            </g>
            <g id="Plant">
            </g>
            <g id="Device">
            </g>
            <g id="Character">
            </g>
            <g transform="matrix(0.77041,0,0,0.77041,-46.0576,47.5197)">
                <g transform="matrix(1,0,0,1,409.65,409.434)">
                    <path d="M0,-54.903C-5.684,-48.153 -10.835,-36.964 -14.032,-35.187C-17.229,-33.411 -22.62,-32.794 -27.715,-16.396C-32.809,0 -7.09,-2.244 -7.09,-2.244C-7.09,-2.244 3.907,-8.56 8.348,-23.819L19.36,-33.589L0,-54.903Z" style="fill:rgb(255,191,157);fill-rule:nonzero;"/>
                </g>
                <g transform="matrix(1,0,0,1,389.755,375.602)">
                    <path d="M0,29.791C0,29.791 8.324,27.08 15.385,19.623C22.472,12.137 23.386,-1.182 23.386,-1.182L26.78,5.161L33.57,-2.096L36.843,-2.412L39.256,0.244L28.243,10.014C23.803,25.272 12.806,31.589 12.806,31.589C12.806,31.589 5.716,32.203 -0.281,30.417C-0.127,30.03 0,29.791 0,29.791" style="fill:rgb(255,164,114);fill-rule:nonzero;"/>
                </g>
                <g transform="matrix(1,0,0,1,448.208,387.739)">
                    <path d="M0,-91.936C-7.878,-86.177 -12.578,-81.998 -16.495,-74.165C-20.412,-66.331 -44.96,-38.185 -46.526,-35.675C-48.094,-33.165 -32.731,-6.529 -20.435,0C-20.435,0 -1.871,-21.415 8.836,-29.509C19.542,-37.605 15.887,-66.331 10.925,-75.993C5.963,-85.655 0,-91.936 0,-91.936" style="fill:rgb(146,153,244);fill-rule:nonzero;"/>
                </g>
                <g transform="matrix(1,0,0,1,447.921,370.915)">
                    <path d="M0,-23.282L0,-39.271C0,-39.271 2.084,-40.105 3.71,-34.709C4.359,-32.55 4.31,-30.28 4.02,-28.326L15.972,-37.314C16.466,-27.252 14.851,-17.016 9.123,-12.685C-1.584,-4.591 -20.147,16.823 -20.147,16.823C-23.32,15.139 -26.695,12.112 -29.932,8.511C-22.373,0.985 -8.032,-13.544 0,-23.282" style="fill:rgb(114,125,241);fill-rule:nonzero;"/>
                </g>
                <g transform="matrix(1,0,0,1,371.553,415.88)">
                    <path d="M0,-15.006C-2.044,-14.368 -3.554,-13.391 -3.554,-10.816C-3.554,-8.24 -3.11,-4.155 -2.133,-2.557C-1.156,-0.958 3.888,0 3.888,0C3.888,0 3.551,-10.638 2.485,-12.592C1.419,-14.546 0,-15.006 0,-15.006" style="fill:rgb(255,191,157);fill-rule:nonzero;"/>
                </g>
                <g transform="matrix(1,0,0,1,369.419,414.02)">
                    <path d="M0,-0.697C-0.274,-1.146 -0.503,-1.803 -0.695,-2.557C0.399,-1.481 0.767,-1.473 2.107,-1.332L5.937,-0.137C5.996,1.06 6.021,1.86 6.021,1.86C6.021,1.86 0.977,0.902 0,-0.697" style="fill:rgb(255,164,114);fill-rule:nonzero;"/>
                </g>
                <g transform="matrix(1,0,0,1,376.435,417.586)">
                    <path d="M0,-20.604C-2.487,-20.337 -4.974,-18.472 -4.974,-15.897C-4.974,-13.322 -5.861,-6.127 -4.974,-4.973C-4.085,-3.819 0.267,-0.533 1.776,-0.266C3.286,0 5.85,-0.444 5.5,-1.244C5.151,-2.042 0,-20.604 0,-20.604" style="fill:rgb(255,191,157);fill-rule:nonzero;"/>
                </g>
                <g transform="matrix(1,0,0,1,371.085,417.488)">
                    <path d="M0,-6.808C1.885,-4.68 6.706,-4.871 6.706,-4.871C6.706,-4.871 8.825,-2.608 9.087,-1.881C9.244,-1.442 10.112,-0.864 10.23,-0.416C9.434,-0.113 8.073,0 7.127,-0.167C5.646,-0.429 1.443,-3.587 0.442,-4.799L0,-6.803L0,-6.808Z" style="fill:rgb(255,164,114);fill-rule:nonzero;"/>
                </g>
                <g transform="matrix(1,0,0,1,385.753,418.301)">
                    <path d="M0,-25.568C-7.63,-25.137 -9.051,-24.427 -9.317,-21.319C-9.584,-18.211 -9.406,-9.152 -8.43,-6.842C-7.452,-4.534 -6.92,-2.491 -5.676,-1.248C-4.433,-0.005 -2.572,0 -2.572,0C-2.572,0 1.606,-6.132 1.784,-11.283C1.961,-16.434 0,-25.568 0,-25.568" style="fill:rgb(255,191,157);fill-rule:nonzero;"/>
                </g>
                <g transform="matrix(1,0,0,1,381.364,404.233)">
                    <path d="M0,8.966C0.387,6.857 1.245,4.608 1.354,-2.451C1.395,-5.103 3.854,8.746 2.756,12.547C2.209,13.49 1.816,14.069 1.816,14.069C1.816,14.069 -0.044,14.064 -1.287,12.82C-2.531,11.577 -3.063,9.534 -4.041,7.226C-4.104,7.075 -4.164,6.894 -4.221,6.691C-3.723,7.986 -2.142,8.836 0,8.966" style="fill:rgb(255,164,114);fill-rule:nonzero;"/>
                </g>
                <g transform="matrix(1,0,0,1,402.457,402.756)">
                    <path d="M0,5.595C-0.48,9.839 -6.039,11.367 -6.661,13.498C-7.282,15.63 -6.839,17.584 -7.904,18.116C-8.97,18.65 -13.41,16.163 -13.232,13.322C-13.232,13.322 -14.388,15.719 -16.963,16.163C-19.538,16.607 -20.16,14.726 -19.716,11.892C-19.272,9.058 -19.36,7.548 -19.449,4.174C-19.538,0.799 -20.338,-2.309 -18.828,-6.04C-17.318,-9.769 -15.275,-13.055 -11.19,-12.433C-7.105,-11.812 -4.618,-6.661 -2.398,-4.884C-0.178,-3.109 0.532,0.888 0,5.595" style="fill:rgb(255,191,157);fill-rule:nonzero;"/>
                </g>
                <g transform="matrix(1,0,0,1,389.225,398.392)">
                    <path d="M0,17.685C0.249,12.288 0.53,7.871 0.53,7C0.53,6.129 0.249,0.401 2.285,0.053C2.594,0 7.072,2.838 7.159,4.753C7.246,6.668 7.159,10.107 5.767,11.086C4.374,12.066 0,17.685 0,17.685" style="fill:rgb(255,164,114);fill-rule:nonzero;"/>
                </g>
                <g transform="matrix(1,0,0,1,574.296,395.573)">
                    <path d="M0,-88.266C-8.095,-98.537 -10.881,-99.582 -19.237,-104.456C-27.594,-109.331 -59.279,-121.692 -65.808,-123.259C-72.336,-124.826 -98.667,-112.552 -107.307,-108.635C-115.946,-104.718 -126.94,-100.864 -128.813,-97.046C-135.084,-84.267 -122.665,-66.156 -122.6,-28.203C-122.565,-8.326 -118.036,36.374 -118.036,36.374C-118.036,36.374 -18.541,36.56 -17.148,34.47C-15.755,32.381 -12.273,-38.997 -10.532,-53.621C-8.791,-68.245 0,-88.266 0,-88.266" style="fill:rgb(146,153,244);fill-rule:nonzero;"/>
                </g>
                <g transform="matrix(0.989712,-0.143074,-0.143074,-0.989712,446.892,318.307)">
                    <path d="M-1.067,-0.077C-1.461,2.408 -1.548,4.893 -1.567,7.377C-1.551,9.863 -1.463,12.347 -1.067,14.832C-0.67,12.347 -0.582,9.862 -0.567,7.377C-0.584,4.892 -0.672,2.408 -1.067,-0.077" style="fill:rgb(114,125,241);fill-rule:nonzero;"/>
                </g>
                <g transform="matrix(1,0,0,1,483.054,297.094)">
                    <path d="M0,6.491C-3.844,5.055 -12.951,7.553 -14.616,8.132C-16.281,8.711 -13.637,1.595 -12.658,0.714C-11.679,-0.168 -10.111,-2.22 -7.108,-1.291C-4.105,-0.363 -1.581,3.075 -1.146,4.207C-0.711,5.338 0,6.491 0,6.491" style="fill:rgb(114,125,241);fill-rule:nonzero;"/>
                </g>
                <g transform="matrix(1,0,0,1,515.084,297.579)">
                    <path d="M0,11.947C-1.371,11.882 -9.369,8.204 -11.283,7.29C-13.198,6.376 -21.874,5.949 -27.699,7.577C-27.699,7.577 -16.484,0 -9.956,0.065C-3.428,0.131 -0.946,2.48 -0.425,4.57C0.098,6.659 0,11.947 0,11.947" style="fill:rgb(114,125,241);fill-rule:nonzero;"/>
                </g>
                <g transform="matrix(1,0,0,1,472.312,336.906)">
                    <path d="M0,79.035C1.068,77.99 66.046,80.08 67.352,73.29C68.657,66.501 69.556,54.152 69.556,54.152C61.733,58.331 50.377,56.591 50.377,56.591C57.95,54.118 68.918,41.692 69.44,38.036C71.05,26.773 65.032,-4.278 65.032,-4.278L69.44,-13.148L74.599,-16.021C74.599,-16.021 84.379,-11.15 92.742,-2.19C92.178,0.29 91.726,2.734 91.451,5.045C89.81,18.833 86.621,83.057 85.095,92.111C64.969,92.853 28.486,94.189 4.074,95.027C-7.754,95.056 -16.053,95.04 -16.053,95.04C-16.053,95.04 -16.205,89.161 -16.561,80.729C-9.751,80.331 -0.662,79.682 0,79.035" style="fill:rgb(114,125,241);fill-rule:nonzero;"/>
                </g>
                <g transform="matrix(1,0,0,1,485.508,272.704)">
                    <path d="M0,32.774C7.011,31.929 18.28,25.854 22.72,27.943C27.159,30.032 28.203,35.385 29.117,36.299C30.031,37.213 33.948,32.643 33.948,21.415C33.948,10.185 34.293,-1.313 26.025,-2.875C17.758,-4.439 -3.656,3.657 -7.965,6.921C-12.273,10.185 -14.102,13.492 -15.276,16.67C-16.452,19.847 -19.585,32.643 -18.149,32.774C-16.713,32.905 -12.665,24.548 -9.662,24.287C-6.659,24.026 -1.898,33.003 0,32.774" style="fill:rgb(146,153,244);fill-rule:nonzero;"/>
                </g>
                <g transform="matrix(0.999838,0.0179968,0.0179968,-0.999838,481.36,295.409)">
                    <path d="M0.159,-0.013C-1.705,4.197 -3.729,7.883 -3.717,10.821C-3.704,13.761 -3.089,15.795 0.159,16.768C3.405,17.74 4.809,16.003 5.085,11.568C5.36,7.133 0.159,-0.013 0.159,-0.013" style="fill:rgb(114,125,241);fill-rule:nonzero;"/>
                </g>
                <g transform="matrix(0.979557,0.201169,0.201169,-0.979557,505.48,286.575)">
                    <path d="M1.79,-0.59C7.231,6.846 6.596,13.781 5.679,15.059C4.761,16.336 1.79,16.793 1.79,16.793C1.79,16.793 1.609,12.157 2.472,11.201C3.334,10.246 1.79,-0.59 1.79,-0.59" style="fill:rgb(114,125,241);fill-rule:nonzero;"/>
                </g>
                <g transform="matrix(1,0,0,1,496.251,297.124)">
                    <path d="M0,5.356C1.663,4.609 3.398,4.027 5.168,3.546C6.946,3.114 8.772,2.769 10.67,2.892C11.606,2.962 12.612,3.167 13.449,3.829C14.188,4.526 14.749,5.156 15.377,5.872C16.62,7.284 17.477,8.998 18.265,10.61C18.439,10.981 18.714,11.418 18.835,11.457C18.85,11.462 18.843,11.485 18.984,11.397C19.102,11.314 19.239,11.171 19.364,11.015C19.873,10.364 20.29,9.551 20.697,8.759C21.519,7.197 21.96,5.464 22.31,3.7C22.65,1.934 22.846,0.132 22.973,-1.674C23.128,-3.481 23.18,-5.297 23.204,-7.119C23.563,-3.493 23.569,0.179 23.066,3.827C22.823,5.645 22.367,7.482 21.546,9.177C21.141,10.008 20.729,10.829 20.129,11.624C19.97,11.821 19.799,12.019 19.547,12.202C19.426,12.293 19.26,12.378 19.062,12.426C18.855,12.475 18.606,12.442 18.421,12.354C18.047,12.167 17.889,11.916 17.737,11.703C17.593,11.484 17.479,11.27 17.372,11.06C16.582,9.406 15.799,7.826 14.649,6.477C14.1,5.808 13.455,5.071 12.889,4.502C12.297,4.009 11.45,3.764 10.594,3.657C8.856,3.451 7.04,3.692 5.274,4.024C3.493,4.337 1.741,4.822 0,5.356" style="fill:rgb(114,125,241);fill-rule:nonzero;"/>
                </g>
                <g transform="matrix(1,0,0,1,480.175,302.134)">
                    <path d="M0,-1.996C-0.757,-2.666 -1.509,-3.335 -2.33,-3.891C-2.735,-4.169 -3.15,-4.435 -3.578,-4.618C-3.794,-4.701 -4.002,-4.765 -4.197,-4.79C-4.283,-4.781 -4.375,-4.789 -4.443,-4.767C-4.507,-4.725 -4.545,-4.742 -4.668,-4.65C-6.352,-3.612 -7.662,-2.185 -8.775,-0.553C-9.341,0.234 -9.836,1.136 -10.503,1.953C-10.837,2.358 -11.191,2.751 -11.642,3.1C-11.877,3.263 -12.115,3.452 -12.536,3.502C-12.738,3.536 -13.02,3.449 -13.19,3.297C-13.361,3.142 -13.447,2.964 -13.496,2.813C-13.68,2.194 -13.621,1.68 -13.572,1.156C-13.508,0.641 -13.417,0.137 -13.301,-0.359C-13.051,-1.348 -12.774,-2.319 -12.42,-3.268C-12.555,-2.266 -12.735,-1.275 -12.817,-0.278C-12.873,0.217 -12.911,0.712 -12.919,1.199C-12.921,1.673 -12.911,2.193 -12.768,2.532C-12.737,2.618 -12.688,2.663 -12.672,2.675C-12.647,2.673 -12.672,2.683 -12.622,2.668C-12.538,2.66 -12.341,2.547 -12.182,2.409C-11.849,2.126 -11.535,1.756 -11.249,1.369C-10.66,0.61 -10.188,-0.265 -9.597,-1.123C-9.003,-1.962 -8.353,-2.774 -7.598,-3.498C-6.844,-4.22 -5.971,-4.839 -5.069,-5.316C-4.986,-5.374 -4.776,-5.45 -4.605,-5.498C-4.433,-5.532 -4.264,-5.513 -4.103,-5.504C-3.799,-5.442 -3.536,-5.334 -3.293,-5.205C-2.819,-4.936 -2.414,-4.612 -2.027,-4.271C-1.28,-3.565 -0.592,-2.819 0,-1.996" style="fill:rgb(114,125,241);fill-rule:nonzero;"/>
                </g>
                <g transform="matrix(1,0,0,1,480.56,274.708)">
                    <path d="M0,-4.789C0.016,-2.03 0.126,0.721 0.412,3.466C1.116,10.198 0.427,19.078 0.959,20.717C1.553,22.545 5.078,29.073 5.078,29.073C5.078,29.073 11.346,26.2 13.957,23.067C16.568,19.934 19.963,19.774 24.533,15.153C29.104,10.532 32.21,3.192 31.192,-2.917C31.062,-3.7 30.26,-11.52 30.082,-19.616C29.905,-27.711 21.399,-33.862 13.304,-33.862C5.209,-33.862 0.362,-21.85 0.109,-13.754C0.005,-10.433 -0.014,-7.312 0,-4.789" style="fill:rgb(255,191,157);fill-rule:nonzero;"/>
                </g>
                <g transform="matrix(1,0,0,1,510.643,266.529)">
                    <path d="M0,-11.437C0.178,-3.341 0.979,4.479 1.11,5.262C1.425,7.151 1.344,9.158 0.948,11.165C-0.843,11.495 -23.898,12.051 -29.872,9.27C-30.008,7.314 -30.07,5.354 -30.082,3.39C-30.096,0.867 -30.077,-2.253 -29.973,-5.575C-29.865,-9.006 -28.93,-13.14 -27.274,-16.766L-8.309,-23.488C-3.653,-21.004 -0.113,-16.625 0,-11.437" style="fill:rgb(255,164,114);fill-rule:nonzero;"/>
                </g>
                <g transform="matrix(-1,0,0,1,461.94,254.306)">
                    <path d="M-4.418,-32.923C7.832,-32.923 12.415,-23.513 12.415,-16.462C12.415,-10.132 10.387,0 -4.418,0C-11.821,0 -16.833,-7.37 -16.833,-16.462C-16.833,-25.553 -11.821,-32.923 -4.418,-32.923" style="fill:rgb(141,151,244);fill-rule:nonzero;"/>
                </g>
                <g transform="matrix(-1,0,0,1,462.481,250.276)">
                    <path d="M-3.336,-24.861C5.914,-24.861 9.375,-17.756 9.375,-12.431C9.375,-7.652 7.844,0 -3.336,0C-8.927,0 -12.711,-5.565 -12.711,-12.431C-12.711,-19.296 -8.927,-24.861 -3.336,-24.861" style="fill:rgb(194,199,249);fill-rule:nonzero;"/>
                </g>
                <g transform="matrix(1,0,0,1,450.904,239.755)">
                    <path d="M0,-12.815C0.723,-8.523 2.848,-6.882 3.797,-1.096C4.746,4.69 2.215,13.099 5.989,20.422C9.764,27.746 15.867,37.374 19.393,37.781C22.919,38.188 51.159,33.417 60.688,14.469C63.423,9.03 69.269,-12.299 64.267,-25.322C59.264,-38.345 51.127,-50.279 32.321,-50.641C13.516,-51.003 -3.836,-35.563 0,-12.815" style="fill:rgb(255,191,157);fill-rule:nonzero;"/>
                </g>
                <g transform="matrix(0.704229,0.709973,0.709973,-0.704229,465.7,249.596)">
                    <path d="M1.228,0.094C1.952,0.791 2.456,1.844 2.338,2.661C2.234,3.374 1.822,4.037 1.228,4.446C1.053,2.55 -0.069,1.123 -1.567,0.061C-0.767,-1.048 0.381,-0.72 1.228,0.094" style="fill:rgb(255,164,114);fill-rule:nonzero;"/>
                </g>
                <g transform="matrix(1,0,0,1,499.899,181.846)">
                    <path d="M0,45.093C-12.516,40.215 -22.293,37.763 -33.839,38.141C-44.78,38.499 -48.117,32.949 -48.117,32.949C-48.117,32.949 -48.995,41.963 -48.995,45.093C-48.995,45.093 -56.816,34.39 -54.827,25.892C-52.838,17.393 -50.126,14.138 -50.126,14.138C-50.126,14.138 -55.731,14.68 -58.806,14.138C-58.806,14.138 -51.572,7.809 -46.147,3.651C-40.723,-0.509 -24.449,-0.689 -24.449,-0.689C-24.449,-0.689 -25.715,-5.029 -24.269,-11.9C-24.269,-11.9 -17.307,-1.684 -9.938,1.435C-2.569,4.554 -3.562,4.29 4.251,6.261C12.064,8.233 19.491,13.234 22.61,17.438C25.729,21.642 29.12,25.982 31.154,26.66C31.154,26.66 26.271,25.982 23.831,23.947C23.831,23.947 27.901,33.193 22.521,45.093C17.141,56.993 3.661,53.472 1.047,50.845C-1.566,48.218 0,45.093 0,45.093" style="fill:rgb(75,75,75);fill-rule:nonzero;"/>
                </g>
                <g transform="matrix(1,0,0,1,500.946,187.935)">
                    <path d="M0,44.756C-2.613,42.129 -1.047,39.004 -1.047,39.004C-1.479,36.303 -2.741,34.299 -3.671,33.132C-1.715,21.273 -2.513,8.964 -5.986,-2.543C-3.956,-1.718 -2.751,-1.348 0.188,-0.593C3.796,4.834 6.494,10.94 8.352,17.125C10.718,25.001 11.863,33.509 9.656,41.432C9.091,43.463 8.266,45.444 7.222,47.299C3.877,47.019 1.055,45.816 0,44.756" style="fill:rgb(57,57,57);fill-rule:nonzero;"/>
                </g>
                <g transform="matrix(0.988725,0.149744,0.149744,-0.988725,501.981,222.578)">
                    <path d="M2.608,0.455C2.608,0.455 -0.926,30.004 -17.768,37.054C-17.768,37.054 -6.038,40.202 2.608,29.304C11.254,18.406 12.342,8.1 13.039,2.338C13.734,-3.424 2.608,0.455 2.608,0.455" style="fill:rgb(141,151,244);fill-rule:nonzero;"/>
                </g>
                <g transform="matrix(-1,0,0,1,513.803,254.306)">
                    <path d="M4.42,-32.923C-7.83,-32.923 -12.414,-23.513 -12.414,-16.462C-12.414,-10.132 -10.385,0 4.42,0C11.823,0 16.834,-7.37 16.834,-16.462C16.834,-25.553 11.823,-32.923 4.42,-32.923" style="fill:rgb(141,151,244);fill-rule:nonzero;"/>
                </g>
                <g transform="matrix(0,1,1,0,514.497,226.126)">
                    <path d="M11.719,-11.719C3.648,-11.719 -2.895,-6.391 -2.895,0.181C-2.895,6.753 3.648,11.719 11.719,11.719C19.79,11.719 26.333,6.753 26.333,0.181C26.333,-6.391 19.79,-11.719 11.719,-11.719" style="fill:rgb(194,199,249);fill-rule:nonzero;"/>
                </g>
                <g transform="matrix(0,1,1,0,516.249,229.747)">
                    <path d="M8.098,-8.098C2.605,-8.098 -1.847,-4.473 -1.847,-0C-1.847,4.472 2.605,8.098 8.098,8.098C13.591,8.098 18.043,4.472 18.043,-0C18.043,-4.473 13.591,-8.098 8.098,-8.098" style="fill:rgb(141,151,244);fill-rule:nonzero;"/>
                </g>
                <g transform="matrix(-0.684611,-0.728909,-0.728909,0.684611,461.949,258.263)">
                    <path d="M-8.333,-14.651C-7.395,-10.991 -0.436,-2.693 0.142,-2.227C0.719,-1.759 -6.299,2.761 -8.333,1.038C-10.368,-0.684 -13.477,-5.03 -13.438,-8.095C-13.398,-11.158 -8.333,-14.651 -8.333,-14.651" style="fill:rgb(255,164,114);fill-rule:nonzero;"/>
                </g>
                <g transform="matrix(1,0,0,1,477.642,258.872)">
                    <path d="M0,-2.172C-0.204,-2.9 -0.363,-3.484 -0.518,-4.053C-4.159,-2.81 -11.329,-2.284 -13.538,-2.231C-13.357,-1.133 -13.042,-0.022 -12.595,1.069C-12.524,1.024 -12.611,1.175 -12.542,1.13C-7.77,1.881 -2.915,0.334 0,-2.172" style="fill:white;fill-rule:nonzero;"/>
                </g>
                <g transform="matrix(1,0,0,1,472.312,403.389)">
                    <path d="M0,18.988C0.008,19.408 -0.58,20.015 -2.016,20.015L-47.303,20.015C-52.525,20.015 -53.744,17.95 -52.177,15.339C-50.61,12.726 -43.994,6.981 -27.63,2.977C-11.265,-1.027 -2.66,8.336 0,12.552C1.951,15.645 0,18.988 0,18.988" style="fill:rgb(82,71,135);fill-rule:nonzero;"/>
                </g>
                <g transform="matrix(1,0,0,1,419.75,412.562)">
                    <path d="M0,6.95C0.901,9.945 35.456,8.384 35.456,8.384C35.456,8.384 31.952,3.65 28.079,3.515C24.205,3.38 22.321,4.726 17.127,5.62C11.932,6.513 15.783,3.506 15.783,3.506C15.783,3.506 12.113,2.693 10.619,1.535C10.619,1.535 19.179,-0.994 22.77,-1.582C26.359,-2.169 35.5,-1.778 36.675,-1.582C37.506,-1.444 41.724,-3.893 46.82,-2.663C49.666,-0.584 51.548,1.771 52.563,3.38C54.514,6.472 52.563,9.815 52.563,9.815C52.57,10.235 51.982,10.843 50.547,10.843L5.26,10.843C0.574,10.843 -0.881,9.178 0,6.95" style="fill:rgb(56,41,92);fill-rule:nonzero;"/>
                </g>
                <g transform="matrix(1,0,0,1,567.551,402.829)">
                    <path d="M0,-8.766C0,-8.766 -32.205,-3.786 -49.661,-0.662C-66.197,2.297 -80.476,3.582 -84.523,2.797C-88.571,2.014 -102.412,-3.078 -106.852,-4.906C-111.291,-6.734 -120.17,-7.779 -124.739,-6.342C-129.31,-4.906 -133.053,-3.339 -134.881,-3.339C-136.708,-3.339 -136.36,-0.379 -133.923,0.23C-131.485,0.839 -129.31,0.753 -129.31,0.753C-129.31,0.753 -137.579,5.279 -139.059,5.714C-140.538,6.149 -138.785,8.847 -136.783,8.673C-136.783,8.673 -138.536,9.718 -137.927,10.762C-137.317,11.807 -132.966,11.807 -132.966,11.807C-132.966,11.807 -138.275,14.419 -133.836,15.463C-129.396,16.507 -124.087,11.546 -121.91,11.111C-119.734,10.675 -114.686,10.937 -112.248,12.765C-109.811,14.592 -99.365,23.037 -85.09,17.988C-85.09,17.988 11.807,21.914 21.469,21.914C31.131,21.914 36.967,13.375 33.868,-3.078C30.771,-19.53 24.764,-31.803 24.764,-31.803L-8.662,-29.453L0,-8.766Z" style="fill:rgb(255,191,157);fill-rule:nonzero;"/>
                </g>
                <g transform="matrix(1,0,0,1,445.87,400.621)">
                    <path d="M0,0.345C0.853,0.144 1.533,0.027 1.959,0C1.959,0 1.132,0.143 0,0.345" style="fill:rgb(255,164,114);fill-rule:nonzero;"/>
                </g>
                <g transform="matrix(1,0,0,1,438.241,401.053)">
                    <path d="M0,2.528C0,2.528 -2.176,2.615 -4.613,2.006C-5.299,1.835 -5.812,1.474 -6.166,1.049C-3.455,2.248 -0.118,1.483 1.709,1.048C2.862,0.773 5.693,0.257 7.629,-0.087C5.69,0.368 2.85,1.258 0,2.528" style="fill:rgb(255,164,114);fill-rule:nonzero;"/>
                </g>
                <g transform="matrix(1,0,0,1,438.668,407.294)">
                    <path d="M0,0.204C0.209,0.109 0.386,0.035 0.5,0C0.5,0 0.312,0.076 0,0.204" style="fill:rgb(255,164,114);fill-rule:nonzero;"/>
                </g>
                <g transform="matrix(0.281737,0.959492,0.959492,-0.281737,431.253,404.931)">
                    <path d="M4.553,-4.197C4.588,-4.175 5.667,-3.495 5.393,-1.318C5.167,0.495 4.71,4.868 4.553,6.391C4.827,4.452 6.082,-0.951 6.169,-2.317C5.992,-3.193 5.284,-3.859 4.553,-4.197" style="fill:rgb(255,164,114);fill-rule:nonzero;"/>
                </g>
                <g transform="matrix(1,0,0,1,433.51,410.436)">
                    <path d="M0,3.243C1.479,2.807 4.57,0.935 6.463,0.041C8.356,-0.854 10.772,-0.957 10.772,-0.957C10.772,-0.957 10.054,-0.892 8.16,0.041C6.268,0.974 1.075,4.2 1.075,4.2C1.075,4.2 -1.717,4.199 -3.141,3.661C-3.126,3.661 -1.474,3.676 0,3.243" style="fill:rgb(255,164,114);fill-rule:nonzero;"/>
                </g>
                <g transform="matrix(1,0,0,1,461.06,420.531)">
                    <path d="M0,-4.721C2.741,-3.023 10.837,-0.803 15.668,-1.717C20.499,-2.631 21.544,-6.679 21.544,-6.679L22.894,-2.326C22.894,-2.326 90.094,-0.411 103.76,-1.026C117.27,-1.633 138.341,-1.941 141.093,-10.055C140.338,-0.636 135.235,4.211 127.959,4.211C118.297,4.211 21.4,0.285 21.4,0.285C7.125,5.334 -3.32,-3.111 -5.758,-4.938C-7.784,-6.458 -11.61,-6.893 -14.096,-6.746L-14.095,-6.746C-10.388,-8.045 -2.742,-6.418 0,-4.721" style="fill:rgb(255,164,114);fill-rule:nonzero;"/>
                </g>
                <g transform="matrix(0.596364,0.802714,0.802714,-0.596364,566.114,387.113)">
                    <path d="M6.435,-2.991C6.435,-2.991 12.57,8.135 13.866,10.317L6.435,13.452L-0.479,-1.256L6.435,-2.991Z" style="fill:rgb(255,164,114);fill-rule:nonzero;"/>
                </g>
                <g transform="matrix(1,0,0,1,601.198,322.912)">
                    <path d="M0,49.221C0.474,50.448 0.173,51.826 -0.768,52.744C-6.619,58.458 -14.301,66.241 -22.201,67.438C-30.819,68.743 -45.182,69.266 -45.966,67.438C-46.749,65.61 -49.621,42.368 -54.844,30.617C-60.067,18.866 -63.462,12.86 -64.768,6.07C-66.073,-0.72 -54.322,-16.65 -49.099,-17.956C-43.876,-19.261 -31.863,-20.045 -26.902,-15.605C-21.94,-11.166 -18.284,5.809 -12.539,18.605C-7.903,28.93 -2.077,43.846 0,49.221" style="fill:rgb(146,153,244);fill-rule:nonzero;"/>
                </g>
                <g transform="matrix(1,0,0,1,568.875,319.788)">
                    <path d="M0,-15.058C-1.6,-15.243 -3.198,-15.375 -4.8,-15.411C-6.398,-15.475 -7.997,-15.47 -9.588,-15.376C-11.178,-15.28 -12.761,-15.12 -14.319,-14.84C-15.103,-14.715 -15.871,-14.534 -16.642,-14.361C-17.358,-14.1 -18.098,-13.91 -18.758,-13.497C-19.46,-13.182 -20.07,-12.686 -20.715,-12.256C-21.301,-11.739 -21.928,-11.269 -22.464,-10.689C-23.612,-9.61 -24.578,-8.344 -25.559,-7.094C-26.515,-5.822 -27.383,-4.479 -28.208,-3.108C-29.058,-1.749 -29.812,-0.334 -30.547,1.098C-29.468,-1.94 -27.976,-4.829 -26.187,-7.538C-25.277,-8.882 -24.29,-10.187 -23.136,-11.356C-22.594,-11.972 -21.929,-12.475 -21.316,-13.026C-20.632,-13.496 -19.989,-14.026 -19.222,-14.382C-18.503,-14.817 -17.673,-15.037 -16.876,-15.309C-16.076,-15.477 -15.281,-15.668 -14.472,-15.772C-12.858,-16.003 -11.234,-16.156 -9.611,-16.141C-6.37,-16.149 -3.131,-15.834 0,-15.058" style="fill:rgb(114,125,241);fill-rule:nonzero;"/>
                </g>
                <g transform="matrix(1,0,0,1,594.678,318.899)">
                    <path d="M0,58.045C-0.043,53.872 -8.854,15.62 -16.637,-5.7C-13.328,1.585 -10.236,13.224 -6.019,22.617C-1.383,32.942 4.443,47.858 6.521,53.233C6.994,54.46 6.693,55.839 5.753,56.757C3.512,58.945 1,61.436 -1.687,63.745C-1.485,63.549 0.04,61.941 0,58.045" style="fill:rgb(114,125,241);fill-rule:nonzero;"/>
                </g>
                <g transform="matrix(1,0,0,1,174.624,383.204)">
                    <path d="M0,-49.353C-0.159,-48.066 0.11,-46.769 0.735,-45.632C3.014,-41.488 4.169,-36.726 4.02,-31.998C3.921,-28.882 3.281,-25.695 4.13,-22.695C5.593,-17.52 11.055,-14.32 12.813,-9.237C14.371,-4.731 12.922,0.935 16.16,4.434C16.963,5.301 18.209,5.965 19.307,5.526C19.857,5.305 20.27,4.845 20.662,4.4C24.375,0.183 28.35,-4.942 27.205,-10.442C26.129,-15.61 20.803,-19.102 19.794,-24.283C18.97,-28.516 21.134,-33.399 18.708,-36.965C18.039,-37.95 17.081,-38.702 16.35,-39.641C13.465,-43.344 14.534,-49.248 11.21,-52.563C10.127,-53.644 8.771,-54.257 7.293,-54.573C3.809,-55.318 0.437,-52.89 0,-49.354L0,-49.353Z" style="fill:rgb(115,129,240);fill-rule:nonzero;"/>
                </g>
                <g transform="matrix(1,0,0,1,195.74,335.408)">
                    <path d="M0,64.1C0.223,61.344 0.318,58.586 0.421,55.822C0.295,53.066 0.148,50.309 -0.088,47.554C-0.324,44.8 -0.633,42.045 -1.121,39.307C-1.616,36.586 -2.27,33.806 -3.414,31.248C-5.414,26.193 -7.03,20.906 -8.663,15.667L-11.032,7.769C-12.005,5.189 -12.955,2.604 -13.873,0C-13.47,2.74 -12.843,5.429 -12.294,8.138L-9.92,16.053C-8.277,21.319 -6.676,26.573 -4.627,31.754C-3.52,34.232 -2.907,36.853 -2.415,39.537C-1.938,42.217 -1.632,44.938 -1.398,47.666C-1.168,50.395 -1.008,53.134 -0.903,55.876L0,64.1Z" style="fill:rgb(93,110,237);fill-rule:nonzero;"/>
                </g>
                <g transform="matrix(1,0,0,1,181.188,344.198)">
                    <path d="M0,-0.558C0.455,0.13 1.04,0.646 1.669,1.102C1.992,1.318 2.371,1.46 2.723,1.637C3.08,1.808 3.392,2.039 3.682,2.3L3.807,2.414L3.919,2.243C4.182,1.84 4.501,1.467 4.753,1.06C4.996,0.648 5.251,0.243 5.467,-0.182C5.888,-1.038 6.2,-1.948 6.359,-2.933L6.281,-2.972C5.592,-2.249 5.057,-1.451 4.629,-0.598C4.42,-0.169 4.252,0.279 4.071,0.721C3.898,1.169 3.794,1.649 3.633,2.101L3.871,2.044C3.535,1.844 3.222,1.615 2.954,1.324C2.681,1.041 2.435,0.721 2.133,0.477C1.513,0.011 0.848,-0.395 0.053,-0.627L0,-0.558Z" style="fill:rgb(93,110,237);fill-rule:nonzero;"/>
                </g>
                <g transform="matrix(1,0,0,1,181.857,354.594)">
                    <path d="M0,-1.531C0.474,-1.14 0.962,-0.719 1.474,-0.366C1.984,-0.005 2.503,0.344 3.064,0.624C3.631,0.897 4.233,1.112 4.778,1.421C5.327,1.724 5.827,2.106 6.315,2.503L6.488,2.643L6.662,2.415C7.417,1.425 8.064,0.373 8.674,-0.699C9.249,-1.793 9.76,-2.921 10.127,-4.131L10.051,-4.174C9.205,-3.234 8.502,-2.214 7.862,-1.159C7.258,-0.083 6.69,1.014 6.232,2.172L6.578,2.084C6.006,1.818 5.443,1.537 4.927,1.181C4.408,0.83 3.944,0.389 3.444,0.006C2.938,-0.368 2.386,-0.67 1.823,-0.951C1.252,-1.224 0.686,-1.49 0.019,-1.616L0,-1.531Z" style="fill:rgb(93,110,237);fill-rule:nonzero;"/>
                </g>
                <g transform="matrix(1,0,0,1,185.206,369.309)">
                    <path d="M0,-3.809C0.519,-3.286 1.098,-2.9 1.695,-2.552C2.284,-2.189 2.932,-1.948 3.621,-1.786C4.309,-1.619 4.931,-1.316 5.485,-0.892C6.039,-0.472 6.58,-0.009 7.133,0.354L7.551,0.628L7.862,0.162C8.32,-0.525 8.736,-1.234 9.059,-1.995C9.384,-2.754 9.671,-3.535 9.832,-4.384L9.736,-4.437C9.104,-3.846 8.599,-3.186 8.131,-2.505C7.662,-1.825 7.285,-1.094 6.951,-0.339L7.68,-0.531C7.048,-0.879 6.376,-1.08 5.711,-1.313C5.046,-1.541 4.44,-1.871 3.893,-2.326C3.35,-2.788 2.754,-3.152 2.1,-3.391C1.451,-3.643 0.78,-3.847 0.046,-3.908L0,-3.809Z" style="fill:rgb(93,110,237);fill-rule:nonzero;"/>
                </g>
                <g transform="matrix(1,0,0,1,200.124,308.103)">
                    <path d="M0,91.944C2.154,91.59 10.23,89.006 9.667,86.897C7.245,77.845 4.824,67.576 13.208,63.148C17.243,61.018 22.307,59.935 24.604,55.993C26.971,51.933 25.229,46.772 23.105,42.58C20.981,38.387 18.425,33.9 19.335,29.289C20.288,24.462 24.854,20.899 25.584,16.032C26.581,9.387 20.128,4.033 13.93,1.439C11.822,0.556 9.504,-0.198 7.282,0.339C5.695,0.721 4.319,1.739 3.231,2.956C-1.123,7.825 -0.945,15.171 0.048,21.626C1.042,28.082 2.563,34.899 0.131,40.962C-1.596,45.267 -5.293,49.317 -4.303,53.849C-3.906,55.665 -2.774,57.249 -2.342,59.056C-1.179,63.928 -5.226,68.318 -7.082,72.971C-9.475,78.975 -7.832,86.312 -3.294,90.868C-2.431,91.734 -1.208,92.142 0,91.944" style="fill:rgb(155,163,244);fill-rule:nonzero;"/>
                </g>
                <g transform="matrix(1,0,0,1,199.362,318.755)">
                    <path d="M0,81.393C0.499,77.809 0.998,74.239 1.636,70.695C1.788,69.808 1.974,68.926 2.117,68.04C2.251,67.153 2.331,66.258 2.478,65.373C2.745,63.599 3.043,61.831 3.382,60.074C4.066,56.562 4.884,53.066 6.084,49.742C6.686,48.086 7.401,46.466 8.343,45.07C8.812,44.374 9.365,43.756 9.977,43.34C10.784,42.81 11.554,42.127 12.156,41.314C13.398,39.668 13.772,37.577 13.728,35.693C13.686,33.783 13.324,31.959 12.921,30.178C12.091,26.623 11.046,23.19 10.465,19.693C9.875,16.214 9.76,12.65 10.679,9.313C10.961,8.498 11.184,7.669 11.452,6.84C11.725,6.014 12.081,5.212 12.481,4.426C13.286,2.855 14.335,1.391 15.498,0C14.073,1.118 12.751,2.41 11.649,3.904C11.095,4.647 10.577,5.429 10.136,6.259C9.68,7.081 9.294,7.955 9.093,8.878C8.088,12.531 8.231,16.355 8.843,19.964C9.448,23.592 10.511,27.079 11.319,30.546C11.713,32.279 12.048,34.019 12.084,35.72C12.12,37.415 11.792,39.071 10.834,40.337C10.36,40.972 9.766,41.511 9.067,41.971C8.185,42.574 7.531,43.343 6.99,44.136C5.914,45.735 5.173,47.449 4.54,49.177C3.29,52.643 2.464,56.197 1.768,59.762C1.424,61.545 1.123,63.335 0.852,65.128C0.729,66.027 0.561,66.918 0.453,67.819C0.361,68.721 0.321,69.629 0.263,70.534C0.067,74.156 -0.067,77.774 0,81.393" style="fill:rgb(93,110,237);fill-rule:nonzero;"/>
                </g>
                <g transform="matrix(1,0,0,1,213.669,335.39)">
                    <path d="M0,-5.897C-0.62,-5.681 -1.14,-5.319 -1.622,-4.934C-2.099,-4.542 -2.555,-4.126 -2.891,-3.6C-3.231,-3.078 -3.534,-2.527 -3.97,-2.098C-4.389,-1.654 -4.895,-1.293 -5.38,-0.903L-4.742,-0.863C-4.957,-1.327 -5.223,-1.761 -5.466,-2.207C-5.718,-2.647 -5.97,-3.086 -6.267,-3.495C-6.547,-3.915 -6.867,-4.309 -7.17,-4.711C-7.477,-5.115 -7.822,-5.487 -8.1,-5.915L-8.208,-5.896C-8.231,-5.332 -8.061,-4.808 -7.888,-4.314C-7.699,-3.823 -7.488,-3.346 -7.233,-2.896C-6.995,-2.436 -6.693,-2.018 -6.388,-1.604C-6.073,-1.195 -5.773,-0.781 -5.412,-0.402L-5.012,0.018L-4.773,-0.362C-4.446,-0.88 -4.131,-1.419 -3.723,-1.871C-3.333,-2.338 -2.801,-2.675 -2.299,-3.034C-1.794,-3.39 -1.396,-3.844 -1.005,-4.306C-0.617,-4.775 -0.256,-5.257 0.069,-5.812L0,-5.897Z" style="fill:rgb(93,110,237);fill-rule:nonzero;"/>
                </g>
                <g transform="matrix(1,0,0,1,205.838,348.091)">
                    <path d="M0,-4.893C0.256,-4.277 0.591,-3.714 0.964,-3.187C1.346,-2.666 1.743,-2.159 2.199,-1.705C2.665,-1.262 3.199,-0.883 3.699,-0.475C4.189,-0.057 4.621,0.413 5.013,0.926L5.138,1.089L5.314,0.949C5.966,0.43 6.484,-0.043 6.998,-0.596C7.485,-1.152 8.003,-1.68 8.457,-2.258C8.914,-2.833 9.34,-3.43 9.745,-4.043C10.154,-4.655 10.521,-5.294 10.947,-5.891L10.885,-5.982C10.17,-5.644 9.613,-5.121 9.06,-4.622C8.517,-4.109 8.012,-3.565 7.545,-2.994C7.073,-2.426 6.672,-1.804 6.234,-1.214C5.806,-0.637 5.445,0.081 5.039,0.586L5.34,0.609C4.844,0.203 4.397,-0.255 4.013,-0.769C3.638,-1.293 3.302,-1.851 2.908,-2.352C2.504,-2.845 2.044,-3.287 1.586,-3.73C1.121,-4.166 0.626,-4.577 0.086,-4.96L0,-4.893Z" style="fill:rgb(93,110,237);fill-rule:nonzero;"/>
                </g>
                <g transform="matrix(1,0,0,1,220.241,358.807)">
                    <path d="M0,-5.028C-0.68,-4.23 -1.385,-3.494 -2.106,-2.792C-2.83,-2.088 -3.606,-1.472 -4.361,-0.795C-5.132,-0.14 -6.005,0.446 -6.994,0.735C-7.975,1.044 -9.016,1.083 -10.02,1.072L-9.57,1.388C-9.748,0.542 -10.01,-0.255 -10.287,-1.061C-10.56,-1.866 -10.908,-2.648 -11.328,-3.394C-11.744,-4.143 -12.238,-4.858 -12.82,-5.504C-13.413,-6.132 -14.098,-6.722 -14.917,-7.015L-14.972,-6.921C-14.353,-6.359 -13.874,-5.712 -13.459,-5.019C-13.037,-4.334 -12.68,-3.608 -12.328,-2.879L-11.32,-0.654C-10.989,0.092 -10.697,0.868 -10.407,1.622L-10.267,1.987L-9.958,1.939C-8.889,1.771 -7.875,1.409 -6.884,1.061C-5.905,0.679 -4.898,0.343 -3.935,-0.15C-2.961,-0.627 -2.142,-1.365 -1.454,-2.187C-0.768,-3.011 -0.208,-3.948 0.098,-4.979L0,-5.028Z" style="fill:rgb(93,110,237);fill-rule:nonzero;"/>
                </g>
                <g transform="matrix(1,0,0,1,200.764,371.258)">
                    <path d="M0,-9.382C-0.33,-8.589 -0.443,-7.725 -0.421,-6.869C-0.385,-6.015 -0.25,-5.153 0.049,-4.347C0.364,-3.547 0.826,-2.812 1.342,-2.146L2.85,-0.143L2.957,0L3.131,-0.123C3.946,-0.703 4.874,-1.143 5.758,-1.604C6.641,-2.078 7.557,-2.484 8.473,-2.873C9.387,-3.268 10.301,-3.667 11.24,-4.02C12.172,-4.403 13.131,-4.707 14.104,-5.073L14.088,-5.182C12.011,-5.227 9.913,-4.786 8.003,-3.945C7.045,-3.527 6.144,-2.99 5.272,-2.424C4.403,-1.844 3.628,-1.146 2.869,-0.426L3.15,-0.407C2.592,-0.995 2.083,-1.646 1.758,-2.393C1.397,-3.122 1.218,-3.916 0.97,-4.659C0.489,-6.159 0.183,-7.703 0.107,-9.357L0,-9.382Z" style="fill:rgb(93,110,237);fill-rule:nonzero;"/>
                </g>
                <g transform="matrix(1,0,0,1,185.481,384.791)">
                    <path d="M0,38.613L23.056,38.613C25.196,38.613 27.015,36.763 27.337,34.259L30.987,5.897C31.387,2.795 29.357,0 26.706,0L-3.65,0C-6.301,0 -8.331,2.795 -7.931,5.897L-4.281,34.259C-3.959,36.763 -2.14,38.613 0,38.613" style="fill:rgb(82,71,135);fill-rule:nonzero;"/>
                </g>
                <g transform="matrix(1,0,0,1,181.831,423.404)">
                    <path d="M0,-38.613L15.519,-38.613C12.867,-38.613 10.838,-35.818 11.237,-32.716L14.887,-4.353C15.209,-1.849 17.029,0 19.168,0L3.65,0C1.51,0 -0.309,-1.849 -0.631,-4.353L-4.281,-32.716C-4.681,-35.818 -2.651,-38.613 0,-38.613" style="fill:rgb(56,41,92);fill-rule:nonzero;"/>
                </g>
                <g transform="matrix(1,0,0,1,392.012,423.404)">
                    <path d="M0,-7.789L-96.43,-7.789C-97.401,-7.789 -98.188,-7.002 -98.188,-6.03L-98.188,-1.758C-98.188,-0.787 -97.401,0 -96.43,0L0,0L0,-7.789Z" style="fill:rgb(38,27,65);fill-rule:nonzero;"/>
                </g>
                <g transform="matrix(1,0,0,1,416.828,417.939)">
                    <path d="M0,3.049L0,4.785C0,5.161 -0.305,5.465 -0.68,5.465L-24.971,5.465C-25.727,5.465 -26.339,4.853 -26.339,4.097L-26.339,-0.964C-26.339,-1.78 -25.628,-2.416 -24.816,-2.324L-0.604,2.374C-0.26,2.413 0,2.703 0,3.049" style="fill:rgb(82,71,135);fill-rule:nonzero;"/>
                </g>
                <g transform="matrix(1,0,0,1,223.491,377.595)">
                    <path d="M0,-125.876L180.226,-125.876C183.873,-125.876 187.126,-123.589 188.362,-120.158L227.777,-10.699C229.425,-5.054 225.295,-0.824 218.658,-0.109C217.64,0 212.799,-2.176 205.197,-5.752L44.074,-5.752C40.428,-5.752 37.174,-8.039 35.938,-11.47L0.333,-110.348C-5.687,-113.49 -9.119,-115.286 -9.119,-115.286C-9.119,-115.286 -11.348,-125.876 0,-125.876" style="fill:rgb(82,71,135);fill-rule:nonzero;"/>
                </g>
                <g transform="matrix(1,0,0,1,398.074,377.485)">
                    <path d="M0,-120.124L-180.226,-120.124C-182.785,-120.124 -184.57,-117.585 -183.703,-115.177L-144.288,-5.718C-143.052,-2.287 -139.797,0 -136.151,0L44.074,0C46.635,0 48.419,-2.539 47.552,-4.948L8.137,-114.406C6.901,-117.837 3.646,-120.124 0,-120.124" style="fill:rgb(155,163,244);fill-rule:nonzero;"/>
                </g>
                <g transform="matrix(1,0,0,1,357.387,347.813)">
                    <path d="M0,29.672L-8,0L-38.321,29.672L0,29.672Z" style="fill:rgb(38,27,65);fill-rule:nonzero;"/>
                </g>
                <g transform="matrix(0,1,1,0,320.401,288.907)">
                    <path d="M6.896,-6.895C11.79,-6.103 13.761,-2.936 13.761,0.856C13.761,4.648 10.629,7.502 6.896,6.837C3.164,6.173 0.03,2.877 0.03,-0.915C0.03,-4.707 3.152,-7.501 6.896,-6.895" style="fill:rgb(82,71,135);fill-rule:nonzero;"/>
                </g>
                <g transform="matrix(-0.338678,-0.940902,-0.940902,0.338678,401.634,355.243)">
                    <path d="M-2.629,4.589L4.212,4.589L3.225,1.848L-3.616,1.848L-2.629,4.589Z" style="fill:rgb(38,27,65);fill-rule:nonzero;"/>
                </g>
                <g transform="matrix(-0.338678,-0.940902,-0.940902,0.338678,395.5,355.243)">
                    <path d="M-2.629,4.589L4.212,4.589L3.225,1.848L-3.616,1.848L-2.629,4.589Z" style="fill:rgb(38,27,65);fill-rule:nonzero;"/>
                </g>
                <g transform="matrix(-0.338678,-0.940902,-0.940902,0.338678,389.365,355.244)">
                    <path d="M-2.629,4.589L4.213,4.589L3.226,1.849L-3.616,1.848L-2.629,4.589Z" style="fill:rgb(38,27,65);fill-rule:nonzero;"/>
                </g>
                <g transform="matrix(-0.338678,-0.940902,-0.940902,0.338678,383.231,355.243)">
                    <path d="M-2.629,4.589L4.212,4.589L3.225,1.848L-3.616,1.848L-2.629,4.589Z" style="fill:rgb(38,27,65);fill-rule:nonzero;"/>
                </g>
                <g transform="matrix(-0.338678,-0.940902,-0.940902,0.338678,296.096,355.244)">
                    <path d="M-2.629,4.589L4.213,4.589L3.226,1.849L-3.616,1.848L-2.629,4.589Z" style="fill:rgb(38,27,65);fill-rule:nonzero;"/>
                </g>
                <g transform="matrix(-0.338678,-0.940902,-0.940902,0.338678,289.961,355.243)">
                    <path d="M-2.629,4.589L4.212,4.589L3.225,1.848L-3.616,1.848L-2.629,4.589Z" style="fill:rgb(38,27,65);fill-rule:nonzero;"/>
                </g>
                <g transform="matrix(-0.338807,-0.940856,-0.940856,0.338807,283.826,355.242)">
                    <path d="M-2.63,4.589L4.212,4.589L3.225,1.848L-3.617,1.848L-2.63,4.589Z" style="fill:rgb(38,27,65);fill-rule:nonzero;"/>
                </g>
                <g transform="matrix(-0.338678,-0.940902,-0.940902,0.338678,277.692,355.243)">
                    <path d="M-2.629,4.589L4.212,4.589L3.225,1.848L-3.616,1.848L-2.629,4.589Z" style="fill:rgb(38,27,65);fill-rule:nonzero;"/>
                </g>
                <g transform="matrix(1,0,0,1,296.529,348.699)">
                    <path d="M0,64.127C1.778,59.014 23.345,-10.578 23.345,-10.578L51.029,-10.578L52.858,-0.886C52.858,-0.886 34.296,59.014 32.518,64.127C32.382,64.517 32.253,64.908 32.132,65.3L32.134,65.3C30.507,70.3 34.799,70.278 39.632,70.278L88.456,70.278L88.456,74.705L7.115,74.705C-2.668,74.705 -1.779,69.24 0,64.127" style="fill:rgb(56,41,92);fill-rule:nonzero;"/>
                </g>
                <g transform="matrix(1,0,0,1,347.558,423.404)">
                    <path d="M0,-85.283C0,-85.283 -21.567,-15.691 -23.345,-10.578C-25.124,-5.465 -26.013,0 -16.23,0L-48.749,0C-58.531,0 -57.642,-5.465 -55.863,-10.578C-54.084,-15.691 -32.518,-85.283 -32.518,-85.283L0,-85.283Z" style="fill:rgb(82,71,135);fill-rule:nonzero;"/>
                </g>
                <g transform="matrix(1,0,0,1,340.778,371.349)">
                    <path d="M0,-33.228C-2.145,-33.327 -4.29,-33.375 -6.435,-33.446C-8.579,-33.519 -10.724,-33.536 -12.869,-33.582C-15.014,-33.617 -17.159,-33.679 -19.304,-33.68L-25.738,-33.72L-26.097,-33.722L-26.208,-33.374C-27.105,-30.571 -27.989,-27.764 -28.832,-24.945L-31.397,-16.499C-33.048,-10.848 -34.702,-5.2 -36.21,0.494C-34.229,-5.053 -32.392,-10.645 -30.552,-16.236L-27.881,-24.65C-26.978,-27.451 -26.117,-30.264 -25.268,-33.082L-25.738,-32.736L-19.304,-32.776C-17.159,-32.776 -15.014,-32.838 -12.869,-32.873C-10.724,-32.92 -8.579,-32.936 -6.435,-33.01C-4.29,-33.08 -2.145,-33.129 0,-33.228" style="fill:rgb(132,117,213);fill-rule:nonzero;"/>
                </g>
                <g transform="matrix(1,0,0,1,152.177,423.404)">
                    <path d="M0,17.085L477.344,17.085C482.062,17.085 485.886,13.26 485.886,8.542C485.886,3.824 482.062,0 477.344,0L0,0C-4.718,0 -8.542,3.824 -8.542,8.542C-8.542,13.26 -4.718,17.085 0,17.085" style="fill:rgb(146,153,244);fill-rule:nonzero;"/>
                </g>
                <g transform="matrix(1,0,0,1,152.177,431.946)">
                    <path d="M0,8.543L477.344,8.543C482.062,8.543 485.886,4.718 485.886,0L-8.542,0C-8.542,4.718 -4.718,8.543 0,8.543" style="fill:rgb(146,153,244);fill-rule:nonzero;"/>
                </g>
            </g>
        </g>
        <g id="Padlock">
        </g>
        <g id="Speech-Bubble" serif:id="Speech Bubble">
        </g>
    </g>
</svg>
