<?xml version="1.0" encoding="UTF-8" standalone="no"?>
<!DOCTYPE svg PUBLIC "-//W3C//DTD SVG 1.1//EN" "http://www.w3.org/Graphics/SVG/1.1/DTD/svg11.dtd">
<svg width="100%" height="100%" viewBox="0 0 500 500" version="1.1" xmlns="http://www.w3.org/2000/svg" xmlns:xlink="http://www.w3.org/1999/xlink" xml:space="preserve" xmlns:serif="http://www.serif.com/" style="fill-rule:evenodd;clip-rule:evenodd;stroke-linecap:round;stroke-linejoin:round;stroke-miterlimit:1.5;">
    <g transform="matrix(1,0,0,1,0,-542.929)">
        <g id="Artboard1" transform="matrix(1,0,0,1,0,542.929)">
            <rect x="0" y="0" width="499.999" height="500" style="fill:none;"/>
            <g transform="matrix(1,0,0,1,-0.655398,-65.4534)">
                <path d="M85.026,453C68.756,424.533 59.453,391.571 59.453,356.453C59.453,248.83 146.83,161.453 254.453,161.453C362.076,161.453 449.453,248.83 449.453,356.453C449.453,391.571 440.15,424.533 423.88,453L85.026,453Z" style="fill:rgb(220,245,226);"/>
            </g>
            <g transform="matrix(1.1613,0,0,1.1613,300.052,340.862)">
                <path d="M0,-49.353C-0.159,-48.066 0.11,-46.769 0.735,-45.632C3.014,-41.488 4.169,-36.726 4.02,-31.998C3.921,-28.882 3.281,-25.695 4.13,-22.695C5.593,-17.52 11.055,-14.32 12.813,-9.237C14.371,-4.731 12.922,0.935 16.16,4.434C16.963,5.301 18.209,5.965 19.307,5.526C19.857,5.305 20.27,4.845 20.662,4.4C24.375,0.183 28.35,-4.942 27.205,-10.442C26.129,-15.61 20.803,-19.102 19.794,-24.283C18.97,-28.516 21.134,-33.399 18.708,-36.965C18.039,-37.95 17.081,-38.702 16.35,-39.641C13.465,-43.344 14.534,-49.248 11.21,-52.563C10.127,-53.644 8.771,-54.257 7.293,-54.573C3.809,-55.318 0.437,-52.89 0,-49.354L0,-49.353Z" style="fill:rgb(115,129,240);fill-rule:nonzero;"/>
            </g>
            <g transform="matrix(1.1613,0,0,1.1613,324.574,285.356)">
                <path d="M0,64.1C0.223,61.344 0.318,58.586 0.421,55.822C0.295,53.066 0.148,50.309 -0.088,47.554C-0.324,44.8 -0.633,42.045 -1.121,39.307C-1.616,36.586 -2.27,33.806 -3.414,31.248C-5.414,26.193 -7.03,20.906 -8.663,15.667L-11.032,7.769C-12.005,5.189 -12.955,2.604 -13.873,0C-13.47,2.74 -12.843,5.429 -12.294,8.138L-9.92,16.053C-8.277,21.319 -6.676,26.573 -4.627,31.754C-3.52,34.232 -2.907,36.853 -2.415,39.537C-1.938,42.217 -1.632,44.938 -1.398,47.666C-1.168,50.395 -1.008,53.134 -0.903,55.876L0,64.1Z" style="fill:rgb(93,110,237);fill-rule:nonzero;"/>
            </g>
            <g transform="matrix(1.1613,0,0,1.1613,307.675,295.564)">
                <path d="M0,-0.558C0.455,0.13 1.04,0.646 1.669,1.102C1.992,1.318 2.371,1.46 2.723,1.637C3.08,1.808 3.392,2.039 3.682,2.3L3.807,2.414L3.919,2.243C4.182,1.84 4.501,1.467 4.753,1.06C4.996,0.648 5.251,0.243 5.467,-0.182C5.888,-1.038 6.2,-1.948 6.359,-2.933L6.281,-2.972C5.592,-2.249 5.057,-1.451 4.629,-0.598C4.42,-0.169 4.252,0.279 4.071,0.721C3.898,1.169 3.794,1.649 3.633,2.101L3.871,2.044C3.535,1.844 3.222,1.615 2.954,1.324C2.681,1.041 2.435,0.721 2.133,0.477C1.513,0.011 0.848,-0.395 0.053,-0.627L0,-0.558Z" style="fill:rgb(93,110,237);fill-rule:nonzero;"/>
            </g>
            <g transform="matrix(1.1613,0,0,1.1613,308.452,307.637)">
                <path d="M0,-1.531C0.474,-1.14 0.962,-0.719 1.474,-0.366C1.984,-0.005 2.503,0.344 3.064,0.624C3.631,0.897 4.233,1.112 4.778,1.421C5.327,1.724 5.827,2.106 6.315,2.503L6.488,2.643L6.662,2.415C7.417,1.425 8.064,0.373 8.674,-0.699C9.249,-1.793 9.76,-2.921 10.127,-4.131L10.051,-4.174C9.205,-3.234 8.502,-2.214 7.862,-1.159C7.258,-0.083 6.69,1.014 6.232,2.172L6.578,2.084C6.006,1.818 5.443,1.537 4.927,1.181C4.408,0.83 3.944,0.389 3.444,0.006C2.938,-0.368 2.386,-0.67 1.823,-0.951C1.252,-1.224 0.686,-1.49 0.019,-1.616L0,-1.531Z" style="fill:rgb(93,110,237);fill-rule:nonzero;"/>
            </g>
            <g transform="matrix(1.1613,0,0,1.1613,312.341,324.726)">
                <path d="M0,-3.809C0.519,-3.286 1.098,-2.9 1.695,-2.552C2.284,-2.189 2.932,-1.948 3.621,-1.786C4.309,-1.619 4.931,-1.316 5.485,-0.892C6.039,-0.472 6.58,-0.009 7.133,0.354L7.551,0.628L7.862,0.162C8.32,-0.525 8.736,-1.234 9.059,-1.995C9.384,-2.754 9.671,-3.535 9.832,-4.384L9.736,-4.437C9.104,-3.846 8.599,-3.186 8.131,-2.505C7.662,-1.825 7.285,-1.094 6.951,-0.339L7.68,-0.531C7.048,-0.879 6.376,-1.08 5.711,-1.313C5.046,-1.541 4.44,-1.871 3.893,-2.326C3.35,-2.788 2.754,-3.152 2.1,-3.391C1.451,-3.643 0.78,-3.847 0.046,-3.908L0,-3.809Z" style="fill:rgb(93,110,237);fill-rule:nonzero;"/>
            </g>
            <g transform="matrix(1.1613,0,0,1.1613,329.666,253.647)">
                <path d="M0,91.944C2.154,91.59 10.23,89.006 9.667,86.897C7.245,77.845 4.824,67.576 13.208,63.148C17.243,61.018 22.307,59.935 24.604,55.993C26.971,51.933 25.229,46.772 23.105,42.58C20.981,38.387 18.425,33.9 19.335,29.289C20.288,24.462 24.854,20.899 25.584,16.032C26.581,9.387 20.128,4.033 13.93,1.439C11.822,0.556 9.504,-0.198 7.282,0.339C5.695,0.721 4.319,1.739 3.231,2.956C-1.123,7.825 -0.945,15.171 0.048,21.626C1.042,28.082 2.563,34.899 0.131,40.962C-1.596,45.267 -5.293,49.317 -4.303,53.849C-3.906,55.665 -2.774,57.249 -2.342,59.056C-1.179,63.928 -5.226,68.318 -7.082,72.971C-9.475,78.975 -7.832,86.312 -3.294,90.868C-2.431,91.734 -1.208,92.142 0,91.944" style="fill:rgb(155,163,244);fill-rule:nonzero;"/>
            </g>
            <g transform="matrix(1.1613,0,0,1.1613,328.781,266.017)">
                <path d="M0,81.393C0.499,77.809 0.998,74.239 1.636,70.695C1.788,69.808 1.974,68.926 2.117,68.04C2.251,67.153 2.331,66.258 2.478,65.373C2.745,63.599 3.043,61.831 3.382,60.074C4.066,56.562 4.884,53.066 6.084,49.742C6.686,48.086 7.401,46.466 8.343,45.07C8.812,44.374 9.365,43.756 9.977,43.34C10.784,42.81 11.554,42.127 12.156,41.314C13.398,39.668 13.772,37.577 13.728,35.693C13.686,33.783 13.324,31.959 12.921,30.178C12.091,26.623 11.046,23.19 10.465,19.693C9.875,16.214 9.76,12.65 10.679,9.313C10.961,8.498 11.184,7.669 11.452,6.84C11.725,6.014 12.081,5.212 12.481,4.426C13.286,2.855 14.335,1.391 15.498,0C14.073,1.118 12.751,2.41 11.649,3.904C11.095,4.647 10.577,5.429 10.136,6.259C9.68,7.081 9.294,7.955 9.093,8.878C8.088,12.531 8.231,16.355 8.843,19.964C9.448,23.592 10.511,27.079 11.319,30.546C11.713,32.279 12.048,34.019 12.084,35.72C12.12,37.415 11.792,39.071 10.834,40.337C10.36,40.972 9.766,41.511 9.067,41.971C8.185,42.574 7.531,43.343 6.99,44.136C5.914,45.735 5.173,47.449 4.54,49.177C3.29,52.643 2.464,56.197 1.768,59.762C1.424,61.545 1.123,63.335 0.852,65.128C0.729,66.027 0.561,66.918 0.453,67.819C0.361,68.721 0.321,69.629 0.263,70.534C0.067,74.156 -0.067,77.774 0,81.393" style="fill:rgb(93,110,237);fill-rule:nonzero;"/>
            </g>
            <g transform="matrix(1.1613,0,0,1.1613,345.395,285.336)">
                <path d="M0,-5.897C-0.62,-5.681 -1.14,-5.319 -1.622,-4.934C-2.099,-4.542 -2.555,-4.126 -2.891,-3.6C-3.231,-3.078 -3.534,-2.527 -3.97,-2.098C-4.389,-1.654 -4.895,-1.293 -5.38,-0.903L-4.742,-0.863C-4.957,-1.327 -5.223,-1.761 -5.466,-2.207C-5.718,-2.647 -5.97,-3.086 -6.267,-3.495C-6.547,-3.915 -6.867,-4.309 -7.17,-4.711C-7.477,-5.115 -7.822,-5.487 -8.1,-5.915L-8.208,-5.896C-8.231,-5.332 -8.061,-4.808 -7.888,-4.314C-7.699,-3.823 -7.488,-3.346 -7.233,-2.896C-6.995,-2.436 -6.693,-2.018 -6.388,-1.604C-6.073,-1.195 -5.773,-0.781 -5.412,-0.402L-5.012,0.018L-4.773,-0.362C-4.446,-0.88 -4.131,-1.419 -3.723,-1.871C-3.333,-2.338 -2.801,-2.675 -2.299,-3.034C-1.794,-3.39 -1.396,-3.844 -1.005,-4.306C-0.617,-4.775 -0.256,-5.257 0.069,-5.812L0,-5.897Z" style="fill:rgb(93,110,237);fill-rule:nonzero;"/>
            </g>
            <g transform="matrix(1.1613,0,0,1.1613,336.301,300.085)">
                <path d="M0,-4.893C0.256,-4.277 0.591,-3.714 0.964,-3.187C1.346,-2.666 1.743,-2.159 2.199,-1.705C2.665,-1.262 3.199,-0.883 3.699,-0.475C4.189,-0.057 4.621,0.413 5.013,0.926L5.138,1.089L5.314,0.949C5.966,0.43 6.484,-0.043 6.998,-0.596C7.485,-1.152 8.003,-1.68 8.457,-2.258C8.914,-2.833 9.34,-3.43 9.745,-4.043C10.154,-4.655 10.521,-5.294 10.947,-5.891L10.885,-5.982C10.17,-5.644 9.613,-5.121 9.06,-4.622C8.517,-4.109 8.012,-3.565 7.545,-2.994C7.073,-2.426 6.672,-1.804 6.234,-1.214C5.806,-0.637 5.445,0.081 5.039,0.586L5.34,0.609C4.844,0.203 4.397,-0.255 4.013,-0.769C3.638,-1.293 3.302,-1.851 2.908,-2.352C2.504,-2.845 2.044,-3.287 1.586,-3.73C1.121,-4.166 0.626,-4.577 0.086,-4.96L0,-4.893Z" style="fill:rgb(93,110,237);fill-rule:nonzero;"/>
            </g>
            <g transform="matrix(1.1613,0,0,1.1613,353.027,312.53)">
                <path d="M0,-5.028C-0.68,-4.23 -1.385,-3.494 -2.106,-2.792C-2.83,-2.088 -3.606,-1.472 -4.361,-0.795C-5.132,-0.14 -6.005,0.446 -6.994,0.735C-7.975,1.044 -9.016,1.083 -10.02,1.072L-9.57,1.388C-9.748,0.542 -10.01,-0.255 -10.287,-1.061C-10.56,-1.866 -10.908,-2.648 -11.328,-3.394C-11.744,-4.143 -12.238,-4.858 -12.82,-5.504C-13.413,-6.132 -14.098,-6.722 -14.917,-7.015L-14.972,-6.921C-14.353,-6.359 -13.874,-5.712 -13.459,-5.019C-13.037,-4.334 -12.68,-3.608 -12.328,-2.879L-11.32,-0.654C-10.989,0.092 -10.697,0.868 -10.407,1.622L-10.267,1.987L-9.958,1.939C-8.889,1.771 -7.875,1.409 -6.884,1.061C-5.905,0.679 -4.898,0.343 -3.935,-0.15C-2.961,-0.627 -2.142,-1.365 -1.454,-2.187C-0.768,-3.011 -0.208,-3.948 0.098,-4.979L0,-5.028Z" style="fill:rgb(93,110,237);fill-rule:nonzero;"/>
            </g>
            <g transform="matrix(1.1613,0,0,1.1613,330.409,326.989)">
                <path d="M0,-9.382C-0.33,-8.589 -0.443,-7.725 -0.421,-6.869C-0.385,-6.015 -0.25,-5.153 0.049,-4.347C0.364,-3.547 0.826,-2.812 1.342,-2.146L2.85,-0.143L2.957,0L3.131,-0.123C3.946,-0.703 4.874,-1.143 5.758,-1.604C6.641,-2.078 7.557,-2.484 8.473,-2.873C9.387,-3.268 10.301,-3.667 11.24,-4.02C12.172,-4.403 13.131,-4.707 14.104,-5.073L14.088,-5.182C12.011,-5.227 9.913,-4.786 8.003,-3.945C7.045,-3.527 6.144,-2.99 5.272,-2.424C4.403,-1.844 3.628,-1.146 2.869,-0.426L3.15,-0.407C2.592,-0.995 2.083,-1.646 1.758,-2.393C1.397,-3.122 1.218,-3.916 0.97,-4.659C0.489,-6.159 0.183,-7.703 0.107,-9.357L0,-9.382Z" style="fill:rgb(93,110,237);fill-rule:nonzero;"/>
            </g>
            <g transform="matrix(1.1613,0,0,1.1613,312.66,342.705)">
                <path d="M0,38.613L23.056,38.613C25.196,38.613 27.015,36.763 27.337,34.259L30.987,5.897C31.387,2.795 29.357,0 26.706,0L-3.65,0C-6.301,0 -8.331,2.795 -7.931,5.897L-4.281,34.259C-3.959,36.763 -2.14,38.613 0,38.613" style="fill:rgb(82,71,135);fill-rule:nonzero;"/>
            </g>
            <g transform="matrix(1.1613,0,0,1.1613,308.421,387.546)">
                <path d="M0,-38.613L15.519,-38.613C12.867,-38.613 10.838,-35.818 11.237,-32.716L14.887,-4.353C15.209,-1.849 17.029,0 19.168,0L3.65,0C1.51,0 -0.309,-1.849 -0.631,-4.353L-4.281,-32.716C-4.681,-35.818 -2.651,-38.613 0,-38.613" style="fill:rgb(56,41,92);fill-rule:nonzero;"/>
            </g>
            <g transform="matrix(1,0,0,1,65.9984,0)">
                <g transform="matrix(-1,0,0,1,445.66,-128.012)">
                    <rect x="258.632" y="295.102" width="30.152" height="8.522" style="fill:rgb(245,245,245);"/>
                </g>
                <g transform="matrix(1,0,0,1,147.018,131.366)">
                    <path d="M0,-39.495C-7.231,-41.491 -11.287,-30.116 -13.228,-20.592C-15.168,-11.068 -23.633,-9.657 -23.633,-9.657C-23.633,-9.657 1.835,6.91 20.811,-2.25C36.096,-9.628 31.217,-27.078 24.339,-35.115C17.46,-43.152 4.409,-46.405 0,-39.495" style="fill:rgb(26,46,53);fill-rule:nonzero;"/>
                </g>
                <g transform="matrix(-0.995259,0.0972559,0.0972559,0.995259,142.56,359.23)">
                    <path d="M-16.624,20.523L-7.945,20.523L-1,-0.81L-9.679,-0.81L-16.624,20.523Z" style="fill:rgb(255,191,157);fill-rule:nonzero;"/>
                </g>
                <g transform="matrix(-0.783777,0.621043,0.621043,0.783777,194.95,348.994)">
                    <path d="M-14.106,15.895L-5.208,15.895L-5.534,-4.911L-14.432,-4.911L-14.106,15.895Z" style="fill:rgb(255,191,157);fill-rule:nonzero;"/>
                </g>
                <g transform="matrix(1,0,0,1,206.164,364.729)">
                    <path d="M0,-9.674L5.593,-18.018C5.797,-18.321 6.173,-18.426 6.498,-18.27L13.737,-14.795C14.487,-14.435 14.741,-13.412 14.259,-12.719C12.259,-9.844 11.148,-8.557 8.689,-4.887C7.175,-2.63 4.16,2.586 2.07,5.703C0.026,8.752 -3.213,6.92 -2.622,5.434C0.028,-1.225 -0.043,-5.062 -0.376,-8.126C-0.435,-8.679 -0.298,-9.23 0,-9.674" style="fill:rgb(82,71,135);fill-rule:nonzero;"/>
                </g>
                <g transform="matrix(1,0,0,1,151.317,386.965)">
                    <path d="M0,-10.75L10.607,-10.75C10.993,-10.75 11.341,-10.482 11.445,-10.105L13.751,-1.713C13.99,-0.843 13.35,-0.042 12.457,-0.034C8.719,0 6.947,-0.017 2.283,-0.017L-11.974,-0.017C-15.85,-0.017 -16.66,-3.935 -15.057,-4.29C-7.866,-5.881 -3.721,-8.076 -1.502,-10.169C-1.102,-10.547 -0.565,-10.75 0,-10.75" style="fill:rgb(82,71,135);fill-rule:nonzero;"/>
                </g>
                <g transform="matrix(1,0,0,1,-101.756,-29.2858)">
                    <g opacity="0.2">
                        <g transform="matrix(0.400474,0.916308,0.916308,-0.400474,253.794,384.292)">
                            <path d="M-0.379,-9.173L11.185,-9.173L14.793,-0.917L2.308,-0.918L-0.379,-9.173Z" style="fill-rule:nonzero;"/>
                        </g>
                    </g>
                </g>
                <g transform="matrix(1,0,0,1,-101.756,-29.2858)">
                    <g opacity="0.2">
                        <g transform="matrix(-0.783797,0.621017,0.621017,0.783797,308.934,378.127)">
                            <path d="M-4.755,-12.381L4.146,-12.381L4.31,-1.655L-4.591,-1.655L-4.755,-12.381Z" style="fill-rule:nonzero;"/>
                        </g>
                    </g>
                </g>
                <g transform="matrix(1,0,0,1,135.219,365.793)">
                    <path d="M0,-171.745C0,-171.745 -16.733,-118.813 -11.788,-80.088C-8.477,-54.152 8.995,0.064 8.995,0.064L24.426,-0.332C24.426,-0.332 11.927,-55.397 10.634,-76.897C8.423,-113.673 26.591,-171.809 26.591,-171.809L0,-171.745Z" style="fill:rgb(82,71,135);fill-rule:nonzero;"/>
                </g>
                <g transform="matrix(0.999675,-0.0254875,-0.0254875,-0.999675,142.122,366.881)">
                    <path d="M-0.078,0.226L18.99,0.226L18.038,6.11L-1.286,6.602L-0.078,0.226Z" style="fill:rgb(82,71,135);fill-rule:nonzero;"/>
                </g>
                <g transform="matrix(1,0,0,1,143.149,349.345)">
                    <path d="M0,-155.209C0,-155.209 2.345,-97.385 15.23,-64.841C25.638,-38.554 56.049,0.176 56.049,0.176L65.337,-7.911C65.337,-7.911 46.038,-48.847 38.135,-66.392C18.759,-109.411 40.054,-139.206 28.383,-155.385L0,-155.209Z" style="fill:rgb(82,71,135);fill-rule:nonzero;"/>
                </g>
                <g transform="matrix(0.772025,-0.635592,-0.635592,-0.772025,203.898,351.307)">
                    <path d="M-3.941,4.125L11.517,4.125L12.376,10.266L-4.622,10.177L-3.941,4.125Z" style="fill:rgb(82,71,135);fill-rule:nonzero;"/>
                </g>
                <g transform="matrix(1,0,0,1,81.076,83.8766)">
                    <path d="M0,24.749L-3.076,18.01L16.966,9.687L36.385,0L39.461,6.739L19.419,15.062L0,24.749Z" style="fill:rgb(82,71,135);fill-rule:nonzero;"/>
                </g>
                <g transform="matrix(1,0,0,1,104.314,90.8834)">
                    <path d="M0,7.595L-0.234,7.667C-0.829,7.848 -1.463,7.511 -1.645,6.916L-3.327,1.411C-3.509,0.816 -3.171,0.181 -2.577,-0L-2.342,-0.072C-1.748,-0.253 -1.113,0.085 -0.932,0.679L0.75,6.184C0.932,6.779 0.594,7.414 0,7.595" style="fill:rgb(127,116,182);fill-rule:nonzero;"/>
                </g>
                <g transform="matrix(1,0,0,1,98.0168,94.9479)">
                    <path d="M0,6.394L-0.2,6.536C-0.706,6.896 -1.415,6.776 -1.775,6.269L-5.109,1.576C-5.469,1.069 -5.349,0.36 -4.842,0L-4.642,-0.142C-4.136,-0.502 -3.427,-0.381 -3.067,0.125L0.267,4.819C0.627,5.325 0.507,6.034 0,6.394" style="fill:rgb(127,116,182);fill-rule:nonzero;"/>
                </g>
                <g transform="matrix(0.265279,-0.964172,-0.964172,-0.265279,102.574,100.863)">
                    <path d="M-4.467,-0.366L3.517,-0.366L-0.575,8.033C-0.575,8.033 -5.765,6.483 -7.276,1.542L-4.467,-0.366Z" style="fill:rgb(255,191,157);fill-rule:nonzero;"/>
                </g>
                <g transform="matrix(-0.932591,0.360934,0.360934,0.932591,99.011,99.6119)">
                    <path d="M-4.973,-8.012L2.083,-8.012L3.925,-1.869L-5.261,-0.155L-4.973,-8.012Z" style="fill:rgb(255,191,157);fill-rule:nonzero;"/>
                </g>
                <g transform="matrix(0.925969,0.3776,0.3776,-0.925969,90.5436,120.4)">
                    <path d="M4.115,-0.807C1.239,6.868 0.034,18.698 0.034,18.698L4.115,20.989C4.115,20.989 6.456,11.98 10.293,4.593L4.115,-0.807Z" style="fill:rgb(255,191,157);fill-rule:nonzero;"/>
                </g>
                <g transform="matrix(1,0,0,1,138.953,114.139)">
                    <path d="M0,43.822C-0.576,43.987 -0.923,44.062 -1.369,44.171L-2.619,44.454L-5.076,44.989C-6.71,45.325 -8.341,45.652 -9.996,45.917C-13.299,46.484 -16.667,46.907 -20.207,47.099C-23.764,47.215 -27.478,47.25 -31.675,46.27C-33.768,45.768 -36.021,45.033 -38.287,43.694C-38.848,43.373 -39.415,42.96 -39.965,42.577L-40.174,42.426L-40.462,42.194L-41.026,41.712C-41.359,41.399 -41.699,41.066 -41.985,40.747C-43.141,39.46 -43.882,38.239 -44.471,37.116C-45.622,34.873 -46.242,32.93 -46.737,31.077C-47.227,29.228 -47.551,27.476 -47.828,25.764C-48.41,22.351 -48.668,19.077 -48.935,15.844C-49.16,12.613 -49.325,9.425 -49.428,6.245L-49.583,1.473L-49.644,-0.926C-49.669,-1.75 -49.697,-2.496 -49.697,-3.428L-29.67,-1.649C-29.8,-1.077 -29.935,-0.317 -30.06,0.365L-30.388,2.487C-30.594,3.908 -30.752,5.337 -30.909,6.764C-31.181,9.619 -31.367,12.472 -31.398,15.275C-31.467,18.076 -31.318,20.836 -31.068,23.404C-30.921,24.681 -30.713,25.905 -30.468,26.984C-30.228,28.055 -29.912,29.005 -29.686,29.452C-29.58,29.667 -29.504,29.73 -29.65,29.567C-29.687,29.53 -29.749,29.455 -29.815,29.407C-29.855,29.365 -29.899,29.326 -29.946,29.29L-30.018,29.239L-29.994,29.25C-29.914,29.281 -29.885,29.339 -29.788,29.386C-29.453,29.587 -28.823,29.865 -27.977,30.04C-26.269,30.384 -23.875,30.459 -21.421,30.179C-18.938,29.926 -16.331,29.382 -13.733,28.678C-12.438,28.305 -11.136,27.911 -9.858,27.452C-9.219,27.223 -8.586,26.985 -7.962,26.74L-7.048,26.353C-6.776,26.231 -6.405,26.074 -6.268,25.991L0,43.822Z" style="fill:rgb(146,153,244);fill-rule:nonzero;"/>
                </g>
                <g transform="matrix(1,0,0,1,-101.756,-29.2858)">
                    <g opacity="0.2">
                        <g transform="matrix(-0.450645,0.892703,0.892703,0.450645,251.566,342.625)">
                            <path d="M11.736,-16.402C15.993,-12.674 20.245,-8.847 24.282,-5.151C21.237,-1.804 16.845,2.924 11.736,8.052C6.836,4.267 1.801,0.46 -2.961,-3.02L11.736,-16.402Z" style="fill-rule:nonzero;"/>
                        </g>
                        <g transform="matrix(-0.934412,0.356194,0.356194,0.934412,279.814,348.797)">
                            <path d="M-16.874,-20.063L4.069,-20.063C3.156,-14.064 1.975,-7.899 0.695,-1.964C-6.326,-2.413 -12.852,-3.307 -17.94,-4.92C-17.572,-10.101 -17.207,-15.292 -16.874,-20.063" style="fill-rule:nonzero;"/>
                        </g>
                    </g>
                </g>
                <g transform="matrix(1,0,0,1,129.679,324.533)">
                    <path d="M0,-179.774C0.584,-166.051 -17.25,-109.614 -8.94,5.613C-0.592,7.494 59.49,-17.903 66.561,-25.134C65.958,-38.946 40.619,-128.485 46.877,-179.126C47.274,-182.34 45.443,-185.375 42.24,-185.848C39.521,-186.249 36.147,-186.649 32.734,-186.805C26.622,-187.085 21.615,-187.268 16.245,-186.765C12.128,-186.379 7.607,-185.61 4.545,-185.034C1.986,-184.553 -0.111,-182.376 0,-179.774" style="fill:rgb(146,153,244);fill-rule:nonzero;"/>
                </g>
                <g transform="matrix(1,0,0,1,160.735,150.073)">
                    <path d="M0,-30.909C-1.027,-25.601 -2.042,-15.878 1.679,-12.346C1.679,-12.346 -3.611,-4.076 -12.631,0C-19.811,-6.076 -14.811,-12.306 -14.811,-12.306C-8.898,-13.733 -9.061,-18.122 -10.102,-22.242L0,-30.909Z" style="fill:rgb(255,191,157);fill-rule:nonzero;"/>
                </g>
                <g transform="matrix(0.171776,-0.985136,-0.985136,-0.171776,162.786,153.323)">
                    <path d="M-0.602,15.185L5.901,15.185L17.69,4.888L16.047,0.365C16.047,0.365 0.174,8.696 -0.602,15.185" style="fill:rgb(231,231,231);fill-rule:nonzero;"/>
                </g>
                <g transform="matrix(0.171776,-0.985136,-0.985136,-0.171776,152.485,142.757)">
                    <path d="M-9.241,3.221L-2.738,3.221L5.022,6.201L3.66,9.897C3.66,9.897 -10.707,9.59 -9.241,3.221" style="fill:rgb(231,231,231);fill-rule:nonzero;"/>
                </g>
                <g transform="matrix(0.404081,0.914723,0.914723,-0.404081,153.899,136.688)">
                    <path d="M5.47,-7.946C5.47,-7.946 12.303,-5.244 16.684,-6.89C14.964,-2.274 8.302,9.924 5.47,11.367C3.309,10.297 0.94,7.246 0.94,7.246L5.47,-7.946Z" style="fill:rgb(82,71,135);fill-rule:nonzero;"/>
                </g>
                <g transform="matrix(0.72627,-0.68741,-0.68741,-0.72627,147.794,141.785)">
                    <path d="M-1.382,-2.982C-1.382,-2.982 -7.848,-2.424 -11.253,-5.635C-11.451,-0.713 -3.552,5.223 -1.382,6.873C1.023,6.722 4.046,4.549 4.046,4.549L-1.382,-2.982Z" style="fill:rgb(82,71,135);fill-rule:nonzero;"/>
                </g>
                <g transform="matrix(1,0,0,1,-101.756,-29.2858)">
                    <g opacity="0.2">
                        <g transform="matrix(-0.759185,0.650875,0.650875,0.759185,256.216,160.837)">
                            <path d="M-7.397,-5.315L0.478,-5.315C0.923,-4.412 1.419,-3.534 1.991,-2.758C0.06,-1.54 -3.846,-0.869 -5.565,-2.513C-6.421,-3.334 -7.187,-4.772 -7.397,-5.315" style="fill-rule:nonzero;"/>
                        </g>
                    </g>
                </g>
                <g transform="matrix(-0.191778,-0.981438,-0.981438,0.191778,150.185,100.706)">
                    <path d="M-13.353,-13.658C-20.999,-9.155 -24.331,-7.412 -26.353,-1.363C-29.393,7.736 -22.189,16.143 -13.353,14.015C-5.398,12.1 5.769,5.056 4.977,-4.269C4.196,-13.456 -5.706,-18.161 -13.353,-13.658" style="fill:rgb(255,191,157);fill-rule:nonzero;"/>
                </g>
                <g transform="matrix(1,0,0,1,162.656,116.917)">
                    <path d="M0,-15.461C-5.26,-13.612 -4.801,-3.115 0.422,0.529C5.644,4.174 11.875,-19.635 0,-15.461" style="fill:rgb(26,46,53);fill-rule:nonzero;"/>
                </g>
                <g transform="matrix(-0.117354,0.99309,0.99309,0.117354,160.024,90.1365)">
                    <path d="M8.976,-11.796C12.966,-5.991 13.865,1.783 12.214,4.271C13.487,6.375 15.764,13.156 8.976,8.476C2.188,3.796 2.055,-3.088 2.634,-7.488C3.213,-11.888 5.567,-16.753 8.976,-11.796" style="fill:rgb(26,46,53);fill-rule:nonzero;"/>
                </g>
                <g transform="matrix(0.132781,-0.991145,-0.991145,-0.132781,164.477,115.172)">
                    <path d="M-3.637,-2.206C-5.445,-1.349 -6.685,0.184 -7.207,1.641C-7.993,3.831 -5.92,4.958 -3.637,4.376C-1.582,3.852 1.304,2.081 1.1,-0.13C0.897,-2.309 -1.569,-3.186 -3.637,-2.206" style="fill:rgb(255,191,157);fill-rule:nonzero;"/>
                </g>
                <g transform="matrix(0.126362,-0.991984,-0.991984,-0.126362,216.536,145.392)">
                    <path d="M1.427,6.514L9.412,6.514L5.32,-1.885C5.32,-1.885 0.129,-0.334 -1.381,4.606L1.427,6.514Z" style="fill:rgb(255,191,157);fill-rule:nonzero;"/>
                </g>
                <g transform="matrix(0.721761,0.692142,0.692142,-0.721761,220.498,131.425)">
                    <path d="M-3.743,-1.283L3.314,-1.283L5.155,-7.426L-4.03,-9.139L-3.743,-1.283Z" style="fill:rgb(255,191,157);fill-rule:nonzero;"/>
                </g>
                <g transform="matrix(0.999968,0.00798323,0.00798323,-0.999968,210.556,162.212)">
                    <path d="M0.087,0.008C2.963,7.684 4.168,19.513 4.168,19.513L0.087,21.804C0.087,21.804 -2.253,12.795 -6.091,5.408L0.087,0.008Z" style="fill:rgb(255,191,157);fill-rule:nonzero;"/>
                </g>
                <g transform="matrix(1,0,0,1,175.966,185.17)">
                    <path d="M0,-43.366C0.527,-42.241 1.207,-40.905 1.869,-39.688C2.532,-38.44 3.239,-37.213 3.951,-35.991C5.382,-33.555 6.89,-31.174 8.468,-28.894C10.051,-26.621 11.684,-24.426 13.394,-22.46C14.244,-21.482 15.1,-20.554 15.945,-19.711C16.791,-18.892 17.644,-18.177 18.367,-17.658C18.549,-17.525 18.727,-17.396 18.873,-17.317L19.102,-17.17C19.166,-17.126 19.113,-17.164 19.094,-17.174C19.069,-17.188 19.043,-17.2 19.017,-17.209C18.793,-17.316 18.302,-17.475 17.772,-17.495C17.245,-17.517 16.766,-17.419 16.545,-17.333C16.322,-17.258 16.316,-17.236 16.421,-17.324C16.642,-17.498 17.243,-18.053 17.794,-18.841C18.365,-19.621 18.967,-20.577 19.543,-21.62C20.674,-23.73 21.718,-26.149 22.59,-28.67C23.043,-29.925 23.42,-31.226 23.797,-32.522L24.298,-34.48C24.378,-34.804 24.443,-35.132 24.511,-35.45C24.571,-35.751 24.653,-36.131 24.67,-36.317L43.905,-30.463C43.704,-29.938 43.556,-29.61 43.382,-29.204L42.879,-28.061L41.874,-25.815C41.214,-24.321 40.497,-22.853 39.787,-21.369C38.328,-18.415 36.791,-15.453 34.873,-12.448C33.923,-10.937 32.869,-9.411 31.591,-7.859C30.291,-6.322 28.83,-4.689 26.638,-3.114C25.537,-2.334 24.229,-1.562 22.611,-0.964C20.995,-0.366 19.023,0 17.009,-0.085C14.99,-0.158 13.033,-0.722 11.473,-1.481L10.9,-1.772C10.716,-1.868 10.494,-1.986 10.403,-2.045L9.68,-2.482C9.183,-2.777 8.75,-3.074 8.327,-3.373C4.949,-5.79 2.558,-8.242 0.247,-10.704C-2.003,-13.183 -4.07,-15.659 -6.029,-18.17C-7.989,-20.678 -9.862,-23.199 -11.696,-25.739L-14.417,-29.57L-15.766,-31.509C-16.229,-32.172 -16.652,-32.776 -17.156,-33.54L0,-43.366Z" style="fill:rgb(146,153,244);fill-rule:nonzero;"/>
                </g>
                <g transform="matrix(1,0,0,1,-89.9984,-542.929)">
                    <path d="M234.673,662.338C235.508,662.389 236.268,662.374 237.103,662.248C237.574,662.176 238.041,662.082 238.51,662.001C238.57,661.991 238.916,661.88 238.956,661.911C239.176,662.078 239.068,662.79 239.036,663.024C238.858,664.299 237.744,665.015 236.519,665.185C235.947,665.264 234.593,665.181 234.431,664.386C234.346,663.969 234.548,663.611 234.54,663.207C234.533,662.886 234.003,662.421 234.315,662.169" style="fill:white;"/>
                </g>
                <g transform="matrix(1,0,0,1,188.586,81.6789)">
                    <path d="M0,13.496L-0.158,14.127L-56.479,-0L-56.321,-0.631L-26.689,0.569L0,13.496Z" style="fill:rgb(82,71,135);fill-rule:nonzero;"/>
                </g>
                <g transform="matrix(-0.999181,-0.040465,-0.040465,0.999181,132.416,80.5452)">
                    <path d="M-56.584,12.982L-26.928,12.982L0.263,1.145L-29.394,1.145L-56.584,12.982Z" style="fill:rgb(65,57,109);fill-rule:nonzero;"/>
                </g>
                <g transform="matrix(1,0,0,1,174.242,84.6827)">
                    <path d="M0,17.832C-10.572,13.902 -21.62,11.131 -32.795,9.606C-33.499,9.51 -34.014,8.961 -33.883,8.437L-31.877,0.441C-31.77,0.014 -31.264,-0.248 -30.689,-0.171C-19.288,1.359 -8.015,4.187 2.758,8.219C3.301,8.422 3.624,8.892 3.517,9.319L1.511,17.316C1.38,17.839 0.667,18.08 0,17.832" style="fill:rgb(0,124,255);fill-rule:nonzero;"/>
                </g>
                <g transform="matrix(1,0,0,1,174.242,84.6827)">
                    <path d="M0,17.832C-10.572,13.902 -21.62,11.131 -32.795,9.606C-33.499,9.51 -34.014,8.961 -33.883,8.437L-31.877,0.441C-31.77,0.014 -31.264,-0.248 -30.689,-0.171C-19.288,1.359 -8.015,4.187 2.758,8.219C3.301,8.422 3.624,8.892 3.517,9.319L1.511,17.316C1.38,17.839 0.667,18.08 0,17.832" style="fill:rgb(82,71,135);fill-rule:nonzero;"/>
                </g>
                <g transform="matrix(1,0,0,1,179.249,89.403)">
                    <path d="M0,36.142C-0.121,36.142 -0.243,36.101 -0.342,36.016C-0.565,35.827 -0.592,35.493 -0.403,35.27C4.496,29.503 1.775,26.89 -1.99,23.275C-4.158,21.193 -6.615,18.833 -7.859,15.489C-11.283,6.285 -0.808,0.204 -0.702,0.144C-0.448,0 -0.125,0.089 0.019,0.343C0.163,0.596 0.075,0.919 -0.179,1.064C-0.581,1.293 -9.977,6.763 -6.867,15.12C-5.708,18.237 -3.343,20.508 -1.257,22.511C2.448,26.069 5.947,29.429 0.404,35.955C0.299,36.079 0.15,36.142 0,36.142" style="fill:rgb(118,107,177);fill-rule:nonzero;"/>
                </g>
                <g transform="matrix(1,0,0,1,179.249,125.443)">
                    <path d="M0,-0.853C-0.235,-0.853 -0.426,-0.662 -0.426,-0.427C-0.426,-0.192 -0.235,0 0,0C0.235,0 0.426,-0.192 0.426,-0.427C0.426,-0.662 0.235,-0.853 0,-0.853M0,1.058C-0.818,1.058 -1.484,0.392 -1.484,-0.427C-1.484,-1.245 -0.818,-1.911 0,-1.911C0.818,-1.911 1.484,-1.245 1.484,-0.427C1.484,0.392 0.818,1.058 0,1.058" style="fill:rgb(0,124,255);fill-rule:nonzero;"/>
                </g>
            </g>
            <g id="Background-Complete" serif:id="Background Complete">
            </g>
            <g id="Floor">
            </g>
            <g id="Plant">
            </g>
            <g id="Device">
            </g>
            <g id="Character">
            </g>
            <g transform="matrix(1,0,0,1,18.5874,-68.6996)">
                <path d="M54,456L414,456" style="fill:none;stroke:black;stroke-width:1px;"/>
            </g>
        </g>
        <g id="Padlock">
        </g>
        <g id="Speech-Bubble" serif:id="Speech Bubble">
        </g>
    </g>
</svg>
