<?xml version="1.0" encoding="UTF-8" standalone="no"?>
<!DOCTYPE svg PUBLIC "-//W3C//DTD SVG 1.1//EN" "http://www.w3.org/Graphics/SVG/1.1/DTD/svg11.dtd">
<svg width="100%" height="100%" viewBox="0 0 500 500" version="1.1" xmlns="http://www.w3.org/2000/svg" xmlns:xlink="http://www.w3.org/1999/xlink" xml:space="preserve" xmlns:serif="http://www.serif.com/" style="fill-rule:evenodd;clip-rule:evenodd;stroke-linecap:round;stroke-linejoin:round;stroke-miterlimit:1.5;">
    <g transform="matrix(1,0,0,1,-1072.88,0)">
        <g id="Artboard1" transform="matrix(1,0,0,1,1072.88,0)">
            <rect x="0" y="0" width="499.999" height="500" style="fill:none;"/>
            <g id="Background-Complete" serif:id="Background Complete">
                <g transform="matrix(1,0,0,1,-8.45296,-63)">
                    <path d="M85.026,453C68.756,424.533 59.453,391.571 59.453,356.453C59.453,248.83 146.83,161.453 254.453,161.453C362.076,161.453 449.453,248.83 449.453,356.453C449.453,391.571 440.15,424.533 423.88,453L85.026,453Z" style="fill:rgb(220,245,226);"/>
                </g>
                <g transform="matrix(1,0,0,1,-1072.88,0)">
                    <rect x="1452.38" y="174.286" width="3" height="2.429" style="fill:rgb(208,211,239);"/>
                </g>
            </g>
            <g transform="matrix(1.30567,0.688374,-0.745857,1.4147,377.539,226.609)">
                <path d="M0,103.336C-15.448,92.543 -18.953,72.51 -18.342,54.502C-18.24,51.496 -18.57,48.327 -17.141,45.69C-15.71,43.053 -12.374,41.25 -9.683,42.517C-7.45,43.567 -6.478,46.164 -5.229,48.312C-3.567,51.169 -1.092,53.533 1.821,55.045C3.735,56.038 6.104,56.646 7.993,55.604C10.586,54.173 10.892,50.591 10.873,47.601C10.838,42.028 10.804,36.456 10.769,30.885C10.75,27.896 10.741,24.843 11.671,22.005C12.601,19.168 14.655,16.532 17.499,15.735C20.344,14.939 23.86,16.579 24.461,19.505C24.711,20.723 24.463,21.987 24.546,23.228C24.629,24.469 25.207,25.842 26.386,26.188C27.579,26.538 28.775,25.69 29.669,24.815C32.755,21.797 34.849,17.908 36.806,14.041C38.763,10.174 40.662,6.215 43.462,2.922C46.262,-0.37 50.135,-2.979 54.416,-3.222C58.698,-3.464 63.26,-0.821 64.342,3.382C65.427,7.597 62.968,11.873 60.292,15.285C56.322,20.347 51.626,24.823 46.397,28.529C45.455,29.198 44.434,29.921 44.073,31.028C43.424,33.022 45.313,35.001 47.28,35.656C49.509,36.398 51.927,36.167 54.258,36.441C56.589,36.716 59.114,37.744 59.996,39.947C61.221,43.003 58.665,46.206 56.15,48.304C51.115,52.505 45.365,55.823 39.231,58.07C37.032,58.875 34.718,59.581 32.944,61.126C31.171,62.672 30.101,65.358 31.172,67.464C32.244,69.572 34.994,70.246 37.298,69.818C39.601,69.392 41.663,68.141 43.858,67.313C47.967,65.762 53.272,66.045 55.904,69.596C57.634,71.93 57.786,75.18 56.911,77.962C56.037,80.744 54.263,83.141 52.379,85.351C45.794,93.076 37.364,99.296 27.833,102.601C18.303,105.905 9.472,106.8 0,103.336" style="fill:rgb(183,187,248);fill-rule:nonzero;"/>
            </g>
            <g transform="matrix(1.15681,0,0,1.15681,-28.9209,-137.507)">
                <g id="Floor">
                    <path d="M54,456L414,456" style="fill:none;stroke:black;stroke-width:0.86px;"/>
                </g>
            </g>
            <g id="Plant">
            </g>
            <g id="Device">
            </g>
            <g id="Character">
                <g transform="matrix(1,0,0,1,-1072.88,0)">
                    <rect x="1345.88" y="324" width="58.589" height="66" style="fill:rgb(125,132,203);"/>
                </g>
                <g transform="matrix(1.82721,0,0,0.243334,-2210.43,295.1)">
                    <path d="M1404.47,390C1404.47,353.549 1400.53,324 1395.68,324C1384.62,324 1365.73,324 1354.67,324C1349.81,324 1345.88,353.549 1345.88,390L1345.88,390L1404.47,390L1404.47,390Z" style="fill:rgb(75,67,111);"/>
                </g>
                <g transform="matrix(1,0,0,1,-1072.88,0)">
                    <path d="M1504.88,172.448C1504.88,166.682 1500.2,162 1494.43,162L1239.33,162C1233.56,162 1228.88,166.682 1228.88,172.448L1228.88,331.552C1228.88,337.318 1233.56,342 1239.33,342L1494.43,342C1500.2,342 1504.88,337.318 1504.88,331.552L1504.88,172.448Z" style="fill:rgb(75,67,111);"/>
                </g>
                <g transform="matrix(0.933333,0,0,0.9,-981.753,25.2)">
                    <path d="M1504.88,172.448C1504.88,166.682 1500.36,162 1494.8,162L1238.95,162C1233.39,162 1228.88,166.682 1228.88,172.448L1228.88,331.552C1228.88,337.318 1233.39,342 1238.95,342L1494.8,342C1500.36,342 1504.88,337.318 1504.88,331.552L1504.88,172.448Z" style="fill:white;"/>
                </g>
            </g>
            <g transform="matrix(1,0,0,1,-37.5292,-1.52472)">
                <g transform="matrix(1,0,0,1,-1035.35,1.52472)">
                    <path d="M1173.38,364L1172.88,380L1181.88,379L1182.38,363L1173.38,364Z" style="fill:rgb(255,191,157);"/>
                </g>
                <g transform="matrix(1,0,0,1,-1007.77,1.52472)">
                    <path d="M1172.3,360L1172.88,380L1181.88,379L1181.78,359L1172.3,360Z" style="fill:rgb(255,191,157);"/>
                </g>
                <g transform="matrix(1,0,0,1,-1035.35,1.52472)">
                    <path d="M1168.88,258L1170.55,277L1171.88,318L1172.15,365L1183.15,365L1186.88,315L1185.88,280L1187.88,282L1194.36,325L1197.88,364L1210.88,362L1209.88,319L1201.88,258L1168.88,258Z" style="fill:rgb(125,132,204);"/>
                </g>
                <g transform="matrix(1,0,0,1,-1035.35,1.52472)">
                    <path d="M1199.88,239L1212.88,220L1227.88,220L1216.88,240L1199.88,239Z" style="fill:white;"/>
                </g>
                <g transform="matrix(1,0,0,1,-1035.35,1.52472)">
                    <path d="M1216.73,225.614L1217.71,222.75L1218.88,222.5L1222,220.392C1222,220.392 1222.64,220.196 1222.54,220.75C1222.44,221.304 1221.73,222 1221.73,222C1221.73,222 1222.84,223 1222.7,223.5C1222.56,224 1222.46,225.828 1222.29,226.086C1222.13,226.344 1220.45,227.745 1220.23,227.75C1220.01,227.755 1216.73,225.614 1216.73,225.614Z" style="fill:rgb(255,191,157);"/>
                </g>
                <g transform="matrix(0.754343,0,0,0.754343,147.358,383.725)">
                    <path d="M0,3.649L0,-4.907L-14.355,-4.243L-15.458,7.916L-14.507,7.987C-10.278,8.26 7.013,8.658 9.847,7.781C13.007,6.802 0,3.649 0,3.649" style="fill:rgb(147,154,244);fill-rule:nonzero;"/>
                </g>
                <g transform="matrix(0.754343,0,0,0.754343,175.835,383.725)">
                    <path d="M0,3.649L0,-4.907L-15.331,-5.009L-15.458,7.785L-14.507,7.855C-10.278,8.128 7.014,8.658 9.847,7.781C13.007,6.802 0,3.649 0,3.649" style="fill:rgb(147,154,244);fill-rule:nonzero;"/>
                </g>
                <g transform="matrix(0.754343,0,0,0.754343,132.44,220.138)">
                    <path d="M2.752,32.557C5.291,34.071 14.772,35.1 15.508,32.191C16.984,26.35 7.729,12.861 7.729,12.861C7.729,12.861 10.905,30.192 10.07,32.279C9.108,34.685 7.34,37.437 7.34,37.437C0,48.615 0.963,54.202 0.963,54.202C11.845,61.315 26.502,61.104 45.304,52.85C45.412,46.648 41.741,32.231 40.974,29.935C40.206,27.638 42.752,20.099 42.752,20.099C42.752,20.099 46.539,25.16 49.214,28.733C49.862,29.599 50.855,30.138 51.934,30.21C53.012,30.283 54.069,29.88 54.826,29.108C60.085,23.747 70.361,13.273 70.361,13.273C70.609,9.802 68.165,7.391 64.395,9.369L55.753,14.957L41.196,-13.062L34.045,-15.784C32.703,-11.965 20.49,-13.836 20.49,-13.836C7.305,-13.403 6.507,-10.978 1.009,-6.721C-3.207,-3.457 -7.896,15.357 -9.854,23.953C-10.4,26.372 -9.006,28.806 -6.644,29.559C-2.662,30.83 2.752,32.557 2.752,32.557Z" style="fill:rgb(185,181,248);fill-rule:nonzero;"/>
                </g>
                <g transform="matrix(1,0,0,1,-1035.35,1.52472)">
                    <path d="M1196.38,212C1196.38,212 1192.3,217.358 1195.88,225C1198.76,231.151 1200.13,233.624 1200.13,233.624C1195.03,225.223 1191.43,217.285 1196.38,212Z" style="fill:rgb(138,131,242);"/>
                </g>
                <g transform="matrix(0.754343,0,0,0.754343,152.234,244.801)">
                    <path d="M0,1.536C-0.001,1.605 -0.893,1.664 -2.337,1.654C-3.78,1.645 -5.774,1.556 -7.967,1.336C-10.16,1.114 -12.132,0.805 -13.548,0.526C-14.965,0.248 -15.828,0.014 -15.814,-0.055C-15.801,-0.128 -14.915,-0.021 -13.489,0.163C-12.063,0.348 -10.095,0.598 -7.915,0.817C-5.735,1.036 -3.756,1.183 -2.322,1.286C-0.888,1.39 0.001,1.461 0,1.536" style="fill:rgb(138,131,242);fill-rule:nonzero;"/>
                </g>
                <g transform="matrix(0.754343,0,0,0.754343,154.524,244.812)">
                    <path d="M0,-2.249C0.019,-2.186 -0.896,-1.838 -2.421,-1.424C-3.945,-1.011 -6.085,-0.554 -8.482,-0.268C-10.879,0.016 -13.068,0.074 -14.646,0.028C-16.226,-0.017 -17.196,-0.142 -17.193,-0.207C-17.189,-0.284 -16.215,-0.291 -14.647,-0.34C-13.08,-0.389 -10.917,-0.504 -8.543,-0.785C-6.171,-1.068 -4.042,-1.463 -2.506,-1.782C-0.97,-2.102 -0.021,-2.323 0,-2.249" style="fill:rgb(138,131,242);fill-rule:nonzero;"/>
                </g>
                <g transform="matrix(1,0,0,1,-1035.35,1.52472)">
                    <path d="M1175.24,243.319C1175.24,243.319 1172.73,239.191 1172.58,236.394L1175.24,243.319Z" style="fill:rgb(138,131,242);"/>
                </g>
                <g transform="matrix(0.754343,0,0,0.754343,157.955,184.979)">
                    <path d="M0,32.077C0.109,29.845 0.343,27.324 0.343,27.324C0.343,27.324 5.861,26.715 6.196,21.015C6.531,15.314 6.196,2.169 6.196,2.169L-3.854,-2.949L-14.911,5.775L-13.235,34.277L-3.062,34.924C-1.459,35.026 -0.082,33.748 0,32.077" style="fill:rgb(255,191,157);fill-rule:nonzero;"/>
                </g>
                <g transform="matrix(1,0,0,1,-1035.35,1.52472)">
                    <path d="M1189.88,178.171C1189.88,178.171 1180.61,176.239 1178.88,183C1177.15,189.761 1178.07,197.415 1174.38,206.707C1172.88,210.473 1169.88,218 1169.88,218C1169.88,218 1169.2,223.218 1175.88,221C1187,217.308 1186.73,223.735 1191.88,220C1194.7,217.952 1194.87,215.539 1194.38,211.5C1193.88,207.461 1192.5,201.902 1192.88,200C1193.26,198.098 1190.3,189.472 1193.88,192C1193.88,192 1196.43,188.28 1198.09,189.441C1199.75,190.602 1200.29,186.484 1200.88,183.66C1201.47,180.837 1198.64,178.751 1196.69,178C1194.73,177.249 1189.88,178.171 1189.88,178.171Z" style="fill:rgb(152,113,97);"/>
                </g>
            </g>
            <g transform="matrix(1,0,0,1,132,-7.5)">
                <g transform="matrix(1,0,0,0.779412,-1096.88,45.9706)">
                    <rect x="1276.88" y="120" width="120" height="204" style="fill:rgb(208,211,239);"/>
                </g>
                <g transform="matrix(1,0,0,1.02273,-1072.88,-6.54545)">
                    <rect x="1303.88" y="156" width="60" height="132" style="fill:rgb(227,229,246);"/>
                </g>
                <g transform="matrix(1,0,0,1,-1075.88,0)">
                    <rect x="1312.88" y="158" width="47" height="3" style="fill:white;"/>
                </g>
                <g transform="matrix(1,0,0,1,-1075.88,7.28571)">
                    <rect x="1312.88" y="158" width="47" height="3" style="fill:white;"/>
                </g>
                <g transform="matrix(1,0,0,1,-1075.88,14)">
                    <rect x="1312.88" y="158" width="47" height="3" style="fill:white;"/>
                </g>
                <g transform="matrix(1,0,0,1,-1075.88,20.7143)">
                    <rect x="1312.88" y="158" width="47" height="3" style="fill:white;"/>
                </g>
                <g transform="matrix(1,0,0,1,-1075.88,27.4286)">
                    <rect x="1312.88" y="158" width="47" height="3" style="fill:white;"/>
                </g>
                <g transform="matrix(1,0,0,1,-1075.88,34.1429)">
                    <rect x="1312.88" y="158" width="47" height="3" style="fill:white;"/>
                </g>
                <g transform="matrix(1,0,0,1,-1075.88,40.8571)">
                    <rect x="1312.88" y="158" width="47" height="3" style="fill:white;"/>
                </g>
                <g transform="matrix(1,0,0,1,-1075.88,47.5714)">
                    <rect x="1312.88" y="158" width="47" height="3" style="fill:white;"/>
                </g>
                <g transform="matrix(1,0,0,1,-1075.88,54.2857)">
                    <rect x="1312.88" y="158" width="47" height="3" style="fill:white;"/>
                </g>
                <g transform="matrix(1,0,0,1,-1075.88,61)">
                    <rect x="1312.88" y="158" width="47" height="3" style="fill:white;"/>
                </g>
                <g transform="matrix(1,0,0,1,-1075.88,67.7143)">
                    <rect x="1312.88" y="158" width="47" height="3" style="fill:white;"/>
                </g>
                <g transform="matrix(1,0,0,1,-1075.88,74.4286)">
                    <rect x="1312.88" y="158" width="47" height="3" style="fill:white;"/>
                </g>
                <g transform="matrix(1,0,0,1,-1075.88,81.1429)">
                    <rect x="1312.88" y="158" width="47" height="3" style="fill:white;"/>
                </g>
                <g transform="matrix(1,0,0,1,-1075.88,87.8571)">
                    <rect x="1312.88" y="158" width="47" height="3" style="fill:white;"/>
                </g>
                <g transform="matrix(1,0,0,1,-1075.88,94.5714)">
                    <rect x="1312.88" y="158" width="47" height="3" style="fill:white;"/>
                </g>
                <g transform="matrix(1,0,0,1,-1075.88,101.286)">
                    <rect x="1312.88" y="158" width="47" height="3" style="fill:white;"/>
                </g>
                <g transform="matrix(1,0,0,1,-1075.88,108)">
                    <rect x="1312.88" y="158" width="47" height="3" style="fill:white;"/>
                </g>
                <g transform="matrix(1,0,0,1,-1075.88,114.714)">
                    <rect x="1312.88" y="158" width="47" height="3" style="fill:white;"/>
                </g>
                <g transform="matrix(1,0,0,1,-1072.88,0)">
                    <rect x="1265.88" y="195" width="32" height="93" style="fill:rgb(227,229,246);"/>
                </g>
                <g transform="matrix(1.32609,0,0,0.944444,-1477.53,10.8889)">
                    <rect x="1260.88" y="151" width="23" height="36" style="fill:white;"/>
                    <clipPath id="_clip1">
                        <rect x="1260.88" y="151" width="23" height="36"/>
                    </clipPath>
                    <g clip-path="url(#_clip1)">
                        <g transform="matrix(0.754098,0,0,1.05882,302.7,-11.5294)">
                            <circle cx="1285.38" cy="163.5" r="7.5" style="fill:rgb(227,229,246);"/>
                        </g>
                        <g transform="matrix(1.53333,0,0,2.15294,-698.912,-164.212)">
                            <circle cx="1285.38" cy="163.5" r="7.5" style="fill:rgb(227,229,246);"/>
                        </g>
                    </g>
                </g>
                <g transform="matrix(0.545683,0,0,1,-521.063,39.5)">
                    <rect x="1312.88" y="158" width="47" height="3" style="fill:white;"/>
                </g>
                <g transform="matrix(0.545683,0,0,1,-521.063,45.7429)">
                    <rect x="1312.88" y="158" width="47" height="3" style="fill:white;"/>
                </g>
                <g transform="matrix(0.545683,0,0,1,-521.063,51.9858)">
                    <rect x="1312.88" y="158" width="47" height="3" style="fill:white;"/>
                </g>
                <g transform="matrix(0.545683,0,0,1,-521.063,58.2288)">
                    <rect x="1312.88" y="158" width="47" height="3" style="fill:white;"/>
                </g>
                <g transform="matrix(0.545683,0,0,1,-521.063,64.4717)">
                    <rect x="1312.88" y="158" width="47" height="3" style="fill:white;"/>
                </g>
                <g transform="matrix(0.545683,0,0,1,-521.063,70.7146)">
                    <rect x="1312.88" y="158" width="47" height="3" style="fill:white;"/>
                </g>
                <g transform="matrix(0.545683,0,0,1,-521.063,76.9575)">
                    <rect x="1312.88" y="158" width="47" height="3" style="fill:white;"/>
                </g>
                <g transform="matrix(0.545683,0,0,1,-521.063,83.2004)">
                    <rect x="1312.88" y="158" width="47" height="3" style="fill:white;"/>
                </g>
                <g transform="matrix(0.545683,0,0,1,-521.063,89.4434)">
                    <rect x="1312.88" y="158" width="47" height="3" style="fill:white;"/>
                </g>
                <g transform="matrix(0.545683,0,0,1,-521.063,95.6863)">
                    <rect x="1312.88" y="158" width="47" height="3" style="fill:white;"/>
                </g>
                <g transform="matrix(0.545683,0,0,1,-521.063,101.929)">
                    <rect x="1312.88" y="158" width="47" height="3" style="fill:white;"/>
                </g>
                <g transform="matrix(0.545683,0,0,1,-521.063,108.172)">
                    <rect x="1312.88" y="158" width="47" height="3" style="fill:white;"/>
                </g>
                <g transform="matrix(0.545683,0,0,1,-521.063,114.415)">
                    <rect x="1312.88" y="158" width="47" height="3" style="fill:white;"/>
                </g>
                <g transform="matrix(0.545683,0,0,1,-521.063,120.658)">
                    <rect x="1312.88" y="158" width="47" height="3" style="fill:white;"/>
                </g>
            </g>
            <g transform="matrix(1,0,0,1,0,-13.5)">
                <g transform="matrix(1,0,0,0.779412,-1096.88,45.9706)">
                    <rect x="1276.88" y="120" width="120" height="204" style="fill:rgb(208,211,239);"/>
                </g>
                <g transform="matrix(1,0,0,1.02273,-1072.88,-6.54545)">
                    <rect x="1303.88" y="156" width="60" height="132" style="fill:rgb(227,229,246);"/>
                </g>
                <g transform="matrix(1,0,0,1,-1075.88,0)">
                    <rect x="1312.88" y="158" width="47" height="3" style="fill:white;"/>
                </g>
                <g transform="matrix(1,0,0,1,-1075.88,7.28571)">
                    <rect x="1312.88" y="158" width="47" height="3" style="fill:white;"/>
                </g>
                <g transform="matrix(1,0,0,1,-1075.88,14)">
                    <rect x="1312.88" y="158" width="47" height="3" style="fill:white;"/>
                </g>
                <g transform="matrix(1,0,0,1,-1075.88,20.7143)">
                    <rect x="1312.88" y="158" width="47" height="3" style="fill:white;"/>
                </g>
                <g transform="matrix(1,0,0,1,-1075.88,27.4286)">
                    <rect x="1312.88" y="158" width="47" height="3" style="fill:white;"/>
                </g>
                <g transform="matrix(1,0,0,1,-1075.88,34.1429)">
                    <rect x="1312.88" y="158" width="47" height="3" style="fill:white;"/>
                </g>
                <g transform="matrix(1,0,0,1,-1075.88,40.8571)">
                    <rect x="1312.88" y="158" width="47" height="3" style="fill:white;"/>
                </g>
                <g transform="matrix(1,0,0,1,-1075.88,47.5714)">
                    <rect x="1312.88" y="158" width="47" height="3" style="fill:white;"/>
                </g>
                <g transform="matrix(1,0,0,1,-1075.88,54.2857)">
                    <rect x="1312.88" y="158" width="47" height="3" style="fill:white;"/>
                </g>
                <g transform="matrix(1,0,0,1,-1075.88,61)">
                    <rect x="1312.88" y="158" width="47" height="3" style="fill:white;"/>
                </g>
                <g transform="matrix(1,0,0,1,-1075.88,67.7143)">
                    <rect x="1312.88" y="158" width="47" height="3" style="fill:white;"/>
                </g>
                <g transform="matrix(1,0,0,1,-1075.88,74.4286)">
                    <rect x="1312.88" y="158" width="47" height="3" style="fill:white;"/>
                </g>
                <g transform="matrix(1,0,0,1,-1075.88,81.1429)">
                    <rect x="1312.88" y="158" width="47" height="3" style="fill:white;"/>
                </g>
                <g transform="matrix(1,0,0,1,-1075.88,87.8571)">
                    <rect x="1312.88" y="158" width="47" height="3" style="fill:white;"/>
                </g>
                <g transform="matrix(1,0,0,1,-1075.88,94.5714)">
                    <rect x="1312.88" y="158" width="47" height="3" style="fill:white;"/>
                </g>
                <g transform="matrix(1,0,0,1,-1075.88,101.286)">
                    <rect x="1312.88" y="158" width="47" height="3" style="fill:white;"/>
                </g>
                <g transform="matrix(1,0,0,1,-1075.88,108)">
                    <rect x="1312.88" y="158" width="47" height="3" style="fill:white;"/>
                </g>
                <g transform="matrix(1,0,0,1,-1075.88,114.714)">
                    <rect x="1312.88" y="158" width="47" height="3" style="fill:white;"/>
                </g>
                <g transform="matrix(1,0,0,1,-1072.88,0)">
                    <rect x="1265.88" y="195" width="32" height="93" style="fill:rgb(227,229,246);"/>
                </g>
                <g transform="matrix(1.32609,0,0,0.944444,-1477.53,10.8889)">
                    <rect x="1260.88" y="151" width="23" height="36" style="fill:white;"/>
                    <clipPath id="_clip2">
                        <rect x="1260.88" y="151" width="23" height="36"/>
                    </clipPath>
                    <g clip-path="url(#_clip2)">
                        <g transform="matrix(0.754098,0,0,1.05882,302.7,-11.5294)">
                            <circle cx="1285.38" cy="163.5" r="7.5" style="fill:rgb(227,229,246);"/>
                        </g>
                        <g transform="matrix(1.53333,0,0,2.15294,-698.912,-164.212)">
                            <circle cx="1285.38" cy="163.5" r="7.5" style="fill:rgb(227,229,246);"/>
                        </g>
                    </g>
                </g>
                <g transform="matrix(0.545683,0,0,1,-521.063,39.5)">
                    <rect x="1312.88" y="158" width="47" height="3" style="fill:white;"/>
                </g>
                <g transform="matrix(0.545683,0,0,1,-521.063,45.7429)">
                    <rect x="1312.88" y="158" width="47" height="3" style="fill:white;"/>
                </g>
                <g transform="matrix(0.545683,0,0,1,-521.063,51.9858)">
                    <rect x="1312.88" y="158" width="47" height="3" style="fill:white;"/>
                </g>
                <g transform="matrix(0.545683,0,0,1,-521.063,58.2288)">
                    <rect x="1312.88" y="158" width="47" height="3" style="fill:white;"/>
                </g>
                <g transform="matrix(0.545683,0,0,1,-521.063,64.4717)">
                    <rect x="1312.88" y="158" width="47" height="3" style="fill:white;"/>
                </g>
                <g transform="matrix(0.545683,0,0,1,-521.063,70.7146)">
                    <rect x="1312.88" y="158" width="47" height="3" style="fill:white;"/>
                </g>
                <g transform="matrix(0.545683,0,0,1,-521.063,76.9575)">
                    <rect x="1312.88" y="158" width="47" height="3" style="fill:white;"/>
                </g>
                <g transform="matrix(0.545683,0,0,1,-521.063,83.2004)">
                    <rect x="1312.88" y="158" width="47" height="3" style="fill:white;"/>
                </g>
                <g transform="matrix(0.545683,0,0,1,-521.063,89.4434)">
                    <rect x="1312.88" y="158" width="47" height="3" style="fill:white;"/>
                </g>
                <g transform="matrix(0.545683,0,0,1,-521.063,95.6863)">
                    <rect x="1312.88" y="158" width="47" height="3" style="fill:white;"/>
                </g>
                <g transform="matrix(0.545683,0,0,1,-521.063,101.929)">
                    <rect x="1312.88" y="158" width="47" height="3" style="fill:white;"/>
                </g>
                <g transform="matrix(0.545683,0,0,1,-521.063,108.172)">
                    <rect x="1312.88" y="158" width="47" height="3" style="fill:white;"/>
                </g>
                <g transform="matrix(0.545683,0,0,1,-521.063,114.415)">
                    <rect x="1312.88" y="158" width="47" height="3" style="fill:white;"/>
                </g>
                <g transform="matrix(0.545683,0,0,1,-521.063,120.658)">
                    <rect x="1312.88" y="158" width="47" height="3" style="fill:white;"/>
                </g>
            </g>
            <g transform="matrix(1,0,0,1,-1074.38,1.5)">
                <rect x="1252.88" y="166.5" width="111" height="120" style="fill:rgb(176,178,205);fill-opacity:0.62;"/>
            </g>
            <g transform="matrix(1,0,0,1,-14.8,31)">
                <g transform="matrix(1,0,0,0.779412,-1096.88,45.9706)">
                    <rect x="1276.88" y="120" width="120" height="204" style="fill:rgb(208,211,239);"/>
                </g>
                <g transform="matrix(1,0,0,1.02273,-1072.88,-6.54545)">
                    <rect x="1303.88" y="156" width="60" height="132" style="fill:rgb(227,229,246);"/>
                </g>
                <g transform="matrix(1,0,0,1,-1075.88,0)">
                    <rect x="1312.88" y="158" width="47" height="3" style="fill:white;"/>
                </g>
                <g transform="matrix(1,0,0,1,-1075.88,7.28571)">
                    <rect x="1312.88" y="158" width="47" height="3" style="fill:white;"/>
                </g>
                <g transform="matrix(1,0,0,1,-1075.88,14)">
                    <rect x="1312.88" y="158" width="47" height="3" style="fill:white;"/>
                </g>
                <g transform="matrix(1,0,0,1,-1075.88,20.7143)">
                    <rect x="1312.88" y="158" width="47" height="3" style="fill:white;"/>
                </g>
                <g transform="matrix(1,0,0,1,-1075.88,27.4286)">
                    <rect x="1312.88" y="158" width="47" height="3" style="fill:white;"/>
                </g>
                <g transform="matrix(1,0,0,1,-1075.88,34.1429)">
                    <rect x="1312.88" y="158" width="47" height="3" style="fill:white;"/>
                </g>
                <g transform="matrix(1,0,0,1,-1075.88,40.8571)">
                    <rect x="1312.88" y="158" width="47" height="3" style="fill:white;"/>
                </g>
                <g transform="matrix(1,0,0,1,-1075.88,47.5714)">
                    <rect x="1312.88" y="158" width="47" height="3" style="fill:white;"/>
                </g>
                <g transform="matrix(1,0,0,1,-1075.88,54.2857)">
                    <rect x="1312.88" y="158" width="47" height="3" style="fill:white;"/>
                </g>
                <g transform="matrix(1,0,0,1,-1075.88,61)">
                    <rect x="1312.88" y="158" width="47" height="3" style="fill:white;"/>
                </g>
                <g transform="matrix(1,0,0,1,-1075.88,67.7143)">
                    <rect x="1312.88" y="158" width="47" height="3" style="fill:white;"/>
                </g>
                <g transform="matrix(1,0,0,1,-1075.88,74.4286)">
                    <rect x="1312.88" y="158" width="47" height="3" style="fill:white;"/>
                </g>
                <g transform="matrix(1,0,0,1,-1075.88,81.1429)">
                    <rect x="1312.88" y="158" width="47" height="3" style="fill:white;"/>
                </g>
                <g transform="matrix(1,0,0,1,-1075.88,87.8571)">
                    <rect x="1312.88" y="158" width="47" height="3" style="fill:white;"/>
                </g>
                <g transform="matrix(1,0,0,1,-1075.88,94.5714)">
                    <rect x="1312.88" y="158" width="47" height="3" style="fill:white;"/>
                </g>
                <g transform="matrix(1,0,0,1,-1075.88,101.286)">
                    <rect x="1312.88" y="158" width="47" height="3" style="fill:white;"/>
                </g>
                <g transform="matrix(1,0,0,1,-1075.88,108)">
                    <rect x="1312.88" y="158" width="47" height="3" style="fill:white;"/>
                </g>
                <g transform="matrix(1,0,0,1,-1075.88,114.714)">
                    <rect x="1312.88" y="158" width="47" height="3" style="fill:white;"/>
                </g>
                <g transform="matrix(1,0,0,1,-1072.88,0)">
                    <rect x="1265.88" y="195" width="32" height="93" style="fill:rgb(227,229,246);"/>
                </g>
                <g transform="matrix(1.32609,0,0,0.944444,-1477.53,10.8889)">
                    <rect x="1260.88" y="151" width="23" height="36" style="fill:white;"/>
                    <clipPath id="_clip3">
                        <rect x="1260.88" y="151" width="23" height="36"/>
                    </clipPath>
                    <g clip-path="url(#_clip3)">
                        <g transform="matrix(0.754098,0,0,1.05882,302.7,-11.5294)">
                            <circle cx="1285.38" cy="163.5" r="7.5" style="fill:rgb(227,229,246);"/>
                        </g>
                        <g transform="matrix(1.53333,0,0,2.15294,-698.912,-164.212)">
                            <circle cx="1285.38" cy="163.5" r="7.5" style="fill:rgb(227,229,246);"/>
                        </g>
                    </g>
                </g>
                <g transform="matrix(0.545683,0,0,1,-521.063,39.5)">
                    <rect x="1312.88" y="158" width="47" height="3" style="fill:white;"/>
                </g>
                <g transform="matrix(0.545683,0,0,1,-521.063,45.7429)">
                    <rect x="1312.88" y="158" width="47" height="3" style="fill:white;"/>
                </g>
                <g transform="matrix(0.545683,0,0,1,-521.063,51.9858)">
                    <rect x="1312.88" y="158" width="47" height="3" style="fill:white;"/>
                </g>
                <g transform="matrix(0.545683,0,0,1,-521.063,58.2288)">
                    <rect x="1312.88" y="158" width="47" height="3" style="fill:white;"/>
                </g>
                <g transform="matrix(0.545683,0,0,1,-521.063,64.4717)">
                    <rect x="1312.88" y="158" width="47" height="3" style="fill:white;"/>
                </g>
                <g transform="matrix(0.545683,0,0,1,-521.063,70.7146)">
                    <rect x="1312.88" y="158" width="47" height="3" style="fill:white;"/>
                </g>
                <g transform="matrix(0.545683,0,0,1,-521.063,76.9575)">
                    <rect x="1312.88" y="158" width="47" height="3" style="fill:white;"/>
                </g>
                <g transform="matrix(0.545683,0,0,1,-521.063,83.2004)">
                    <rect x="1312.88" y="158" width="47" height="3" style="fill:white;"/>
                </g>
                <g transform="matrix(0.545683,0,0,1,-521.063,89.4434)">
                    <rect x="1312.88" y="158" width="47" height="3" style="fill:white;"/>
                </g>
                <g transform="matrix(0.545683,0,0,1,-521.063,95.6863)">
                    <rect x="1312.88" y="158" width="47" height="3" style="fill:white;"/>
                </g>
                <g transform="matrix(0.545683,0,0,1,-521.063,101.929)">
                    <rect x="1312.88" y="158" width="47" height="3" style="fill:white;"/>
                </g>
                <g transform="matrix(0.545683,0,0,1,-521.063,108.172)">
                    <rect x="1312.88" y="158" width="47" height="3" style="fill:white;"/>
                </g>
                <g transform="matrix(0.545683,0,0,1,-521.063,114.415)">
                    <rect x="1312.88" y="158" width="47" height="3" style="fill:white;"/>
                </g>
                <g transform="matrix(0.545683,0,0,1,-521.063,120.658)">
                    <rect x="1312.88" y="158" width="47" height="3" style="fill:white;"/>
                </g>
            </g>
            <g transform="matrix(1,0,0,1,-974.873,4.92774)">
                <rect x="1252.88" y="166.5" width="111" height="120" style="fill:rgb(176,178,205);fill-opacity:0.62;"/>
            </g>
            <g transform="matrix(1,0,0,1,83.5915,34.3278)">
                <g transform="matrix(1,0,0,0.779412,-1096.88,45.9706)">
                    <rect x="1276.88" y="120" width="120" height="204" style="fill:rgb(208,211,239);"/>
                </g>
                <g transform="matrix(1,0,0,1.02273,-1072.88,-6.54545)">
                    <rect x="1303.88" y="156" width="60" height="132" style="fill:rgb(227,229,246);"/>
                </g>
                <g transform="matrix(1,0,0,1,-1075.88,0)">
                    <rect x="1312.88" y="158" width="47" height="3" style="fill:white;"/>
                </g>
                <g transform="matrix(1,0,0,1,-1075.88,7.28571)">
                    <rect x="1312.88" y="158" width="47" height="3" style="fill:white;"/>
                </g>
                <g transform="matrix(1,0,0,1,-1075.88,14)">
                    <rect x="1312.88" y="158" width="47" height="3" style="fill:white;"/>
                </g>
                <g transform="matrix(1,0,0,1,-1075.88,20.7143)">
                    <rect x="1312.88" y="158" width="47" height="3" style="fill:white;"/>
                </g>
                <g transform="matrix(1,0,0,1,-1075.88,27.4286)">
                    <rect x="1312.88" y="158" width="47" height="3" style="fill:white;"/>
                </g>
                <g transform="matrix(1,0,0,1,-1075.88,34.1429)">
                    <rect x="1312.88" y="158" width="47" height="3" style="fill:white;"/>
                </g>
                <g transform="matrix(1,0,0,1,-1075.88,40.8571)">
                    <rect x="1312.88" y="158" width="47" height="3" style="fill:white;"/>
                </g>
                <g transform="matrix(1,0,0,1,-1075.88,47.5714)">
                    <rect x="1312.88" y="158" width="47" height="3" style="fill:white;"/>
                </g>
                <g transform="matrix(1,0,0,1,-1075.88,54.2857)">
                    <rect x="1312.88" y="158" width="47" height="3" style="fill:white;"/>
                </g>
                <g transform="matrix(1,0,0,1,-1075.88,61)">
                    <rect x="1312.88" y="158" width="47" height="3" style="fill:white;"/>
                </g>
                <g transform="matrix(1,0,0,1,-1075.88,67.7143)">
                    <rect x="1312.88" y="158" width="47" height="3" style="fill:white;"/>
                </g>
                <g transform="matrix(1,0,0,1,-1075.88,74.4286)">
                    <rect x="1312.88" y="158" width="47" height="3" style="fill:white;"/>
                </g>
                <g transform="matrix(1,0,0,1,-1075.88,81.1429)">
                    <rect x="1312.88" y="158" width="47" height="3" style="fill:white;"/>
                </g>
                <g transform="matrix(1,0,0,1,-1075.88,87.8571)">
                    <rect x="1312.88" y="158" width="47" height="3" style="fill:white;"/>
                </g>
                <g transform="matrix(1,0,0,1,-1075.88,94.5714)">
                    <rect x="1312.88" y="158" width="47" height="3" style="fill:white;"/>
                </g>
                <g transform="matrix(1,0,0,1,-1075.88,101.286)">
                    <rect x="1312.88" y="158" width="47" height="3" style="fill:white;"/>
                </g>
                <g transform="matrix(1,0,0,1,-1075.88,108)">
                    <rect x="1312.88" y="158" width="47" height="3" style="fill:white;"/>
                </g>
                <g transform="matrix(1,0,0,1,-1075.88,114.714)">
                    <rect x="1312.88" y="158" width="47" height="3" style="fill:white;"/>
                </g>
                <g transform="matrix(1,0,0,1,-1072.88,0)">
                    <rect x="1265.88" y="195" width="32" height="93" style="fill:rgb(227,229,246);"/>
                </g>
                <g transform="matrix(1.32609,0,0,0.944444,-1477.53,10.8889)">
                    <rect x="1260.88" y="151" width="23" height="36" style="fill:white;"/>
                    <clipPath id="_clip4">
                        <rect x="1260.88" y="151" width="23" height="36"/>
                    </clipPath>
                    <g clip-path="url(#_clip4)">
                        <g transform="matrix(0.754098,0,0,1.05882,302.7,-11.5294)">
                            <circle cx="1285.38" cy="163.5" r="7.5" style="fill:rgb(227,229,246);"/>
                        </g>
                        <g transform="matrix(1.53333,0,0,2.15294,-698.912,-164.212)">
                            <circle cx="1285.38" cy="163.5" r="7.5" style="fill:rgb(227,229,246);"/>
                        </g>
                    </g>
                </g>
                <g transform="matrix(0.545683,0,0,1,-521.063,39.5)">
                    <rect x="1312.88" y="158" width="47" height="3" style="fill:white;"/>
                </g>
                <g transform="matrix(0.545683,0,0,1,-521.063,45.7429)">
                    <rect x="1312.88" y="158" width="47" height="3" style="fill:white;"/>
                </g>
                <g transform="matrix(0.545683,0,0,1,-521.063,51.9858)">
                    <rect x="1312.88" y="158" width="47" height="3" style="fill:white;"/>
                </g>
                <g transform="matrix(0.545683,0,0,1,-521.063,58.2288)">
                    <rect x="1312.88" y="158" width="47" height="3" style="fill:white;"/>
                </g>
                <g transform="matrix(0.545683,0,0,1,-521.063,64.4717)">
                    <rect x="1312.88" y="158" width="47" height="3" style="fill:white;"/>
                </g>
                <g transform="matrix(0.545683,0,0,1,-521.063,70.7146)">
                    <rect x="1312.88" y="158" width="47" height="3" style="fill:white;"/>
                </g>
                <g transform="matrix(0.545683,0,0,1,-521.063,76.9575)">
                    <rect x="1312.88" y="158" width="47" height="3" style="fill:white;"/>
                </g>
                <g transform="matrix(0.545683,0,0,1,-521.063,83.2004)">
                    <rect x="1312.88" y="158" width="47" height="3" style="fill:white;"/>
                </g>
                <g transform="matrix(0.545683,0,0,1,-521.063,89.4434)">
                    <rect x="1312.88" y="158" width="47" height="3" style="fill:white;"/>
                </g>
                <g transform="matrix(0.545683,0,0,1,-521.063,95.6863)">
                    <rect x="1312.88" y="158" width="47" height="3" style="fill:white;"/>
                </g>
                <g transform="matrix(0.545683,0,0,1,-521.063,101.929)">
                    <rect x="1312.88" y="158" width="47" height="3" style="fill:white;"/>
                </g>
                <g transform="matrix(0.545683,0,0,1,-521.063,108.172)">
                    <rect x="1312.88" y="158" width="47" height="3" style="fill:white;"/>
                </g>
                <g transform="matrix(0.545683,0,0,1,-521.063,114.415)">
                    <rect x="1312.88" y="158" width="47" height="3" style="fill:white;"/>
                </g>
                <g transform="matrix(0.545683,0,0,1,-521.063,120.658)">
                    <rect x="1312.88" y="158" width="47" height="3" style="fill:white;"/>
                </g>
            </g>
        </g>
        <g id="Padlock">
        </g>
        <g id="Speech-Bubble" serif:id="Speech Bubble">
        </g>
    </g>
</svg>
