<?xml version="1.0" encoding="UTF-8" standalone="no"?>
<!DOCTYPE svg PUBLIC "-//W3C//DTD SVG 1.1//EN" "http://www.w3.org/Graphics/SVG/1.1/DTD/svg11.dtd">
<svg width="100%" height="100%" viewBox="0 0 500 500" version="1.1" xmlns="http://www.w3.org/2000/svg" xmlns:xlink="http://www.w3.org/1999/xlink" xml:space="preserve" xmlns:serif="http://www.serif.com/" style="fill-rule:evenodd;clip-rule:evenodd;stroke-linecap:round;stroke-linejoin:round;stroke-miterlimit:1.5;">
    <g transform="matrix(1,0,0,1,0,-1.47528)">
        <g id="Artboard1" transform="matrix(1,0,0,1,0,1.47528)">
            <rect x="0" y="0" width="499.999" height="500" style="fill:none;"/>
            <g transform="matrix(1,0,0,1,-8.45296,-63)">
                <g id="Background-Complete" serif:id="Background Complete">
                    <path d="M85.026,453C68.756,424.533 59.453,391.571 59.453,356.453C59.453,248.83 146.83,161.453 254.453,161.453C362.076,161.453 449.453,248.83 449.453,356.453C449.453,391.571 440.15,424.533 423.88,453L85.026,453Z" style="fill:rgb(220,245,226);"/>
                </g>
            </g>
            <g transform="matrix(1,0,0,1,3.54704,-66)">
                <g id="Floor">
                    <path d="M54,456L414,456" style="fill:none;stroke:black;stroke-width:1px;"/>
                </g>
            </g>
            <g transform="matrix(1,0,0,1,334.942,234.248)">
                <g id="Plant">
                    <path d="M0,103.336C-15.448,92.543 -18.953,72.51 -18.342,54.502C-18.24,51.496 -18.57,48.327 -17.141,45.69C-15.71,43.053 -12.374,41.25 -9.683,42.517C-7.45,43.567 -6.478,46.164 -5.229,48.312C-3.567,51.169 -1.092,53.533 1.821,55.045C3.735,56.038 6.104,56.646 7.993,55.604C10.586,54.173 10.892,50.591 10.873,47.601C10.838,42.028 10.804,36.456 10.769,30.885C10.75,27.896 10.741,24.843 11.671,22.005C12.601,19.168 14.655,16.532 17.499,15.735C20.344,14.939 23.86,16.579 24.461,19.505C24.711,20.723 24.463,21.987 24.546,23.228C24.629,24.469 25.207,25.842 26.386,26.188C27.579,26.538 28.775,25.69 29.669,24.815C32.755,21.797 34.849,17.908 36.806,14.041C38.763,10.174 40.662,6.215 43.462,2.922C46.262,-0.37 50.135,-2.979 54.416,-3.222C58.698,-3.464 63.26,-0.821 64.342,3.382C65.427,7.597 62.968,11.873 60.292,15.285C56.322,20.347 51.626,24.823 46.397,28.529C45.455,29.198 44.434,29.921 44.073,31.028C43.424,33.022 45.313,35.001 47.28,35.656C49.509,36.398 51.927,36.167 54.258,36.441C56.589,36.716 59.114,37.744 59.996,39.947C61.221,43.003 58.665,46.206 56.15,48.304C51.115,52.505 45.365,55.823 39.231,58.07C37.032,58.875 34.718,59.581 32.944,61.126C31.171,62.672 30.101,65.358 31.172,67.464C32.244,69.572 34.994,70.246 37.298,69.818C39.601,69.392 41.663,68.141 43.858,67.313C47.967,65.762 53.272,66.045 55.904,69.596C57.634,71.93 57.786,75.18 56.911,77.962C56.037,80.744 54.263,83.141 52.379,85.351C45.794,93.076 37.364,99.296 27.833,102.601C18.303,105.905 9.472,106.8 0,103.336" style="fill:rgb(147,154,244);fill-rule:nonzero;"/>
                </g>
            </g>
            <g id="Device">
                <g transform="matrix(1,0,0,1,317.654,89.811)">
                    <path d="M0,294.379L-99.881,293.917C-111.894,293.862 -121.588,284.081 -121.538,272.068L-120.479,21.665C-120.428,9.645 -110.641,-0.056 -98.622,-0.001L1.26,0.461C13.272,0.516 22.967,10.297 22.916,22.31L21.857,272.714C21.807,284.733 12.02,294.435 0,294.379" style="fill:rgb(75,67,111);fill-rule:nonzero;"/>
                </g>
                <g transform="matrix(1,0,0,1,318.772,373.342)">
                    <path d="M0,-274.428L-19.365,-274.517C-21.962,-274.529 -24.077,-272.338 -24.088,-269.623L-24.104,-266.111C-24.114,-263.396 -26.229,-261.204 -28.826,-261.217L-66.573,-261.391C-69.17,-261.403 -71.266,-263.614 -71.255,-266.328L-71.24,-269.841C-71.229,-272.556 -73.325,-274.767 -75.922,-274.779L-82.732,-274.81L-99.682,-274.888C-108.099,-274.927 -114.954,-268.133 -114.989,-259.715L-116.022,-15.303C-116.058,-6.889 -109.269,-0.039 -100.855,0L-1.174,0.46C7.243,0.499 14.098,-6.295 14.134,-14.713L15.167,-259.126C15.202,-267.539 8.413,-274.389 0,-274.428" style="fill:white;fill-rule:nonzero;"/>
                </g>
                <g transform="matrix(1,0,0,1,305.357,317.745)">
                    <path d="M0,23.452L-74.124,23.11C-74.891,23.106 -75.51,22.271 -75.505,21.244L-75.423,1.852C-75.419,0.825 -74.793,-0.004 -74.026,-0.001L0.098,0.342C0.865,0.346 1.484,1.181 1.479,2.208L1.397,21.598C1.394,22.626 0.768,23.456 0,23.452" style="fill:rgb(147,154,244);fill-rule:nonzero;"/>
                </g>
                <g transform="matrix(0.956624,0.00442223,-0.00422944,0.999991,16.3794,6.92407)">
                    <text x="253.832px" y="323.774px" style="font-family:'LucidaGrande', 'Lucida Grande', sans-serif;font-weight:500;font-size:8.299px;fill:rgb(233,233,228);">D<tspan x="260.442px 265.419px 268.864px 272.362px 277.339px " y="323.774px 323.774px 323.774px 323.774px 323.774px ">aftar</tspan></text>
                </g>
                <g transform="matrix(1,0,0,1,321.418,182.218)">
                    <path d="M0,17.48C-0.004,17.46 0.215,17.492 0.587,17.342C0.937,17.206 1.492,16.78 1.556,15.997C1.553,14.402 1.548,12.084 1.542,9.107C1.542,7.609 1.541,5.945 1.54,4.126C1.541,3.67 1.541,3.205 1.541,2.73C1.554,2.245 1.553,1.794 1.261,1.42C0.998,1.05 0.548,0.813 0.078,0.811C-0.435,0.81 -0.957,0.809 -1.488,0.808C-5.743,0.8 -10.584,0.79 -15.933,0.78C-37.355,0.7 -66.92,0.591 -99.573,0.47C-100.004,0.466 -100.425,0.677 -100.675,1.027C-100.953,1.38 -100.941,1.798 -100.935,2.334C-100.939,3.349 -100.943,4.36 -100.948,5.369C-100.957,7.385 -100.965,9.389 -100.974,11.377C-100.979,12.372 -100.983,13.362 -100.988,14.349C-100.972,14.822 -101.034,15.388 -100.946,15.755C-100.847,16.157 -100.543,16.497 -100.166,16.657C-99.969,16.737 -99.785,16.765 -99.547,16.763L-98.815,16.767L-97.355,16.773C-96.384,16.778 -95.417,16.783 -94.455,16.788C-86.753,16.829 -79.325,16.869 -72.247,16.906C-58.098,16.992 -45.354,17.07 -34.645,17.135C-23.956,17.22 -15.299,17.288 -9.295,17.335C-6.317,17.37 -3.998,17.397 -2.403,17.416C-1.629,17.431 -1.034,17.442 -0.611,17.45C-0.207,17.461 0,17.48 0,17.48C0,17.48 -0.207,17.497 -0.611,17.503C-1.034,17.508 -1.629,17.514 -2.403,17.521C-3.999,17.525 -6.318,17.531 -9.296,17.538C-15.301,17.53 -23.957,17.518 -34.646,17.504C-45.355,17.47 -58.1,17.43 -72.25,17.386C-79.327,17.358 -86.755,17.329 -94.457,17.298C-95.419,17.294 -96.386,17.291 -97.357,17.286L-98.817,17.28L-99.549,17.277C-99.799,17.282 -100.109,17.243 -100.365,17.131C-100.889,16.911 -101.306,16.442 -101.445,15.886C-101.524,15.604 -101.506,15.317 -101.507,15.086L-101.504,14.347C-101.5,13.36 -101.496,12.369 -101.492,11.375C-101.484,9.386 -101.476,7.383 -101.468,5.367C-101.464,4.358 -101.459,3.347 -101.456,2.332C-101.448,2.072 -101.47,1.844 -101.43,1.533C-101.385,1.241 -101.272,0.959 -101.096,0.721C-100.753,0.238 -100.163,-0.058 -99.571,-0.051C-66.918,0.129 -37.354,0.293 -15.932,0.412C-10.582,0.451 -5.741,0.486 -1.486,0.517C-0.955,0.521 -0.433,0.525 0.08,0.53C0.641,0.535 1.173,0.823 1.479,1.263C1.822,1.694 1.819,2.284 1.8,2.731C1.796,3.206 1.793,3.671 1.789,4.126C1.772,5.946 1.758,7.61 1.745,9.108C1.708,12.088 1.68,14.409 1.66,16.005C1.573,16.839 0.975,17.267 0.605,17.392C0.215,17.529 0,17.48 0,17.48" style="fill:rgb(225,225,225);fill-rule:nonzero;"/>
                </g>
                <g transform="matrix(-0.999989,-0.00461275,-0.00461275,0.999989,227.194,188.665)">
                    <rect x="-47.034" y="0.108" width="47.045" height="4.411" style="fill:rgb(147,154,244);"/>
                </g>
                <g transform="matrix(1,0,0,1,-1.23673,6.8726)">
                    <g opacity="0.2">
                        <g transform="matrix(-0.999989,-0.00461275,-0.00461275,0.999989,228.431,181.793)">
                            <rect x="-47.034" y="0.108" width="47.045" height="4.411" style="fill:white;"/>
                        </g>
                    </g>
                </g>
                <g transform="matrix(1,0,0,1,320.758,225.262)">
                    <path d="M0,17.497C-0.002,17.479 0.21,17.498 0.593,17.385C0.956,17.266 1.541,16.966 1.859,16.252C2.03,15.9 2.048,15.473 2.032,14.984C2.03,14.498 2.028,13.969 2.026,13.395C2.024,12.244 2.021,10.92 2.019,9.431C2.019,7.938 2.018,6.28 2.018,4.467L2.018,3.077C2.039,2.599 1.981,2.156 1.726,1.757C1.485,1.365 1.095,1.054 0.639,0.914C0.191,0.773 -0.344,0.85 -0.872,0.828C-5.112,0.82 -9.937,0.81 -15.268,0.8C-36.615,0.721 -66.077,0.612 -98.617,0.491C-99.521,0.469 -100.356,1.206 -100.443,2.101C-100.473,3.052 -100.458,4.103 -100.469,5.095C-100.478,7.104 -100.486,9.101 -100.495,11.082C-100.499,12.073 -100.504,13.06 -100.508,14.044C-100.492,14.535 -100.562,15.048 -100.445,15.44C-100.332,15.853 -100.068,16.223 -99.715,16.465C-99.349,16.712 -98.952,16.803 -98.472,16.785L-97.017,16.792C-96.049,16.797 -95.086,16.802 -94.126,16.807C-86.452,16.848 -79.049,16.887 -71.996,16.924C-57.896,17.01 -45.196,17.088 -34.524,17.153C-23.872,17.237 -15.246,17.306 -9.263,17.352C-6.295,17.388 -3.984,17.414 -2.395,17.433C-1.623,17.448 -1.03,17.459 -0.608,17.467C-0.206,17.478 0,17.497 0,17.497C0,17.497 -0.206,17.514 -0.609,17.52C-1.03,17.525 -1.624,17.531 -2.396,17.538C-3.984,17.542 -6.296,17.548 -9.264,17.556C-15.247,17.547 -23.874,17.536 -34.526,17.521C-45.198,17.488 -57.897,17.448 -71.999,17.404C-79.051,17.376 -86.454,17.347 -94.129,17.317C-95.088,17.313 -96.052,17.309 -97.02,17.305L-98.474,17.299C-98.963,17.325 -99.564,17.206 -100.006,16.891C-100.458,16.58 -100.797,16.108 -100.942,15.576C-101.091,15.016 -101.002,14.529 -101.024,14.041C-101.021,13.058 -101.017,12.071 -101.013,11.08C-101.005,9.098 -100.997,7.102 -100.989,5.092C-100.977,4.075 -100.997,3.108 -100.96,2.039C-100.849,0.888 -99.775,-0.059 -98.615,-0.029C-66.075,0.15 -36.613,0.313 -15.266,0.432C-9.935,0.471 -5.111,0.506 -0.871,0.537C-0.348,0.565 0.181,0.48 0.722,0.646C1.244,0.81 1.686,1.167 1.956,1.616C2.243,2.055 2.305,2.616 2.276,3.078C2.272,3.551 2.27,4.014 2.266,4.468C2.25,6.281 2.234,7.939 2.222,9.432C2.206,10.921 2.192,12.245 2.181,13.396C2.174,13.969 2.168,14.499 2.162,14.985C2.171,15.461 2.143,15.935 1.955,16.295C1.603,17.038 0.985,17.33 0.607,17.436C0.21,17.535 0,17.497 0,17.497" style="fill:rgb(225,225,225);fill-rule:nonzero;"/>
                </g>
                <g transform="matrix(1,0,0,1,320.567,270.175)">
                    <path d="M0,17.497C-0.001,17.479 0.211,17.498 0.593,17.386C0.957,17.267 1.541,16.966 1.859,16.252C2.03,15.9 2.048,15.473 2.032,14.984C2.03,14.498 2.028,13.969 2.026,13.395C2.024,12.244 2.022,10.92 2.02,9.432C2.019,7.938 2.019,6.28 2.018,4.467C2.018,4.014 2.019,3.55 2.019,3.076C2.039,2.599 1.982,2.156 1.727,1.757C1.485,1.365 1.096,1.054 0.64,0.914C0.192,0.773 -0.343,0.85 -0.872,0.828C-5.111,0.819 -9.936,0.81 -15.267,0.8C-36.615,0.721 -66.076,0.611 -98.616,0.491C-99.521,0.469 -100.355,1.206 -100.442,2.101C-100.472,3.052 -100.458,4.102 -100.468,5.095C-100.477,7.103 -100.485,9.101 -100.494,11.082C-100.499,12.073 -100.503,13.06 -100.507,14.044C-100.491,14.534 -100.561,15.047 -100.445,15.439C-100.332,15.853 -100.068,16.223 -99.715,16.465C-99.348,16.712 -98.951,16.804 -98.471,16.785L-97.017,16.792C-96.049,16.797 -95.085,16.802 -94.126,16.807C-86.452,16.848 -79.049,16.887 -71.996,16.924C-57.896,17.011 -45.196,17.088 -34.524,17.153C-23.872,17.237 -15.246,17.306 -9.263,17.352C-6.295,17.388 -3.983,17.415 -2.395,17.434C-1.623,17.448 -1.029,17.459 -0.608,17.468C-0.206,17.478 0,17.497 0,17.497C0,17.497 -0.206,17.514 -0.608,17.52C-1.03,17.524 -1.623,17.53 -2.395,17.538C-3.984,17.542 -6.296,17.548 -9.264,17.556C-15.247,17.547 -23.873,17.536 -34.526,17.521C-45.198,17.488 -57.897,17.448 -71.998,17.404C-79.051,17.376 -86.454,17.348 -94.128,17.317C-95.088,17.313 -96.051,17.309 -97.019,17.305L-98.474,17.299C-98.963,17.325 -99.564,17.206 -100.005,16.891C-100.458,16.58 -100.796,16.107 -100.942,15.576C-101.091,15.016 -101.002,14.528 -101.024,14.041C-101.02,13.058 -101.016,12.07 -101.012,11.08C-101.004,9.098 -100.996,7.101 -100.988,5.092C-100.977,4.074 -100.996,3.108 -100.959,2.039C-100.848,0.888 -99.774,-0.059 -98.614,-0.029C-66.074,0.15 -36.613,0.313 -15.265,0.432C-9.935,0.471 -5.11,0.506 -0.87,0.537C-0.347,0.564 0.182,0.48 0.723,0.646C1.244,0.81 1.686,1.168 1.957,1.616C2.244,2.056 2.306,2.616 2.277,3.078C2.273,3.551 2.27,4.015 2.266,4.468C2.25,6.281 2.235,7.939 2.223,9.432C2.207,10.921 2.193,12.245 2.182,13.396C2.175,13.969 2.168,14.499 2.162,14.984C2.171,15.462 2.143,15.935 1.955,16.296C1.604,17.038 0.985,17.331 0.608,17.436C0.211,17.534 0,17.497 0,17.497" style="fill:rgb(225,225,225);fill-rule:nonzero;"/>
                </g>
                <g transform="matrix(-0.999989,-0.00461275,-0.00461275,0.999989,227.012,231.729)">
                    <rect x="-47.034" y="0.108" width="47.046" height="4.411" style="fill:rgb(147,154,244);"/>
                </g>
                <g transform="matrix(1,0,0,1,-1.23673,6.8726)">
                    <g opacity="0.2">
                        <g transform="matrix(-0.999989,-0.00461275,-0.00461275,0.999989,228.249,224.856)">
                            <rect x="-47.034" y="0.108" width="47.046" height="4.411" style="fill:white;"/>
                        </g>
                    </g>
                </g>
                <g transform="matrix(0.00461945,-0.999989,-0.999989,-0.00461945,261.101,277.59)">
                    <path d="M-2.056,-2.047C-3.269,-2.048 -4.25,-1.127 -4.25,0.009C-4.25,1.145 -3.268,2.065 -2.056,2.066C-0.845,2.067 0.137,1.147 0.137,0.011C0.136,-1.126 -0.845,-2.046 -2.056,-2.047" style="fill:rgb(147,154,244);fill-rule:nonzero;"/>
                </g>
                <g transform="matrix(0.00461945,-0.999989,-0.999989,-0.00461945,267.474,277.619)">
                    <path d="M-2.056,-2.047C-3.269,-2.047 -4.25,-1.126 -4.251,0.009C-4.25,1.145 -3.268,2.065 -2.056,2.066C-0.845,2.067 0.137,1.147 0.136,0.011C0.136,-1.125 -0.845,-2.046 -2.056,-2.047" style="fill:rgb(147,154,244);fill-rule:nonzero;"/>
                </g>
                <g transform="matrix(0.00462057,-0.999989,-0.999989,-0.00462057,273.847,277.649)">
                    <path d="M-2.056,-2.047C-3.268,-2.047 -4.249,-1.127 -4.251,0.008C-4.25,1.144 -3.268,2.066 -2.056,2.066C-0.846,2.066 0.137,1.147 0.137,0.011C0.137,-1.125 -0.845,-2.047 -2.056,-2.047" style="fill:rgb(147,154,244);fill-rule:nonzero;"/>
                </g>
                <g transform="matrix(0.00486257,-0.999988,-0.999988,-0.00486257,280.221,277.679)">
                    <path d="M-2.056,-2.046C-3.267,-2.047 -4.248,-1.127 -4.25,0.008C-4.251,1.144 -3.268,2.066 -2.056,2.067C-0.846,2.067 0.136,1.148 0.137,0.012C0.138,-1.124 -0.844,-2.046 -2.056,-2.046" style="fill:rgb(147,154,244);fill-rule:nonzero;"/>
                </g>
                <g transform="matrix(1,0,0,1,273.206,134.873)">
                    <path d="M0,0.505C1.346,-0.059 2.303,-1.447 2.311,-3.082C2.319,-5.224 0.698,-6.969 -1.311,-6.978C-3.318,-6.987 -4.954,-5.258 -4.963,-3.116C-4.97,-1.466 -4.006,-0.061 -2.646,0.505C-8.242,1.348 -7.988,7.431 -7.988,7.431L5.246,7.492C5.246,7.492 5.548,1.343 0,0.505" style="fill:rgb(147,154,244);fill-rule:nonzero;"/>
                </g>
                <g transform="matrix(1,0,0,1,-1.23673,6.8726)">
                    <g opacity="0.1">
                        <g transform="matrix(1,0,0,1,274.443,128)">
                            <path d="M0,0.505C1.346,-0.059 2.303,-1.447 2.311,-3.082C2.319,-5.224 0.698,-6.969 -1.311,-6.978C-3.318,-6.987 -4.954,-5.258 -4.963,-3.116C-4.97,-1.466 -4.006,-0.061 -2.646,0.505C-8.242,1.348 -7.988,7.431 -7.988,7.431L5.246,7.492C5.246,7.492 5.548,1.343 0,0.505" style="fill-rule:nonzero;"/>
                        </g>
                    </g>
                </g>
                <g transform="matrix(-0.999989,-0.00461938,-0.00461938,0.999989,247.532,146.02)">
                    <rect x="-47.182" y="0.109" width="47.195" height="5.642" style="fill:rgb(147,154,244);"/>
                </g>
                <g transform="matrix(1,0,0,1,-1.23673,6.8726)">
                    <g opacity="0.2">
                        <g transform="matrix(-0.999989,-0.00461938,-0.00461938,0.999989,248.769,139.148)">
                            <rect x="-47.182" y="0.109" width="47.195" height="5.642" style="fill:white;"/>
                        </g>
                    </g>
                </g>
                <g transform="matrix(-0.999989,-0.00462742,-0.00462742,0.999989,220.293,170.565)">
                    <rect x="-25.707" y="0.059" width="25.718" height="4.718" style="fill:rgb(132,138,221);"/>
                </g>
                <g transform="matrix(-0.999989,-0.00462742,-0.00462742,0.999989,220.111,213.628)">
                    <rect x="-25.707" y="0.059" width="25.718" height="4.718" style="fill:rgb(132,138,221);"/>
                </g>
                <g transform="matrix(-0.999989,-0.00458853,-0.00458853,0.999989,219.922,258.541)">
                    <rect x="-25.707" y="0.059" width="25.719" height="4.719" style="fill:rgb(132,138,221);"/>
                </g>
            </g>
            <g id="Character">
                <g>
                    <g transform="matrix(0.754343,0,0,0.754343,147.358,383.725)">
                        <path d="M0,3.649L0,-4.907L-15.331,-5.009L-15.458,7.916L-14.507,7.987C-10.278,8.26 7.013,8.658 9.847,7.781C13.007,6.802 0,3.649 0,3.649" style="fill:rgb(147,154,244);fill-rule:nonzero;"/>
                    </g>
                    <g transform="matrix(0,-0.754343,-0.754343,0,145.398,379.328)">
                        <path d="M-12.807,-12.808C-12.952,-12.808 -13.068,-7.073 -13.068,-0.001C-13.068,7.074 -12.952,12.807 -12.807,12.807C-12.663,12.807 -12.547,7.074 -12.547,-0.001C-12.547,-7.073 -12.663,-12.808 -12.807,-12.808" style="fill:rgb(26,46,53);fill-rule:nonzero;"/>
                    </g>
                    <g transform="matrix(0.754343,0,0,0.754343,175.835,383.725)">
                        <path d="M0,3.649L0,-4.907L-15.331,-5.009L-15.458,7.785L-14.507,7.855C-10.278,8.128 7.014,8.658 9.847,7.781C13.007,6.802 0,3.649 0,3.649" style="fill:rgb(147,154,244);fill-rule:nonzero;"/>
                    </g>
                    <g transform="matrix(0,-0.754343,-0.754343,0,173.876,379.343)">
                        <path d="M-12.808,-12.808C-12.952,-12.808 -13.069,-7.074 -13.069,-0.001C-13.069,7.074 -12.952,12.808 -12.808,12.808C-12.664,12.808 -12.547,7.074 -12.547,-0.001C-12.547,-7.074 -12.664,-12.808 -12.808,-12.808" style="fill:rgb(26,46,53);fill-rule:nonzero;"/>
                    </g>
                    <g transform="matrix(0.754343,0,0,0.754343,218.438,287.969)">
                        <path d="M0,-123.307C-0.4,-123.719 -1.384,-123.525 -1.384,-123.525C-1.384,-123.525 -1.212,-124.693 -1.394,-125.259C-1.574,-125.824 -2.835,-125.715 -2.835,-125.715C-2.835,-125.715 -2.913,-126.259 -2.803,-127.137C-2.774,-127.356 -2.896,-127.519 -3.096,-127.64C-3.692,-128.001 -4.979,-127.983 -4.979,-127.983C-5.752,-128.535 -2.628,-132.903 -1.47,-134.302C-0.325,-135.683 -0.518,-136.789 -1.551,-136.788C-2.255,-136.786 -5.901,-132.588 -7.015,-131.178C-8.127,-129.769 -11.11,-125.848 -11.212,-128.977C-11.313,-132.106 -12.571,-134.473 -13.356,-134.877C-14.142,-135.28 -14.99,-134.334 -14.555,-133.465C-14.204,-132.763 -13.981,-131.41 -13.855,-130.387C-13.752,-129.543 -13.786,-128.687 -13.971,-127.857C-14.493,-125.513 -15.053,-123.991 -15.317,-123.341L-15.394,-123.384C-15.394,-123.384 -37.221,-102.455 -38.794,-100.961C-40.21,-99.617 -68.572,-102.551 -74.254,-103.154C-75.807,-103.328 -78.107,-103.64 -80.1,-103.553C-82.564,-103.445 -83.003,-103.095 -85.47,-103.062C-93.023,-102.961 -99.318,-102.225 -104.003,-101.432C-109.667,-100.474 -114.311,-96.443 -116.064,-90.972C-121.799,-73.074 -134.773,-30.703 -137.085,-6.9C-138.906,-3.476 -140.941,0.523 -141.768,2.773C-143.375,7.148 -142.985,7.298 -142.443,7.398C-140.99,7.667 -139.326,-0.19 -138.704,1.706C-138.082,3.602 -141.856,11.079 -140.325,11.298C-138.329,11.583 -136.738,3.326 -136.552,2.636C-136.371,1.967 -135.364,2.193 -135.565,2.806C-135.854,3.687 -138.668,13.017 -136.711,13.316C-135.626,13.482 -135.509,11.506 -135.509,11.506C-135.509,11.506 -133.52,2.583 -132.601,2.755C-131.667,2.929 -132.659,8.208 -133.119,9.964C-133.574,11.699 -132.933,12.621 -131.998,12.184C-131.359,11.886 -129.823,6.541 -129.408,4.794C-128.993,3.047 -127.942,-1.766 -126.53,1.028C-125.118,3.822 -122.98,5.438 -122.098,5.473C-121.215,5.507 -120.845,4.293 -121.606,3.687C-122.222,3.199 -122.994,2.066 -123.539,1.191C-123.989,0.47 -124.319,-0.321 -124.501,-1.151C-125.204,-4.351 -125.198,-6.211 -125.198,-6.211L-125.361,-7.24C-123.122,-18.332 -116.667,-50.877 -107.395,-71.669L-103.577,-63.812L-101.92,-57.995L-112.095,-32.857L-68.682,-33.429L-75.154,-58.368L-67.291,-84.372L-67.291,-84.373C-58.781,-84.183 -36.924,-83.866 -33.251,-85.508C-28.672,-87.554 -4.973,-117.428 -4.973,-117.428L-4.974,-117.428C-3.373,-118.703 -1.745,-120.075 -0.544,-121.271C-0.544,-121.271 0.868,-122.414 0,-123.307" style="fill:rgb(255,191,157);fill-rule:nonzero;"/>
                    </g>
                    <g transform="matrix(0.754343,0,0,0.754343,132.453,220.242)">
                        <path d="M0,38.418C1.257,34.119 7.729,12.861 7.729,12.861C7.729,12.861 10.905,30.192 10.07,32.279C9.108,34.685 7.34,37.437 7.34,37.437C0,48.615 0.963,54.202 0.963,54.202L45.304,52.85C45.412,46.648 41.741,32.231 40.974,29.935C40.206,27.638 42.752,20.099 42.752,20.099C42.752,20.099 47.763,15.01 47.569,12.391C47.178,7.115 46.695,5.41 46.695,5.41L73.676,6.403L72.828,-11.903L34.045,-15.784C32.703,-11.965 20.49,-13.836 20.49,-13.836C7.305,-13.403 6.507,-10.978 1.009,-6.721C-4.489,-2.464 -13.544,34.098 -13.544,34.098L0,38.418Z" style="fill:rgb(185,181,248);fill-rule:nonzero;"/>
                    </g>
                    <g transform="matrix(0.754343,0,0,0.754343,152.234,244.801)">
                        <path d="M0,1.536C-0.001,1.605 -0.893,1.664 -2.337,1.654C-3.78,1.645 -5.774,1.556 -7.967,1.336C-10.16,1.114 -12.132,0.805 -13.548,0.526C-14.965,0.248 -15.828,0.014 -15.814,-0.055C-15.801,-0.128 -14.915,-0.021 -13.489,0.163C-12.063,0.348 -10.095,0.598 -7.915,0.817C-5.735,1.036 -3.756,1.183 -2.322,1.286C-0.888,1.39 0.001,1.461 0,1.536" style="fill:rgb(26,46,53);fill-rule:nonzero;"/>
                    </g>
                    <g transform="matrix(0.754343,0,0,0.754343,154.524,244.812)">
                        <path d="M0,-2.249C0.019,-2.186 -0.896,-1.838 -2.421,-1.424C-3.945,-1.011 -6.085,-0.554 -8.482,-0.268C-10.879,0.016 -13.068,0.074 -14.646,0.028C-16.226,-0.017 -17.196,-0.142 -17.193,-0.207C-17.189,-0.284 -16.215,-0.291 -14.647,-0.34C-13.08,-0.389 -10.917,-0.504 -8.543,-0.785C-6.171,-1.068 -4.042,-1.463 -2.506,-1.782C-0.97,-2.102 -0.021,-2.323 0,-2.249" style="fill:rgb(26,46,53);fill-rule:nonzero;"/>
                    </g>
                    <g transform="matrix(0.754343,0,0,0.754343,165.775,241.803)">
                        <path d="M0,-15.082C0.069,-15.067 -0.045,-14.203 -0.303,-12.82C-0.561,-11.437 -0.967,-9.537 -1.478,-7.453C-1.989,-5.368 -2.509,-3.495 -2.92,-2.15C-3.331,-0.804 -3.629,0.015 -3.698,-0.004C-3.768,-0.024 -3.595,-0.877 -3.275,-2.246C-2.897,-3.806 -2.463,-5.598 -1.983,-7.577C-1.493,-9.552 -1.049,-11.341 -0.663,-12.9C-0.313,-14.26 -0.071,-15.097 0,-15.082" style="fill:rgb(26,46,53);fill-rule:nonzero;"/>
                    </g>
                    <g transform="matrix(0.198526,-0.727751,-0.727751,-0.198526,130.388,241.355)">
                        <path d="M-6.762,-5.164C-6.906,-5.164 -7.023,-2.026 -7.022,1.844C-7.022,5.716 -6.906,8.853 -6.762,8.853C-6.617,8.853 -6.502,5.716 -6.501,1.845C-6.501,-2.026 -6.617,-5.164 -6.762,-5.164" style="fill:rgb(26,46,53);fill-rule:nonzero;"/>
                    </g>
                    <g transform="matrix(0.754343,0,0,0.754343,168.045,209.169)">
                        <path d="M0,19.855C0,19.879 -0.411,19.922 -1.148,19.849C-1.881,19.773 -2.954,19.603 -4.197,19.122C-5.441,18.656 -6.855,17.877 -8.176,16.699C-9.498,15.526 -10.678,13.912 -11.431,12.012C-12.196,10.115 -12.447,8.137 -12.327,6.376C-12.211,4.618 -11.746,3.029 -10.958,1.916C-10.18,0.788 -9.147,0.241 -8.428,0.052C-8.063,-0.044 -7.77,-0.067 -7.574,-0.062C-7.377,-0.057 -7.275,-0.036 -7.276,-0.02C-7.273,0.03 -7.69,0.006 -8.367,0.245C-9.031,0.483 -9.965,1.044 -10.653,2.121C-12.014,4.261 -12.394,8.168 -10.947,11.819C-10.222,13.645 -9.107,15.196 -7.853,16.344C-6.6,17.497 -5.252,18.284 -4.06,18.78C-1.657,19.777 0.018,19.744 0,19.855" style="fill:rgb(26,46,53);fill-rule:nonzero;"/>
                    </g>
                    <g transform="matrix(0.754343,0,0,0.754343,157.955,184.979)">
                        <path d="M0,32.077C0.109,29.845 0.343,27.324 0.343,27.324C0.343,27.324 5.861,26.715 6.196,21.015C6.531,15.314 6.196,2.169 6.196,2.169L-3.854,-2.949L-14.911,5.775L-13.235,34.277L-3.062,34.924C-1.459,35.026 -0.082,33.748 0,32.077" style="fill:rgb(255,191,157);fill-rule:nonzero;"/>
                    </g>
                    <g transform="matrix(0.754343,0,0,0.754343,158.705,195.371)">
                        <path d="M0,2.729C0.016,2.733 0.017,2.835 -0.087,2.974C-0.189,3.108 -0.412,3.26 -0.722,3.254C-1.363,3.223 -1.979,2.515 -2.207,1.651C-2.32,1.212 -2.32,0.767 -2.234,0.384C-2.166,0.006 -1.948,-0.372 -1.634,-0.475C-1.484,-0.531 -1.328,-0.525 -1.209,-0.465C-1.092,-0.407 -1.021,-0.317 -0.983,-0.236C-0.909,-0.066 -0.967,0.037 -0.981,0.029C-1.004,0.027 -0.998,-0.066 -1.082,-0.173C-1.16,-0.282 -1.348,-0.381 -1.556,-0.273C-1.768,-0.177 -1.914,0.094 -1.967,0.441C-2.03,0.786 -2.022,1.18 -1.921,1.571C-1.721,2.346 -1.184,2.979 -0.707,3.037C-0.47,3.067 -0.274,2.976 -0.168,2.889C-0.06,2.8 -0.021,2.72 0,2.729" style="fill:rgb(255,154,108);fill-rule:nonzero;"/>
                    </g>
                    <g transform="matrix(0.754343,0,0,0.754343,165.214,235.504)">
                        <path d="M0,-67.887C-0.769,-70.512 -3.558,-71.815 -6.1,-72.535C-9.966,-73.631 -14.156,-74.116 -17.934,-72.725C-21.712,-71.334 -26.255,-68.887 -26.254,-64.713C-28.484,-64.896 -29.758,-62.942 -30.644,-60.521C-31.167,-59.092 -31.51,-57.499 -31.592,-55.922L-31.628,-55.934C-31.915,-50.471 -33.437,-42.944 -36.979,-38.904C-38.935,-36.673 -41.751,-35.131 -42.891,-32.353C-43.882,-29.938 -43.369,-27.084 -44.306,-24.646C-45.133,-22.494 -46.964,-20.966 -48.277,-19.094C-51.136,-15.016 -51.331,-9.255 -49.23,-4.704C-47.129,-0.153 -42.966,3.177 -38.345,4.703C-33.724,6.229 -28.69,6.061 -23.987,4.837C-20.515,3.932 -17.137,2.436 -14.37,0.072C-11.603,-2.293 -9.48,-5.581 -8.847,-9.25C-8.143,-13.335 -9.286,-17.483 -10.127,-21.54C-12.788,-34.376 -12.028,-35.043 -8.67,-46.949C-8.595,-47.158 -8.548,-47.377 -8.49,-47.593C-8.445,-47.751 -8.403,-47.902 -8.357,-48.064L-8.364,-48.067C-8.271,-48.533 -8.209,-49.007 -8.207,-49.491C-9.179,-49.108 -10.354,-49.362 -11.099,-50.116C-11.844,-50.87 -12.122,-52.086 -11.782,-53.109C-11.392,-54.286 -10.312,-55.073 -9.203,-55.539C-8.094,-56.006 -6.901,-56.237 -5.812,-56.755C-3.503,-57.853 -1.903,-60.134 -0.813,-62.523C-0.05,-64.197 0.519,-66.115 0,-67.887" style="fill:rgb(26,46,53);fill-rule:nonzero;"/>
                    </g>
                    <g transform="matrix(0.754343,0,0,0.754343,159.003,200.592)">
                        <path d="M0,-3.948C0.035,-3.963 0.229,-3.591 0.526,-2.96C0.823,-2.328 1.222,-1.437 1.664,-0.413L1.748,-0.219L1.536,-0.201C1.202,-0.173 0.865,-0.144 0.518,-0.114C-0.18,-0.068 -0.762,0.015 -1.438,0.008C-1.545,-0.011 -1.664,-0.109 -1.696,-0.219C-1.732,-0.327 -1.722,-0.418 -1.711,-0.497C-1.682,-0.654 -1.648,-0.77 -1.617,-0.903L-1.44,-1.611C-1.219,-2.475 -1.062,-3.004 -1.02,-2.995C-0.978,-2.985 -1.059,-2.438 -1.225,-1.563L-1.364,-0.847C-1.416,-0.606 -1.503,-0.244 -1.373,-0.272C-0.875,-0.294 -0.166,-0.377 0.492,-0.425C0.84,-0.453 1.177,-0.479 1.51,-0.506L1.382,-0.294C0.954,-1.323 0.591,-2.23 0.344,-2.882C0.097,-3.534 -0.035,-3.933 0,-3.948" style="fill:rgb(147,154,244);fill-rule:nonzero;"/>
                    </g>
                    <g transform="matrix(0.754343,0,0,0.754343,133.18,383.9)">
                        <path d="M0,-162.752L44.34,-164.105L63.625,-88.766L60.073,-2.347L36.604,-2.347L39.513,-86.926L22.361,-139.372L25.003,1.004L1.31,1.353L-1.187,-130.595C-1.291,-134.262 -2.498,-142.536 -2.048,-146.174L0,-162.752Z" style="fill:rgb(75,67,111);fill-rule:nonzero;"/>
                    </g>
                    <g transform="matrix(0.754343,0,0,0.754343,18.252,48.275)">
                        <g opacity="0.2">
                            <g transform="matrix(1,0,0,1,152.158,283.439)">
                                <path d="M0,0.324C1.072,1.833 2.601,2.362 4.377,2.653C6.154,2.944 7.966,2.75 9.755,2.552C21.2,1.282 33.328,0.11 44.537,-2.62C30.028,-1.807 14.706,-2.081 0.197,-1.268C0.197,-1.268 0.073,-0.27 0.044,-0.03" style="fill-rule:nonzero;"/>
                            </g>
                        </g>
                    </g>
                    <g transform="matrix(0.754343,0,0,0.754343,18.252,48.275)">
                        <g opacity="0.2">
                            <g transform="matrix(1,0,0,1,167.114,335.946)">
                                <path d="M0,-31.732L8.174,0L7.602,-30.395L0,-31.732Z" style="fill-rule:nonzero;"/>
                            </g>
                        </g>
                    </g>
                </g>
            </g>
        </g>
        <g id="Padlock">
        </g>
        <g id="Speech-Bubble" serif:id="Speech Bubble">
        </g>
    </g>
</svg>
