<?xml version="1.0" encoding="UTF-8" standalone="no"?>
<!DOCTYPE svg PUBLIC "-//W3C//DTD SVG 1.1//EN" "http://www.w3.org/Graphics/SVG/1.1/DTD/svg11.dtd">
<svg width="100%" height="100%" viewBox="0 0 500 500" version="1.1" xmlns="http://www.w3.org/2000/svg" xmlns:xlink="http://www.w3.org/1999/xlink" xml:space="preserve" xmlns:serif="http://www.serif.com/" style="fill-rule:evenodd;clip-rule:evenodd;stroke-linecap:round;stroke-linejoin:round;stroke-miterlimit:1.5;">
    <g transform="matrix(1,0,0,1,0,-1081.77)">
        <g id="Artboard1" transform="matrix(1,0,0,1,0,1081.77)">
            <rect x="0" y="0" width="499.999" height="500" style="fill:none;"/>
            <g transform="matrix(1,0,0,1,-11.453,-65.4534)">
                <path d="M85.026,453C68.756,424.533 59.453,391.571 59.453,356.453C59.453,248.83 146.83,161.453 254.453,161.453C362.076,161.453 449.453,248.83 449.453,356.453C449.453,391.571 440.15,424.533 423.88,453L85.026,453Z" style="fill:rgb(220,245,226);"/>
            </g>
            <g transform="matrix(1,0,0,1,404.104,273.723)">
                <path d="M0,103.336C-15.448,92.543 -18.953,72.51 -18.342,54.502C-18.24,51.496 -18.57,48.327 -17.141,45.69C-15.71,43.053 -12.374,41.25 -9.683,42.517C-7.45,43.567 -6.478,46.164 -5.229,48.312C-3.567,51.169 -1.092,53.533 1.821,55.045C3.735,56.038 6.104,56.646 7.993,55.604C10.586,54.173 10.892,50.591 10.873,47.601C10.838,42.028 10.804,36.456 10.769,30.885C10.75,27.896 10.741,24.843 11.671,22.005C12.601,19.168 14.655,16.532 17.499,15.735C20.344,14.939 23.86,16.579 24.461,19.505C24.711,20.723 24.463,21.987 24.546,23.228C24.629,24.469 25.207,25.842 26.386,26.188C27.579,26.538 28.775,25.69 29.669,24.815C32.755,21.797 34.849,17.908 36.806,14.041C38.763,10.174 40.662,6.215 43.462,2.922C46.262,-0.37 50.135,-2.979 54.416,-3.222C58.698,-3.464 63.26,-0.821 64.342,3.382C65.427,7.597 62.968,11.873 60.292,15.285C56.322,20.347 51.626,24.823 46.397,28.529C45.455,29.198 44.434,29.921 44.073,31.028C43.424,33.022 45.313,35.001 47.28,35.656C49.509,36.398 51.927,36.167 54.258,36.441C56.589,36.716 59.114,37.744 59.996,39.947C61.221,43.003 58.665,46.206 56.15,48.304C51.115,52.505 45.365,55.823 39.231,58.07C37.032,58.875 34.718,59.581 32.944,61.126C31.171,62.672 30.101,65.358 31.172,67.464C32.244,69.572 34.994,70.246 37.298,69.818C39.601,69.392 41.663,68.141 43.858,67.313C47.967,65.762 53.272,66.045 55.904,69.596C57.634,71.93 57.786,75.18 56.911,77.962C56.037,80.744 54.263,83.141 52.379,85.351C45.794,93.076 37.364,99.296 27.833,102.601C18.303,105.905 9.472,106.8 0,103.336" style="fill:rgb(147,154,244);fill-rule:nonzero;"/>
            </g>
            <g transform="matrix(0.197061,0,0,0.197061,-42.6634,50.0435)">
                <g transform="matrix(-1,0,0,1,3124.57,0)">
                    <path d="M898.268,1550.61C898.268,1550.61 948.857,1557.09 977.772,1603L971.6,1607.21C971.6,1607.21 932.84,1564.69 901.488,1557.11C870.137,1549.52 898.268,1550.61 898.268,1550.61Z" style="fill:rgb(130,179,120);fill-rule:nonzero;"/>
                </g>
                <g transform="matrix(-1,0,0,1,3124.57,0)">
                    <path d="M920.569,1424.95C920.569,1424.95 971.738,1502.65 942.567,1597.24L929.402,1593.7C929.402,1593.7 942.181,1489.52 915.41,1437.12C888.639,1384.72 920.569,1424.95 920.569,1424.95Z" style="fill:rgb(130,179,120);fill-rule:nonzero;"/>
                </g>
                <g transform="matrix(-1,0,0,1,3124.57,0)">
                    <path d="M1009.41,754.397L832.107,1671.01C828.501,1689.66 842.784,1706.97 861.772,1706.97L955.28,1706.97L1009.41,754.397Z" style="fill:rgb(82,71,135);fill-rule:nonzero;"/>
                </g>
                <g transform="matrix(-1,0,0,1,3124.57,0)">
                    <path d="M2161.39,1095.73C2161.39,1095.73 2122.7,1147.72 2139.21,1214.65L2148.51,1212.72C2148.51,1212.72 2143.78,1139.77 2164.49,1104.4C2185.2,1069.03 2161.39,1095.73 2161.39,1095.73Z" style="fill:rgb(199,220,251);fill-rule:nonzero;"/>
                </g>
                <g transform="matrix(-1,0,0,1,3124.57,0)">
                    <path d="M1976.21,906.387C1976.21,906.387 1951.8,988.786 2002.93,1064.58L2013.62,1057.93C2013.62,1057.93 1974.41,969.259 1984.03,915.767C1993.66,862.275 1976.21,906.387 1976.21,906.387Z" style="fill:rgb(223,235,253);fill-rule:nonzero;"/>
                </g>
                <g transform="matrix(-1,0,0,1,3124.57,0)">
                    <path d="M1011.54,750.688L894.02,1650.66C890.123,1680.5 913.355,1706.97 943.45,1706.97L1115.85,1706.97L1018.65,747.438L1011.54,750.688Z" style="fill:rgb(106,94,170);fill-rule:nonzero;"/>
                </g>
                <g transform="matrix(-1,0,0,1,3124.57,0)">
                    <path d="M1011.54,750.688L958.93,1644.92C956.95,1678.58 983.712,1706.97 1017.43,1706.97L1274.55,1706.97L1011.54,750.688Z" style="fill:rgb(127,117,182);fill-rule:nonzero;"/>
                </g>
                <g transform="matrix(-1,0,0,1,3124.57,0)">
                    <path d="M1009.56,757.988L1035.14,1644.92C1033.16,1678.58 1059.92,1706.97 1093.64,1706.97L1350.76,1706.97L1009.56,757.988Z" style="fill:rgb(156,186,232);fill-rule:nonzero;"/>
                </g>
                <g transform="matrix(-1,0,0,1,3124.57,0)">
                    <path d="M2240.59,1706.97L1226.79,1706.97C1201.48,1706.97 1179.78,1688.88 1175.23,1663.98L1020.97,820.36C1013.96,782.058 1043.38,746.773 1082.32,746.773L2084.18,746.773C2109.49,746.773 2131.19,764.861 2135.74,789.761L2292.15,1645.12C2298.04,1677.31 2273.32,1706.97 2240.59,1706.97Z" style="fill:rgb(146,153,244);fill-rule:nonzero;"/>
                </g>
                <g transform="matrix(-1,0,0,1,3124.57,0)">
                    <path d="M1041.04,929.921L2162.08,929.921L2133.33,770.642C2130.84,756.824 2118.81,746.773 2104.77,746.773L1018.91,746.773C1012.98,746.773 1008.5,752.15 1009.56,757.988L1041.04,929.921Z" style="fill:rgb(82,71,135);fill-rule:nonzero;"/>
                </g>
                <g transform="matrix(-1,0,0,1,3124.57,0)">
                    <path d="M1067.25,698.842C1040.44,698.842 1018.64,720.633 1018.64,747.434L1027.98,747.434C1027.98,725.781 1045.59,708.168 1067.25,708.168C1088.9,708.168 1106.52,725.781 1106.52,747.434C1106.52,751.783 1105.82,755.961 1104.5,759.865C1100.65,771.405 1091.57,780.571 1080.09,784.543C1076.73,785.708 1073.18,786.438 1069.48,786.644L1069.48,795.981C1073.8,795.787 1077.95,795.034 1081.9,793.778C1097.67,788.79 1109.98,775.948 1114.24,759.865C1115.29,755.893 1115.85,751.726 1115.85,747.434C1115.85,720.633 1094.05,698.842 1067.25,698.842Z" style="fill:white;fill-rule:nonzero;"/>
                </g>
                <g transform="matrix(-1,0,0,1,3124.57,0)">
                    <path d="M1082.28,790.97C1082.28,791.94 1082.14,792.888 1081.9,793.778C1080.67,798.229 1076.6,801.494 1071.76,801.494C1065.95,801.494 1061.23,796.78 1061.23,790.97C1061.23,785.16 1065.95,780.445 1071.76,780.445C1075.15,780.445 1078.16,782.055 1080.09,784.543C1081.47,786.324 1082.28,788.55 1082.28,790.97Z" style="fill:white;fill-rule:nonzero;"/>
                </g>
                <g transform="matrix(-1,0,0,1,3124.57,0)">
                    <path d="M1241.5,698.842C1214.7,698.842 1192.9,720.633 1192.9,747.434L1202.23,747.434C1202.23,725.781 1219.85,708.168 1241.5,708.168C1263.16,708.168 1280.77,725.781 1280.77,747.434C1280.77,751.783 1280.06,755.961 1278.75,759.865C1274.89,771.405 1265.82,780.571 1254.34,784.543C1250.99,785.708 1247.43,786.438 1243.73,786.644L1243.73,795.981C1248.04,795.787 1252.2,795.034 1256.15,793.778C1271.92,788.79 1284.24,775.948 1288.5,759.865C1289.55,755.893 1290.11,751.726 1290.11,747.434C1290.11,720.633 1268.3,698.842 1241.5,698.842Z" style="fill:white;fill-rule:nonzero;"/>
                </g>
                <g transform="matrix(-1,0,0,1,3124.57,0)">
                    <path d="M1256.52,790.97C1256.52,791.94 1256.39,792.888 1256.15,793.778C1254.92,798.229 1250.85,801.494 1246,801.494C1240.19,801.494 1235.48,796.78 1235.48,790.97C1235.48,785.16 1240.19,780.445 1246,780.445C1249.4,780.445 1252.42,782.055 1254.34,784.543C1255.71,786.324 1256.52,788.55 1256.52,790.97Z" style="fill:white;fill-rule:nonzero;"/>
                </g>
                <g transform="matrix(-1,0,0,1,3124.57,0)">
                    <path d="M1415.76,698.842C1388.96,698.842 1367.16,720.633 1367.16,747.434L1376.48,747.434C1376.48,725.781 1394.09,708.168 1415.76,708.168C1437.41,708.168 1455.03,725.781 1455.03,747.434C1455.03,751.783 1454.32,755.961 1453,759.865C1449.15,771.405 1440.07,780.571 1428.6,784.543C1425.24,785.708 1421.68,786.438 1417.98,786.644L1417.98,795.981C1422.29,795.787 1426.45,795.034 1430.4,793.778C1446.18,788.778 1458.48,775.948 1462.74,759.865C1463.79,755.893 1464.35,751.726 1464.35,747.434C1464.35,720.633 1442.55,698.842 1415.76,698.842Z" style="fill:white;fill-rule:nonzero;"/>
                </g>
                <g transform="matrix(-1,0,0,1,3124.57,0)">
                    <path d="M1430.78,790.97C1430.78,791.94 1430.64,792.888 1430.4,793.778C1429.17,798.229 1425.1,801.494 1420.26,801.494C1414.45,801.494 1409.73,796.78 1409.73,790.97C1409.73,785.16 1414.45,780.445 1420.26,780.445C1423.65,780.445 1426.66,782.055 1428.6,784.543C1429.97,786.324 1430.78,788.55 1430.78,790.97Z" style="fill:white;fill-rule:nonzero;"/>
                </g>
                <g transform="matrix(-1,0,0,1,3124.57,0)">
                    <path d="M1590,698.842C1563.2,698.842 1541.41,720.633 1541.41,747.434L1550.74,747.434C1550.74,725.781 1568.35,708.168 1590,708.168C1611.66,708.168 1629.28,725.781 1629.28,747.434C1629.28,751.783 1628.57,755.961 1627.26,759.865C1623.4,771.405 1614.33,780.571 1602.85,784.543C1599.49,785.708 1595.94,786.438 1592.24,786.644L1592.24,795.981C1596.54,795.787 1600.71,795.034 1604.66,793.778C1620.44,788.778 1632.74,775.948 1637,759.865C1638.05,755.893 1638.61,751.726 1638.61,747.434C1638.61,720.633 1616.81,698.842 1590,698.842Z" style="fill:white;fill-rule:nonzero;"/>
                </g>
                <g transform="matrix(-1,0,0,1,3124.57,0)">
                    <path d="M1605.04,790.97C1605.04,791.94 1604.9,792.888 1604.66,793.778C1603.43,798.229 1599.35,801.494 1594.51,801.494C1588.7,801.494 1583.99,796.78 1583.99,790.97C1583.99,785.16 1588.7,780.445 1594.51,780.445C1597.9,780.445 1600.92,782.055 1602.85,784.543C1604.23,786.324 1605.04,788.55 1605.04,790.97Z" style="fill:white;fill-rule:nonzero;"/>
                </g>
                <g transform="matrix(-1,0,0,1,3124.57,0)">
                    <path d="M1764.26,698.842C1737.46,698.842 1715.66,720.633 1715.66,747.434L1724.98,747.434C1724.98,725.781 1742.61,708.168 1764.26,708.168C1785.91,708.168 1803.53,725.781 1803.53,747.434C1803.53,751.783 1802.82,755.961 1801.51,759.865C1797.65,771.405 1788.57,780.571 1777.09,784.543C1773.75,785.708 1770.18,786.438 1766.49,786.644L1766.49,795.981C1770.8,795.787 1774.96,795.034 1778.9,793.778C1794.68,788.79 1807,775.948 1811.25,759.865C1812.3,755.893 1812.86,751.726 1812.86,747.434C1812.86,720.633 1791.06,698.842 1764.26,698.842Z" style="fill:white;fill-rule:nonzero;"/>
                </g>
                <g transform="matrix(-1,0,0,1,3124.57,0)">
                    <path d="M1779.28,790.97C1779.28,791.94 1779.14,792.888 1778.9,793.778C1777.67,798.229 1773.61,801.494 1768.76,801.494C1762.95,801.494 1758.23,796.78 1758.23,790.97C1758.23,785.16 1762.95,780.445 1768.76,780.445C1772.16,780.445 1775.17,782.055 1777.09,784.543C1778.47,786.324 1779.28,788.55 1779.28,790.97Z" style="fill:white;fill-rule:nonzero;"/>
                </g>
                <g transform="matrix(-1,0,0,1,3124.57,0)">
                    <path d="M1938.52,698.842C1911.71,698.842 1889.91,720.633 1889.91,747.434L1899.24,747.434C1899.24,725.781 1916.85,708.168 1938.52,708.168C1960.17,708.168 1977.78,725.781 1977.78,747.434C1977.78,751.783 1977.07,755.961 1975.76,759.865C1971.9,771.405 1962.83,780.571 1951.35,784.543C1948,785.708 1944.44,786.438 1940.74,786.644L1940.74,795.981C1945.06,795.787 1949.21,795.034 1953.16,793.778C1968.92,788.79 1981.24,775.948 1985.5,759.865C1986.55,755.893 1987.11,751.726 1987.11,747.434C1987.11,720.633 1965.31,698.842 1938.52,698.842Z" style="fill:white;fill-rule:nonzero;"/>
                </g>
                <g transform="matrix(-1,0,0,1,3124.57,0)">
                    <path d="M1953.54,790.97C1953.54,791.94 1953.4,792.888 1953.16,793.778C1951.93,798.229 1947.85,801.494 1943.01,801.494C1937.2,801.494 1932.49,796.78 1932.49,790.97C1932.49,785.16 1937.2,780.445 1943.01,780.445C1946.4,780.445 1949.42,782.055 1951.35,784.543C1952.73,786.324 1953.54,788.55 1953.54,790.97Z" style="fill:white;fill-rule:nonzero;"/>
                </g>
                <g transform="matrix(-1,0,0,1,3124.57,0)">
                    <path d="M2112.76,698.842C2085.96,698.842 2064.17,720.633 2064.17,747.434L2073.49,747.434C2073.49,725.781 2091.11,708.168 2112.76,708.168C2134.41,708.168 2152.04,725.781 2152.04,747.434C2152.04,751.783 2151.33,755.961 2150.02,759.865C2146.16,771.405 2137.09,780.571 2125.6,784.543C2122.25,785.708 2118.7,786.438 2115,786.644L2115,795.981C2119.31,795.787 2123.47,795.034 2127.42,793.778C2143.18,788.79 2155.5,775.948 2159.75,759.865C2160.8,755.893 2161.36,751.726 2161.36,747.434C2161.36,720.633 2139.56,698.842 2112.76,698.842Z" style="fill:white;fill-rule:nonzero;"/>
                </g>
                <g transform="matrix(-1,0,0,1,3124.57,0)">
                    <path d="M2127.79,790.97C2127.79,791.94 2127.66,792.888 2127.42,793.778C2126.18,798.229 2122.11,801.494 2117.27,801.494C2111.46,801.494 2106.75,796.78 2106.75,790.97C2106.75,785.16 2111.46,780.445 2117.27,780.445C2120.66,780.445 2123.67,782.055 2125.6,784.543C2126.98,786.324 2127.79,788.55 2127.79,790.97Z" style="fill:white;fill-rule:nonzero;"/>
                </g>
                <g transform="matrix(-1,0,0,1,3124.57,0)">
                    <path d="M1689.32,1229.14L1632.65,1229.14C1626.1,1229.14 1619.71,1223.79 1618.44,1217.23L1607.51,1160.56C1606.25,1154.01 1610.57,1148.65 1617.13,1148.65L1673.8,1148.65C1680.35,1148.65 1686.74,1154.01 1688,1160.56L1698.94,1217.23C1700.2,1223.79 1695.87,1229.14 1689.32,1229.14Z" style="fill:white;fill-rule:nonzero;"/>
                </g>
                <g transform="matrix(-1,0,0,1,3124.57,0)">
                    <path d="M1832.32,1229.14L1775.65,1229.14C1769.1,1229.14 1762.71,1223.79 1761.45,1217.23L1750.51,1160.56C1749.25,1154.01 1753.58,1148.65 1760.13,1148.65L1816.8,1148.65C1823.35,1148.65 1829.74,1154.01 1831.01,1160.56L1841.94,1217.23C1843.2,1223.79 1838.88,1229.14 1832.32,1229.14Z" style="fill:white;fill-rule:nonzero;"/>
                </g>
                <g transform="matrix(-1,0,0,1,3124.57,0)">
                    <path d="M1975.33,1229.14L1918.66,1229.14C1912.1,1229.14 1905.71,1223.79 1904.45,1217.23L1893.52,1160.56C1892.25,1154.01 1896.58,1148.65 1903.13,1148.65L1959.8,1148.65C1966.35,1148.65 1972.74,1154.01 1974.01,1160.56L1984.94,1217.23C1986.2,1223.79 1981.88,1229.14 1975.33,1229.14Z" style="fill:white;fill-rule:nonzero;"/>
                </g>
                <g transform="matrix(-1,0,0,1,3124.57,0)">
                    <path d="M1260.32,1229.14L1203.65,1229.14C1197.1,1229.14 1190.7,1223.79 1189.44,1217.23L1178.51,1160.56C1177.24,1154.01 1181.57,1148.65 1188.12,1148.65L1244.79,1148.65C1251.34,1148.65 1257.74,1154.01 1259,1160.56L1269.93,1217.23C1271.2,1223.79 1266.87,1229.14 1260.32,1229.14Z" style="fill:white;fill-rule:nonzero;"/>
                </g>
                <g transform="matrix(-1,0,0,1,3124.57,0)">
                    <path d="M1403.32,1229.14L1346.65,1229.14C1340.1,1229.14 1333.7,1223.79 1332.44,1217.23L1321.51,1160.56C1320.25,1154.01 1324.57,1148.65 1331.12,1148.65L1387.79,1148.65C1394.34,1148.65 1400.74,1154.01 1402,1160.56L1412.93,1217.23C1414.2,1223.79 1409.87,1229.14 1403.32,1229.14Z" style="fill:white;fill-rule:nonzero;"/>
                </g>
                <g transform="matrix(-1,0,0,1,3124.57,0)">
                    <path d="M1546.32,1229.14L1489.65,1229.14C1483.1,1229.14 1476.71,1223.79 1475.44,1217.23L1464.51,1160.56C1463.25,1154.01 1467.57,1148.65 1474.12,1148.65L1530.79,1148.65C1537.35,1148.65 1543.74,1154.01 1545,1160.56L1555.93,1217.23C1557.2,1223.79 1552.87,1229.14 1546.32,1229.14Z" style="fill:white;fill-rule:nonzero;"/>
                </g>
                <g transform="matrix(-1,0,0,1,3124.57,0)">
                    <path d="M2118.33,1229.14L2061.66,1229.14C2055.11,1229.14 2048.71,1223.79 2047.45,1217.23L2036.52,1160.56C2035.25,1154.01 2039.58,1148.65 2046.13,1148.65L2102.8,1148.65C2109.35,1148.65 2115.75,1154.01 2117.01,1160.56L2127.94,1217.23C2129.21,1223.79 2124.88,1229.14 2118.33,1229.14Z" style="fill:white;fill-rule:nonzero;"/>
                </g>
                <g transform="matrix(-1,0,0,1,3124.57,0)">
                    <path d="M1665.58,1106.06L1608.91,1106.06C1602.36,1106.06 1595.96,1100.7 1594.7,1094.15L1583.77,1037.48C1582.51,1030.93 1586.83,1025.57 1593.38,1025.57L1650.05,1025.57C1656.6,1025.57 1663,1030.93 1664.26,1037.48L1675.19,1094.15C1676.46,1100.7 1672.13,1106.06 1665.58,1106.06Z" style="fill:white;fill-rule:nonzero;"/>
                </g>
                <g transform="matrix(-1,0,0,1,3124.57,0)">
                    <path d="M1808.58,1106.06L1751.91,1106.06C1745.36,1106.06 1738.97,1100.7 1737.7,1094.15L1726.77,1037.48C1725.51,1030.93 1729.83,1025.57 1736.38,1025.57L1793.05,1025.57C1799.61,1025.57 1806,1030.93 1807.26,1037.48L1818.2,1094.15C1819.46,1100.7 1815.13,1106.06 1808.58,1106.06Z" style="fill:white;fill-rule:nonzero;"/>
                </g>
                <g transform="matrix(-1,0,0,1,3124.57,0)">
                    <path d="M1951.58,1106.06L1894.91,1106.06C1888.36,1106.06 1881.97,1100.7 1880.71,1094.15L1869.77,1037.48C1868.51,1030.93 1872.84,1025.57 1879.39,1025.57L1936.06,1025.57C1942.61,1025.57 1949,1030.93 1950.27,1037.48L1961.2,1094.15C1962.46,1100.7 1958.13,1106.06 1951.58,1106.06Z" style="fill:white;fill-rule:nonzero;"/>
                </g>
                <g transform="matrix(-1,0,0,1,3124.57,0)">
                    <path d="M2094.59,1106.06L2037.92,1106.06C2031.36,1106.06 2024.97,1100.7 2023.71,1094.15L2012.77,1037.48C2011.51,1030.93 2015.84,1025.57 2022.39,1025.57L2079.06,1025.57C2085.61,1025.57 2092,1030.93 2093.27,1037.48L2104.2,1094.15C2105.46,1100.7 2101.14,1106.06 2094.59,1106.06Z" style="fill:white;fill-rule:nonzero;"/>
                </g>
                <g transform="matrix(-1,0,0,1,3124.57,0)">
                    <path d="M1714.49,1359.6L1657.82,1359.6C1651.27,1359.6 1644.87,1354.24 1643.61,1347.69L1632.68,1291.02C1631.41,1284.47 1635.74,1279.11 1642.29,1279.11L1698.96,1279.11C1705.51,1279.11 1711.91,1284.47 1713.17,1291.02L1724.1,1347.69C1725.36,1354.24 1721.04,1359.6 1714.49,1359.6Z" style="fill:white;fill-rule:nonzero;"/>
                </g>
                <g transform="matrix(-1,0,0,1,3124.57,0)">
                    <path d="M1857.49,1359.6L1800.82,1359.6C1794.27,1359.6 1787.87,1354.24 1786.61,1347.69L1775.68,1291.02C1774.41,1284.47 1778.74,1279.11 1785.29,1279.11L1841.96,1279.11C1848.51,1279.11 1854.91,1284.47 1856.17,1291.02L1867.1,1347.69C1868.37,1354.24 1864.04,1359.6 1857.49,1359.6Z" style="fill:white;fill-rule:nonzero;"/>
                </g>
                <g transform="matrix(-1,0,0,1,3124.57,0)">
                    <path d="M2000.49,1359.6L1943.82,1359.6C1937.27,1359.6 1930.88,1354.24 1929.61,1347.69L1918.68,1291.02C1917.42,1284.47 1921.74,1279.11 1928.29,1279.11L1984.96,1279.11C1991.51,1279.11 1997.91,1284.47 1999.17,1291.02L2010.1,1347.69C2011.37,1354.24 2007.04,1359.6 2000.49,1359.6Z" style="fill:white;fill-rule:nonzero;"/>
                </g>
                <g transform="matrix(-1,0,0,1,3124.57,0)">
                    <path d="M1285.48,1359.6L1228.81,1359.6C1222.26,1359.6 1215.87,1354.24 1214.6,1347.69L1203.67,1291.02C1202.41,1284.47 1206.73,1279.11 1213.29,1279.11L1269.96,1279.11C1276.51,1279.11 1282.9,1284.47 1284.16,1291.02L1295.1,1347.69C1296.36,1354.24 1292.03,1359.6 1285.48,1359.6Z" style="fill:white;fill-rule:nonzero;"/>
                </g>
                <g transform="matrix(-1,0,0,1,3124.57,0)">
                    <path d="M1428.48,1359.6L1371.81,1359.6C1365.26,1359.6 1358.87,1354.24 1357.6,1347.69L1346.67,1291.02C1345.41,1284.47 1349.74,1279.11 1356.29,1279.11L1412.96,1279.11C1419.51,1279.11 1425.9,1284.47 1427.17,1291.02L1438.1,1347.69C1439.36,1354.24 1435.04,1359.6 1428.48,1359.6Z" style="fill:white;fill-rule:nonzero;"/>
                </g>
                <g transform="matrix(-1,0,0,1,3124.57,0)">
                    <path d="M1571.49,1359.6L1514.82,1359.6C1508.26,1359.6 1501.87,1354.24 1500.61,1347.69L1489.67,1291.02C1488.41,1284.47 1492.74,1279.11 1499.29,1279.11L1555.96,1279.11C1562.51,1279.11 1568.9,1284.47 1570.17,1291.02L1581.1,1347.69C1582.36,1354.24 1578.04,1359.6 1571.49,1359.6Z" style="fill:white;fill-rule:nonzero;"/>
                </g>
                <g transform="matrix(-1,0,0,1,3124.57,0)">
                    <path d="M2143.49,1359.6L2086.82,1359.6C2080.27,1359.6 2073.88,1354.24 2072.61,1347.69L2061.68,1291.02C2060.42,1284.47 2064.74,1279.11 2071.29,1279.11L2127.97,1279.11C2134.52,1279.11 2140.91,1284.47 2142.17,1291.02L2153.11,1347.69C2154.37,1354.24 2150.04,1359.6 2143.49,1359.6Z" style="fill:white;fill-rule:nonzero;"/>
                </g>
                <g transform="matrix(-1,0,0,1,3124.57,0)">
                    <path d="M1739.65,1490.05L1682.98,1490.05C1676.43,1490.05 1670.04,1484.69 1668.77,1478.14L1657.84,1421.47C1656.58,1414.92 1660.9,1409.56 1667.45,1409.56L1724.13,1409.56C1730.68,1409.56 1737.07,1414.92 1738.33,1421.47L1749.27,1478.14C1750.53,1484.69 1746.2,1490.05 1739.65,1490.05Z" style="fill:white;fill-rule:nonzero;"/>
                </g>
                <g transform="matrix(-1,0,0,1,3124.57,0)">
                    <path d="M1882.65,1490.05L1825.98,1490.05C1819.43,1490.05 1813.04,1484.69 1811.77,1478.14L1800.84,1421.47C1799.58,1414.92 1803.9,1409.56 1810.46,1409.56L1867.13,1409.56C1873.68,1409.56 1880.07,1414.92 1881.33,1421.47L1892.27,1478.14C1893.53,1484.69 1889.2,1490.05 1882.65,1490.05Z" style="fill:white;fill-rule:nonzero;"/>
                </g>
                <g transform="matrix(-1,0,0,1,3124.57,0)">
                    <path d="M2025.65,1490.05L1968.98,1490.05C1962.43,1490.05 1956.04,1484.69 1954.78,1478.14L1943.84,1421.47C1942.58,1414.92 1946.91,1409.56 1953.46,1409.56L2010.13,1409.56C2016.68,1409.56 2023.07,1414.92 2024.34,1421.47L2035.27,1478.14C2036.53,1484.69 2032.21,1490.05 2025.65,1490.05Z" style="fill:white;fill-rule:nonzero;"/>
                </g>
                <g transform="matrix(-1,0,0,1,3124.57,0)">
                    <path d="M1310.65,1490.05L1253.98,1490.05C1247.42,1490.05 1241.03,1484.69 1239.77,1478.14L1228.84,1421.47C1227.57,1414.92 1231.9,1409.56 1238.45,1409.56L1295.12,1409.56C1301.67,1409.56 1308.06,1414.92 1309.33,1421.47L1320.26,1478.14C1321.52,1484.69 1317.2,1490.05 1310.65,1490.05Z" style="fill:white;fill-rule:nonzero;"/>
                </g>
                <g transform="matrix(-1,0,0,1,3124.57,0)">
                    <path d="M1453.65,1490.05L1396.98,1490.05C1390.43,1490.05 1384.03,1484.69 1382.77,1478.14L1371.84,1421.47C1370.57,1414.92 1374.9,1409.56 1381.45,1409.56L1438.12,1409.56C1444.67,1409.56 1451.07,1414.92 1452.33,1421.47L1463.26,1478.14C1464.53,1484.69 1460.2,1490.05 1453.65,1490.05Z" style="fill:rgb(82,71,135);fill-rule:nonzero;"/>
                </g>
                <g transform="matrix(-1,0,0,1,3124.57,0)">
                    <path d="M1596.65,1490.05L1539.98,1490.05C1533.43,1490.05 1527.03,1484.69 1525.77,1478.14L1514.84,1421.47C1513.58,1414.92 1517.9,1409.56 1524.45,1409.56L1581.12,1409.56C1587.67,1409.56 1594.07,1414.92 1595.33,1421.47L1606.26,1478.14C1607.53,1484.69 1603.2,1490.05 1596.65,1490.05Z" style="fill:white;fill-rule:nonzero;"/>
                </g>
                <g transform="matrix(-1,0,0,1,3124.57,0)">
                    <path d="M2168.66,1490.05L2111.99,1490.05C2105.44,1490.05 2099.04,1484.69 2097.78,1478.14L2086.85,1421.47C2085.58,1414.92 2089.91,1409.56 2096.46,1409.56L2153.13,1409.56C2159.68,1409.56 2166.08,1414.92 2167.34,1421.47L2178.27,1478.14C2179.53,1484.69 2175.21,1490.05 2168.66,1490.05Z" style="fill:white;fill-rule:nonzero;"/>
                </g>
                <g transform="matrix(-1,0,0,1,3124.57,0)">
                    <path d="M1763.39,1613.14L1706.72,1613.14C1700.17,1613.14 1693.78,1607.78 1692.51,1601.23L1681.58,1544.56C1680.32,1538 1684.65,1532.64 1691.2,1532.64L1747.87,1532.64C1754.42,1532.64 1760.81,1538 1762.08,1544.56L1773.01,1601.23C1774.27,1607.78 1769.95,1613.14 1763.39,1613.14Z" style="fill:white;fill-rule:nonzero;"/>
                </g>
                <g transform="matrix(-1,0,0,1,3124.57,0)">
                    <path d="M1906.4,1613.14L1849.73,1613.14C1843.17,1613.14 1836.78,1607.78 1835.52,1601.23L1824.58,1544.56C1823.32,1538 1827.65,1532.64 1834.2,1532.64L1890.87,1532.64C1897.42,1532.64 1903.81,1538 1905.08,1544.56L1916.01,1601.23C1917.27,1607.78 1912.95,1613.14 1906.4,1613.14Z" style="fill:white;fill-rule:nonzero;"/>
                </g>
                <g transform="matrix(-1,0,0,1,3124.57,0)">
                    <path d="M2049.4,1613.14L1992.73,1613.14C1986.18,1613.14 1979.78,1607.78 1978.52,1601.23L1967.59,1544.56C1966.32,1538 1970.65,1532.64 1977.2,1532.64L2033.87,1532.64C2040.42,1532.64 2046.82,1538 2048.08,1544.56L2059.01,1601.23C2060.27,1607.78 2055.95,1613.14 2049.4,1613.14Z" style="fill:white;fill-rule:nonzero;"/>
                </g>
                <g transform="matrix(-1,0,0,1,3124.57,0)">
                    <path d="M1334.39,1613.14L1277.72,1613.14C1271.17,1613.14 1264.77,1607.78 1263.51,1601.23L1252.58,1544.56C1251.31,1538 1255.64,1532.64 1262.19,1532.64L1318.86,1532.64C1325.41,1532.64 1331.81,1538 1333.07,1544.56L1344,1601.23C1345.27,1607.78 1340.94,1613.14 1334.39,1613.14Z" style="fill:white;fill-rule:nonzero;"/>
                </g>
                <g transform="matrix(-1,0,0,1,3124.57,0)">
                    <path d="M1477.39,1613.14L1420.72,1613.14C1414.17,1613.14 1407.77,1607.78 1406.51,1601.23L1395.58,1544.56C1394.32,1538 1398.64,1532.64 1405.19,1532.64L1461.86,1532.64C1468.42,1532.64 1474.81,1538 1476.07,1544.56L1487,1601.23C1488.27,1607.78 1483.94,1613.14 1477.39,1613.14Z" style="fill:white;fill-rule:nonzero;"/>
                </g>
                <g transform="matrix(-1,0,0,1,3124.57,0)">
                    <path d="M1620.39,1613.14L1563.72,1613.14C1557.17,1613.14 1550.78,1607.78 1549.51,1601.23L1538.58,1544.56C1537.32,1538 1541.64,1532.64 1548.2,1532.64L1604.87,1532.64C1611.42,1532.64 1617.81,1538 1619.07,1544.56L1630.01,1601.23C1631.27,1607.78 1626.94,1613.14 1620.39,1613.14Z" style="fill:white;fill-rule:nonzero;"/>
                </g>
                <g transform="matrix(-1,0,0,1,3124.57,0)">
                    <path d="M1208.95,901.248L1157.43,901.248C1153.21,901.248 1149.76,897.795 1149.76,893.575C1149.76,889.355 1153.21,885.902 1157.43,885.902L1208.95,885.902C1213.17,885.902 1216.62,889.355 1216.62,893.575C1216.62,897.795 1213.17,901.248 1208.95,901.248Z" style="fill:white;fill-rule:nonzero;"/>
                </g>
                <g transform="matrix(-1,0,0,1,3124.57,0)">
                    <path d="M1350.32,901.248L1298.8,901.248C1294.58,901.248 1291.12,897.795 1291.12,893.575C1291.12,889.355 1294.58,885.902 1298.8,885.902L1350.32,885.902C1354.54,885.902 1357.99,889.355 1357.99,893.575C1357.99,897.795 1354.54,901.248 1350.32,901.248Z" style="fill:white;fill-rule:nonzero;"/>
                </g>
                <g transform="matrix(-1,0,0,1,3124.57,0)">
                    <path d="M1491.69,901.248L1440.17,901.248C1435.95,901.248 1432.49,897.795 1432.49,893.575C1432.49,889.355 1435.95,885.902 1440.17,885.902L1491.69,885.902C1495.91,885.902 1499.36,889.355 1499.36,893.575C1499.36,897.795 1495.91,901.248 1491.69,901.248Z" style="fill:white;fill-rule:nonzero;"/>
                </g>
                <g transform="matrix(-1,0,0,1,3124.57,0)">
                    <path d="M1633.05,901.248L1581.53,901.248C1577.31,901.248 1573.86,897.795 1573.86,893.575C1573.86,889.355 1577.31,885.902 1581.53,885.902L1633.05,885.902C1637.27,885.902 1640.73,889.355 1640.73,893.575C1640.73,897.795 1637.27,901.248 1633.05,901.248Z" style="fill:white;fill-rule:nonzero;"/>
                </g>
                <g transform="matrix(-1,0,0,1,3124.57,0)">
                    <path d="M1774.42,901.248L1722.9,901.248C1718.68,901.248 1715.23,897.795 1715.23,893.575C1715.23,889.355 1718.68,885.902 1722.9,885.902L1774.42,885.902C1778.64,885.902 1782.09,889.355 1782.09,893.575C1782.09,897.795 1778.64,901.248 1774.42,901.248Z" style="fill:white;fill-rule:nonzero;"/>
                </g>
                <g transform="matrix(-1,0,0,1,3124.57,0)">
                    <path d="M1915.79,901.248L1864.27,901.248C1860.05,901.248 1856.59,897.795 1856.59,893.575C1856.59,889.355 1860.05,885.902 1864.27,885.902L1915.79,885.902C1920.01,885.902 1923.46,889.355 1923.46,893.575C1923.46,897.795 1920.01,901.248 1915.79,901.248Z" style="fill:white;fill-rule:nonzero;"/>
                </g>
                <g transform="matrix(-1,0,0,1,3124.57,0)">
                    <path d="M2057.16,901.248L2005.64,901.248C2001.42,901.248 1997.96,897.795 1997.96,893.575C1997.96,889.355 2001.42,885.902 2005.64,885.902L2057.16,885.902C2061.38,885.902 2064.83,889.355 2064.83,893.575C2064.83,897.795 2061.38,901.248 2057.16,901.248Z" style="fill:white;fill-rule:nonzero;"/>
                </g>
                <g transform="matrix(-1,0,0,1,3124.57,0)">
                    <path d="M1731.31,1107.18C1719.94,1107.18 1711.65,1103.57 1707.14,1096.56C1698.48,1083.12 1705.16,1064.28 1727,1040.57C1742.95,1023.25 1761.58,1009.53 1761.76,1009.39C1762.49,1008.85 1763.52,1009.01 1764.06,1009.74C1764.6,1010.47 1764.44,1011.5 1763.71,1012.04C1762.98,1012.58 1691.19,1065.73 1709.9,1094.78C1715.83,1103.98 1728.52,1104.59 1738.13,1103.48C1755.92,1101.42 1779.11,1091.84 1800.17,1077.85C1821.97,1063.37 1837.33,1047.06 1842.3,1033.08C1845.57,1023.92 1844.56,1017.43 1839.3,1013.79C1832.51,1009.09 1818.32,1009.08 1801.35,1013.78C1785.09,1018.27 1768.73,1026.36 1758.65,1034.89C1757.96,1035.48 1756.92,1035.39 1756.33,1034.7C1755.74,1034.01 1755.83,1032.97 1756.52,1032.38C1766.94,1023.56 1783.78,1015.22 1800.47,1010.61C1818.64,1005.58 1833.47,1005.76 1841.17,1011.08C1845.73,1014.24 1850.16,1020.81 1845.4,1034.19C1840.19,1048.82 1824.37,1065.73 1801.99,1080.59C1780.52,1094.85 1756.79,1104.63 1738.51,1106.74C1735.99,1107.03 1733.59,1107.18 1731.31,1107.18Z" style="fill:rgb(198,84,71);fill-rule:nonzero;"/>
                </g>
            </g>
            <g id="Background-Complete" serif:id="Background Complete">
            </g>
            <g id="Floor">
            </g>
            <g id="Plant">
            </g>
            <g id="Device">
            </g>
            <g id="Character">
            </g>
            <g transform="matrix(1,0,0,1,7.78983,-68.6996)">
                <path d="M54,456L414,456" style="fill:none;stroke:black;stroke-width:1px;"/>
            </g>
            <g transform="matrix(-0.232029,0,0,0.232029,161.051,224.814)">
                <g transform="matrix(1,0,0,1,-1903.32,-1019.03)">
                    <path d="M2028.79,1013.76L2022.94,1002.73C2022.94,1002.73 2025.84,983.063 2001.21,970.626C2001.21,970.626 1992.2,966.96 1987.12,974.304C1982.44,981.067 1996.04,979.846 1995.31,991.417C1994.58,1002.99 2000.07,1009.78 2007.72,1013.55L2014.04,1020.87L2028.79,1013.76Z" style="fill:rgb(255,178,125);fill-rule:nonzero;"/>
                </g>
                <g transform="matrix(1,0,0,1,-1903.32,-1019.03)">
                    <path d="M2261.61,987.381C2261.61,987.381 2240.46,1091.22 2124.03,1125.15C2087.69,1135.74 2005.12,1016.09 2005.12,1016.09C2005.12,1016.09 2008.02,1005.06 2026.21,1007.59C2026.21,1007.59 2106.6,1060.81 2116.72,1066.6C2125.7,1071.73 2184.76,1000.65 2211.69,989.183C2238.61,977.717 2261.61,987.381 2261.61,987.381Z" style="fill:rgb(121,132,242);fill-rule:nonzero;"/>
                </g>
                <g transform="matrix(1,0,0,1,-1903.32,-1019.03)">
                    <path d="M2047.91,962.054L2052.57,987.246L1925.85,1010.71L1921.18,985.521L2047.91,962.054Z" style="fill:rgb(120,132,242);fill-rule:nonzero;"/>
                </g>
                <g transform="matrix(1,0,0,1,-1903.32,-1019.03)">
                    <path d="M1894.05,1003.57L1925.85,1010.71L1921.18,985.521L1894.05,1003.57Z" style="fill:white;fill-rule:nonzero;"/>
                </g>
                <g transform="matrix(1,0,0,1,-1903.32,-1019.03)">
                    <path d="M2064.19,967.683L2065.66,975.647C2066.57,980.546 2063.33,985.253 2058.43,986.161L2052.57,987.246L2047.91,962.054L2054.28,960.873C2058.9,960.018 2063.33,963.067 2064.19,967.683Z" style="fill:white;fill-rule:nonzero;"/>
                </g>
                <g transform="matrix(1,0,0,1,-1903.32,-1019.03)">
                    <path d="M2154.9,1250.51C2154.9,1250.51 2149.57,1299.27 2154.6,1362.46C2161.44,1448.34 2165.62,1491.17 2166.44,1511.15C2167.84,1545.84 2170.75,1683.55 2170.75,1683.55C2170.75,1683.55 2179.84,1685.83 2206.61,1680.28C2206.61,1680.28 2237.21,1612.21 2244.02,1528.39C2244.13,1527.01 2256.08,1490.99 2256.18,1489.6C2262.52,1404.27 2274.49,1243.22 2274.49,1243.22L2154.9,1250.51Z" style="fill:rgb(68,57,113);fill-rule:nonzero;"/>
                </g>
                <g transform="matrix(1,0,0,1,-1879.73,-1019.03)">
                    <path d="M2129.04,1248.26C2129.04,1248.26 2151.71,1277.49 2167.83,1343.07C2191.88,1436.27 2201.49,1456.69 2202.31,1476.67C2203.71,1511.37 2242.93,1670.62 2242.93,1670.62C2242.93,1670.62 2251.37,1678.84 2278.14,1673.29C2278.14,1673.29 2289.04,1557.95 2297.12,1472.37C2298.07,1462.36 2297.05,1363.97 2295.59,1343.07C2301.93,1257.74 2275.57,1213.78 2275.57,1213.78L2129.04,1248.26Z" style="fill:rgb(85,70,138);fill-rule:nonzero;"/>
                </g>
                <g transform="matrix(3.8008,0,0,3.8008,356.902,697.894)">
                    <path d="M0,-10.75L10.607,-10.75C10.993,-10.75 11.341,-10.482 11.445,-10.105L13.751,-1.713C13.99,-0.843 13.35,-0.042 12.457,-0.034C8.719,0 6.947,-0.017 2.283,-0.017L-11.974,-0.017C-15.85,-0.017 -16.66,-3.935 -15.057,-4.29C-7.866,-5.881 -3.721,-8.076 -1.502,-10.169C-1.102,-10.547 -0.565,-10.75 0,-10.75" style="fill:rgb(138,128,188);fill-rule:nonzero;"/>
                </g>
                <g transform="matrix(3.8008,0,0,3.8008,262.959,697.894)">
                    <path d="M0,-10.75L10.607,-10.75C10.993,-10.75 11.341,-10.482 11.445,-10.105L13.751,-1.713C13.99,-0.843 13.35,-0.042 12.457,-0.034C8.719,0 6.947,-0.017 2.283,-0.017L-11.974,-0.017C-15.85,-0.017 -16.66,-3.935 -15.057,-4.29C-7.866,-5.881 -3.721,-8.076 -1.502,-10.169C-1.102,-10.547 -0.565,-10.75 0,-10.75" style="fill:rgb(138,128,188);fill-rule:nonzero;"/>
                </g>
                <g transform="matrix(1,0,0,1,-1903.32,-1019.03)">
                    <path d="M2275.95,963.281C2275.95,963.281 2223.75,988.467 2193.66,979.123C2193.66,979.123 2201.07,969.778 2214.03,962.825C2212.99,956.785 2212.18,951.542 2211.72,947.098C2210.44,936.84 2210.44,931.028 2210.44,931.028L2230.58,915.188L2249.68,900.03C2248.18,942.653 2275.95,963.281 2275.95,963.281Z" style="fill:rgb(255,178,125);fill-rule:nonzero;"/>
                </g>
                <g transform="matrix(1,0,0,1,-1903.32,-1019.03)">
                    <path d="M2151.61,1254.85C2152.53,1255.65 2153.57,1256.1 2154.74,1256.1C2166.08,1255.87 2199.07,1262.13 2226.95,1259.28C2250.56,1257 2271.4,1250.17 2293.74,1240.38C2296.75,1239.01 2303.58,1235.36 2303.46,1232.17C2303.34,1228.52 2303,1223.4 2302.54,1216.78C2301.6,1203.76 2300.29,1185.27 2299.87,1163.35C2299.56,1147.1 2299.73,1128.97 2300.91,1109.76C2300.98,1108.47 2301.05,1107.17 2301.1,1105.87C2301.44,1098.83 2301.6,1091.74 2301.6,1084.81C2301.73,1062.47 2300.11,1041.16 2296.87,1022.13C2291.19,989.076 2280.54,963.211 2264.81,951.696C2262.72,950.096 2249.75,956.361 2237.72,962.18C2226.72,967.538 2215.73,968.107 2205.32,966.06L2194.9,975.174C2182.27,986.676 2168.38,1002.52 2162.25,1026.46C2157.17,1046.75 2154.16,1083.44 2152.53,1121.51C2151.73,1138.83 2151.15,1156.15 2150.92,1172.67L2150.92,1173.24C2150.79,1174.95 2150.79,1176.67 2150.79,1178.38C2150.22,1220.66 2150.79,1254.28 2151.61,1254.85Z" style="fill:rgb(146,153,244);fill-rule:nonzero;"/>
                </g>
                <g transform="matrix(1,0,0,1,-1903.32,-1019.03)">
                    <path d="M2250.03,916.328C2250.03,916.328 2236.83,940.374 2211.72,947.098C2210.44,936.84 2210.44,931.028 2210.44,931.028L2230.58,915.188L2250.03,916.328Z" style="fill:rgb(237,152,95);fill-rule:nonzero;"/>
                </g>
                <g transform="matrix(1,0,0,1,-1903.32,-1019.03)">
                    <path d="M2201.26,930.334C2201.26,930.334 2251.06,938.479 2255.73,907.867C2260.41,877.254 2269.98,857.688 2238.39,851.192C2206.79,844.697 2198.81,855.462 2194.73,865.307C2190.65,875.151 2188.43,927.426 2201.26,930.334Z" style="fill:rgb(255,178,125);fill-rule:nonzero;"/>
                </g>
                <g transform="matrix(-4.3098,0,0,4.3098,740.633,-5644.07)">
                    <path d="M106.13,1273.02C105.956,1274.74 104.584,1275.91 104.289,1274.99C103.582,1274.21 102.648,1274.54 101.849,1273.91C99.007,1271.65 92.255,1274.25 92.255,1274.25C92.255,1274.25 93.074,1277.07 92.744,1278.43C92.64,1278.86 92.558,1279.29 92.509,1279.73C92.492,1279.88 92.48,1280.03 92.47,1280.18C92.464,1280.26 92.524,1280.47 92.456,1280.42C92.394,1280.38 92.333,1279.71 92.299,1279.6C92.01,1278.65 91.439,1277.27 90.12,1277.8C89.323,1278.12 89.366,1279.57 89.488,1280.3C89.715,1281.66 90.235,1281.73 90.876,1282.96C91.087,1283.36 91.328,1284.84 91.4,1285.3C91.436,1285.53 91.355,1285.75 91.306,1285.97C91.238,1286.27 91.203,1286.64 90.961,1286.86C90.365,1287.41 88.978,1286.35 88.554,1285.99C88.066,1285.56 87.549,1285.07 87.236,1284.5C86.181,1282.58 86.016,1279.67 86.157,1277.52C86.204,1276.81 85.853,1275.99 85.75,1275.27C85.628,1274.43 85.29,1274 85.5,1273.18C85.593,1272.82 85.965,1272.39 86,1272.33C86.177,1272.06 86.7,1272.12 86.833,1272.15C87.049,1272.19 86.704,1271.15 86.75,1271.02C87.164,1269.86 87.771,1269.29 88.703,1268.36C89.011,1268.05 89.378,1267.79 89.735,1267.54C89.848,1267.46 89.964,1267.39 90.08,1267.31C90.137,1267.28 90.731,1266.84 90.875,1266.77C91.696,1266.38 92.112,1266.38 92.801,1265.98C94.946,1264.76 102.614,1266.32 103.649,1267.23C104.816,1268.25 105.942,1269.05 106.842,1271.02C107.096,1271.58 107.375,1271.92 107.375,1271.92C106.643,1271.94 106.848,1271.54 106.086,1271.68C106.086,1271.68 106.241,1271.93 106.13,1273.02Z"/>
                </g>
                <g transform="matrix(1,0,0,1,-1903.32,-1019.03)">
                    <path d="M2022.83,1002.2C2022.83,1002.2 2024.55,995.435 2019.85,992.393C2015.16,989.35 2010.84,981.077 2008.86,982.198C2004.76,984.519 2011.1,991.738 2009.94,1000.74C2009.54,1003.9 2016.88,1012.16 2022.83,1002.2Z" style="fill:rgb(255,178,125);fill-rule:nonzero;"/>
                </g>
                <g transform="matrix(1,0,0,1,-1903.32,-1019.03)">
                    <path d="M2299.87,1163.35C2299.56,1147.1 2299.73,1128.97 2300.91,1109.76C2300.98,1108.47 2301.05,1107.17 2301.1,1105.87C2296.37,1082.42 2289.21,1061.61 2278.67,1060.93C2278.67,1060.93 2247.27,1110.28 2299.87,1163.35Z" style="fill:rgb(113,125,241);fill-rule:nonzero;"/>
                </g>
                <g transform="matrix(1,0,0,1,-1903.32,-1019.03)">
                    <path d="M2341.4,1248.44C2341.4,1248.44 2338.78,1273.89 2335.91,1278.7C2333.04,1283.51 2320.81,1298.89 2315.61,1301.91C2310.4,1304.93 2318.79,1281.64 2317.72,1277.11C2316.66,1272.58 2313.44,1285.38 2311.14,1285.68C2308.85,1285.98 2309.44,1274.46 2309.36,1270.27C2309.27,1266.08 2320.52,1255.73 2324.49,1246.81C2328.46,1237.88 2341.4,1248.44 2341.4,1248.44Z" style="fill:rgb(255,178,125);fill-rule:nonzero;"/>
                </g>
                <g transform="matrix(1,0,0,1,-1903.32,-1019.03)">
                    <path d="M2264.78,951.442C2264.78,951.442 2296.29,966.361 2311.4,989.297C2334.83,1024.88 2361.99,1154.54 2362.49,1166.55C2362.99,1178.55 2342.67,1263.32 2342.67,1263.32C2342.67,1263.32 2322.05,1261.97 2316.73,1251.56C2316.73,1251.56 2320.85,1164.46 2318.24,1158.86C2315.63,1153.26 2232.3,1042.03 2241.67,1018.29C2251.04,994.558 2264.78,951.442 2264.78,951.442Z" style="fill:rgb(146,153,244);fill-rule:nonzero;"/>
                </g>
                <g transform="matrix(1,0,0,1,-1903.32,-1019.03)">
                    <path d="M1910.34,992.732L1912,1007.6L1894.05,1003.57L1910.34,992.732Z" style="fill:rgb(82,30,25);fill-rule:nonzero;"/>
                </g>
            </g>
        </g>
        <g id="Padlock">
        </g>
        <g id="Speech-Bubble" serif:id="Speech Bubble">
        </g>
    </g>
</svg>
