<?xml version="1.0" encoding="UTF-8" standalone="no"?>
<!DOCTYPE svg PUBLIC "-//W3C//DTD SVG 1.1//EN" "http://www.w3.org/Graphics/SVG/1.1/DTD/svg11.dtd">
<svg width="100%" height="100%" viewBox="0 0 500 500" version="1.1" xmlns="http://www.w3.org/2000/svg" xmlns:xlink="http://www.w3.org/1999/xlink" xml:space="preserve" xmlns:serif="http://www.serif.com/" style="fill-rule:evenodd;clip-rule:evenodd;stroke-linecap:round;stroke-linejoin:round;stroke-miterlimit:1.5;">
    <g transform="matrix(1,0,0,1,-1071.65,-542.929)">
        <g id="Artboard1" transform="matrix(1,0,0,1,1071.65,542.929)">
            <rect x="0" y="0" width="499.999" height="500" style="fill:none;"/>
            <g transform="matrix(1,0,0,1,-8.45296,-63)">
                <g id="Background-Complete" serif:id="Background Complete">
                    <path d="M85.026,453C68.756,424.533 59.453,391.571 59.453,356.453C59.453,248.83 146.83,161.453 254.453,161.453C362.076,161.453 449.453,248.83 449.453,356.453C449.453,391.571 440.15,424.533 423.88,453L85.026,453Z" style="fill:rgb(220,245,226);"/>
                </g>
            </g>
            <g transform="matrix(1.30567,0.688374,-0.745857,1.4147,310.471,223.353)">
                <path d="M0,103.336C-15.448,92.543 -18.953,72.51 -18.342,54.502C-18.24,51.496 -18.57,48.327 -17.141,45.69C-15.71,43.053 -12.374,41.25 -9.683,42.517C-7.45,43.567 -6.478,46.164 -5.229,48.312C-3.567,51.169 -1.092,53.533 1.821,55.045C3.735,56.038 6.104,56.646 7.993,55.604C10.586,54.173 10.892,50.591 10.873,47.601C10.838,42.028 10.804,36.456 10.769,30.885C10.75,27.896 10.741,24.843 11.671,22.005C12.601,19.168 14.655,16.532 17.499,15.735C20.344,14.939 23.86,16.579 24.461,19.505C24.711,20.723 24.463,21.987 24.546,23.228C24.629,24.469 25.207,25.842 26.386,26.188C27.579,26.538 28.775,25.69 29.669,24.815C32.755,21.797 34.849,17.908 36.806,14.041C38.763,10.174 40.662,6.215 43.462,2.922C46.262,-0.37 50.135,-2.979 54.416,-3.222C58.698,-3.464 63.26,-0.821 64.342,3.382C65.427,7.597 62.968,11.873 60.292,15.285C56.322,20.347 51.626,24.823 46.397,28.529C45.455,29.198 44.434,29.921 44.073,31.028C43.424,33.022 45.313,35.001 47.28,35.656C49.509,36.398 51.927,36.167 54.258,36.441C56.589,36.716 59.114,37.744 59.996,39.947C61.221,43.003 58.665,46.206 56.15,48.304C51.115,52.505 45.365,55.823 39.231,58.07C37.032,58.875 34.718,59.581 32.944,61.126C31.171,62.672 30.101,65.358 31.172,67.464C32.244,69.572 34.994,70.246 37.298,69.818C39.601,69.392 41.663,68.141 43.858,67.313C47.967,65.762 53.272,66.045 55.904,69.596C57.634,71.93 57.786,75.18 56.911,77.962C56.037,80.744 54.263,83.141 52.379,85.351C45.794,93.076 37.364,99.296 27.833,102.601C18.303,105.905 9.472,106.8 0,103.336" style="fill:rgb(183,187,248);fill-rule:nonzero;"/>
            </g>
            <g transform="matrix(1.15681,0,0,1.15681,-28.9209,-137.507)">
                <g id="Floor">
                    <path d="M54,456L414,456" style="fill:none;stroke:black;stroke-width:0.86px;"/>
                </g>
            </g>
            <g id="Plant">
            </g>
            <g id="Device">
            </g>
            <g id="Character">
            </g>
            <g transform="matrix(1,0,0,1,-1126.88,-0.256449)">
                <rect x="1452.38" y="174.286" width="3" height="2.429" style="fill:rgb(208,211,239);"/>
            </g>
            <g transform="matrix(1,0,0,1,-1126.88,-0.256449)">
                <rect x="1345.88" y="324" width="58.589" height="66" style="fill:rgb(125,132,203);"/>
            </g>
            <g transform="matrix(1.82721,0,0,0.243334,-2264.43,294.843)">
                <path d="M1404.47,390C1404.47,353.549 1400.53,324 1395.68,324C1384.62,324 1365.73,324 1354.67,324C1349.81,324 1345.88,353.549 1345.88,390L1345.88,390L1404.47,390L1404.47,390Z" style="fill:rgb(75,67,111);"/>
            </g>
            <g transform="matrix(1,0,0,1,-1126.88,-0.256449)">
                <path d="M1504.88,172.448C1504.88,166.682 1500.2,162 1494.43,162L1239.33,162C1233.56,162 1228.88,166.682 1228.88,172.448L1228.88,331.552C1228.88,337.318 1233.56,342 1239.33,342L1494.43,342C1500.2,342 1504.88,337.318 1504.88,331.552L1504.88,172.448Z" style="fill:rgb(75,67,111);"/>
            </g>
            <g transform="matrix(0.933333,0,0,0.9,-1035.75,24.9436)">
                <path d="M1504.88,172.448C1504.88,166.682 1500.36,162 1494.8,162L1238.95,162C1233.39,162 1228.88,166.682 1228.88,172.448L1228.88,331.552C1228.88,337.318 1233.39,342 1238.95,342L1494.8,342C1500.36,342 1504.88,337.318 1504.88,331.552L1504.88,172.448Z" style="fill:white;"/>
            </g>
            <g transform="matrix(1,0,0,1,-1643.94,-607.045)">
                <g transform="matrix(14.9822,213.912,219.97,-15.4065,1879.51,780.804)">
                    <path d="M-0.03,-0.472C-0.032,-0.507 -0.005,-0.538 0.03,-0.54L0.61,-0.581C0.646,-0.583 0.677,-0.557 0.679,-0.521L0.749,0.472C0.751,0.507 0.724,0.538 0.689,0.54L0.109,0.581C0.073,0.583 0.042,0.557 0.04,0.521L-0.03,-0.472Z" style="fill:rgb(183,187,248);fill-rule:nonzero;"/>
                </g>
                <g transform="matrix(0,41.7953,41.7953,0,1972.96,752.809)">
                    <path d="M-0.015,-0.926C-0.015,-0.984 0.031,-1.03 0.088,-1.03L1.183,-1.03C1.24,-1.03 1.287,-0.984 1.287,-0.926L1.287,0.927C1.287,0.984 1.24,1.03 1.183,1.03L0.088,1.03C0.031,1.03 -0.015,0.984 -0.015,0.927L-0.015,-0.926Z" style="fill:white;fill-rule:nonzero;"/>
                </g>
                <g transform="matrix(0,-43.2333,-43.2333,0,1972.96,856.87)">
                    <path d="M0.932,0.896C0.932,0.951 0.888,0.996 0.832,0.996L-0.226,0.996C-0.281,0.996 -0.326,0.951 -0.326,0.896L-0.326,-0.896C-0.326,-0.951 -0.281,-0.996 -0.226,-0.996L0.832,-0.996C0.888,-0.996 0.932,-0.951 0.932,-0.896L0.932,0.896Z" style="fill:white;fill-rule:nonzero;"/>
                </g>
                <g transform="matrix(23.7304,102.169,102.169,-23.7304,1890.25,844.258)">
                    <path d="M0.416,-0.128C0.503,-0.125 0.713,-0.122 0.674,-0.004C0.644,0.085 0.514,0.062 0.416,0.071C0.318,0.081 -0.029,0.068 -0.029,0.068C-0.029,0.068 0.329,-0.131 0.416,-0.128Z" style="fill:rgb(125,132,204);fill-rule:nonzero;"/>
                </g>
                <g transform="matrix(0,-11.6728,-11.6728,0,1727.93,867.993)">
                    <path d="M0.981,2.111C0.981,2.111 0.728,0.914 0.549,0.339C0.37,-0.236 0.169,-0.826 0.169,-0.826L-0.616,-1.522L0.438,-2.111C0.438,-2.111 0.467,-1.759 0.938,-1.501C1.303,-1.301 1.243,-0.655 1.183,-0.12C1.152,0.156 1.121,0.402 1.148,0.544C1.226,0.961 1.188,1.6 1.23,1.775C1.232,1.787 1.234,1.799 1.234,1.81C1.234,1.971 0.981,2.111 0.981,2.111Z" style="fill:rgb(255,191,157);fill-rule:nonzero;"/>
                </g>
                <g transform="matrix(0,-104.889,-104.889,0,1772.93,916.645)">
                    <path d="M0.316,-0.082L0.292,-0.075L0.549,0.184C0.549,0.184 0.496,0.288 0.422,0.338C0.264,0.195 0.008,0.055 -0.029,-0.064C-0.067,-0.184 0.273,-0.338 0.273,-0.338C0.273,-0.338 0.692,-0.309 0.732,-0.239L0.316,-0.082Z" style="fill:rgb(125,132,204);fill-rule:nonzero;"/>
                </g>
                <g transform="matrix(0,61.1959,61.1959,0,1844.56,850.529)">
                    <path d="M0.041,0.048L-0.208,-0.236C-0.208,-0.236 -0.06,-0.322 0.077,-0.351C0.168,-0.371 0.894,-0.292 1.366,-0.238L1.366,0.311C1.159,0.334 0.937,0.356 0.854,0.36C0.683,0.367 -0.244,0.387 -0.244,0.387L0.041,0.048Z" style="fill:white;fill-rule:nonzero;"/>
                </g>
                <g transform="matrix(0,-112.379,-112.379,0,1818.07,925.378)">
                    <path d="M0.761,0.178C0.761,0.178 0.686,0.159 0.59,0.147C0.506,0.138 0.406,0.138 0.322,0.118C0.218,0.094 0.154,0.058 0.129,0.055C0.1,0.053 0.014,0.066 -0.078,0.081L-0.078,-0.177C-0.033,-0.178 0.011,-0.177 0.047,-0.174C0.175,-0.164 0.305,-0.145 0.416,-0.122C0.527,-0.1 0.835,-0.11 0.835,-0.11L0.91,-0.112C0.91,-0.112 0.871,0.031 0.761,0.178Z" style="fill:rgb(125,132,204);fill-rule:nonzero;"/>
                </g>
                <g transform="matrix(0,-112.379,-112.379,0,1875.55,925.378)">
                    <path d="M0.836,0.1C0.836,0.1 0.531,0.097 0.421,0.121C0.31,0.146 0.182,0.168 0.055,0.181C0.017,0.185 -0.03,0.187 -0.078,0.187L-0.078,-0.074C0.013,-0.06 0.1,-0.049 0.129,-0.052C0.154,-0.055 0.225,-0.091 0.327,-0.118C0.41,-0.139 0.51,-0.141 0.593,-0.152C0.689,-0.166 0.762,-0.187 0.762,-0.187C0.872,-0.042 0.91,0.1 0.91,0.1L0.836,0.1Z" style="fill:rgb(125,132,204);fill-rule:nonzero;"/>
                </g>
                <g transform="matrix(0,32.2871,32.2871,0,1848.25,817.414)">
                    <path d="M-0.108,-0.414C-0.108,-0.414 0.201,-0.422 0.276,-0.423C0.351,-0.424 0.398,-0.576 0.398,-0.576C0.398,-0.576 0.416,-0.565 0.443,-0.542L0.398,-0.609C0.716,-0.464 0.955,-0.272 1.103,-0.027C1.023,0.112 0.926,0.243 0.807,0.352C0.796,0.362 0.731,0.409 0.658,0.457C0.559,0.523 0.445,0.591 0.436,0.568C0.408,0.497 0.399,0.334 0.304,0.312C0.245,0.298 -0.134,0.315 -0.134,0.315L-0.108,-0.414Z" style="fill:url(#_Linear1);fill-rule:nonzero;"/>
                </g>
                <g transform="matrix(0.208466,-23.6522,-23.6522,-0.208466,1825.36,821.785)">
                    <path d="M1.101,0.098C1.042,0.146 0.762,0.07 0.649,0.011C0.536,-0.048 0.649,-0.178 0.649,-0.178L1.037,-0.114C1.124,-0.077 1.154,-0.033 1.154,0.007C1.153,0.043 1.129,0.076 1.101,0.098Z" style="fill:url(#_Linear2);fill-rule:nonzero;"/>
                </g>
                <g transform="matrix(-0.276005,31.3151,31.3151,0.276005,1847.79,765.966)">
                    <path d="M0.11,-0.417C0.214,-0.54 0.378,-0.642 0.636,-0.643C0.82,-0.645 1.005,-0.639 1.188,-0.619C1.388,-0.597 1.61,-0.486 1.749,-0.329C1.905,-0.155 1.959,0.075 1.772,0.3C1.489,0.64 1.04,0.634 0.636,0.633C0.378,0.632 0.214,0.53 0.11,0.408C0.008,0.287 -0.043,0.138 -0.041,-0.01C-0.04,-0.155 0.01,-0.3 0.11,-0.417Z" style="fill:url(#_Linear3);fill-rule:nonzero;"/>
                </g>
                <g transform="matrix(12.4617,1.38142,1.38142,-12.4617,1906.01,842.418)">
                    <path d="M0.001,-0.509L0.934,-0.509L1,0.328L0.121,0.509L0.001,-0.509Z" style="fill:url(#_Linear4);fill-rule:nonzero;"/>
                </g>
                <g transform="matrix(-2.45988,22.4562,22.4562,2.45988,1911.81,795.973)">
                    <path d="M0.054,0.222C0.137,0.189 0.744,0.187 0.744,0.187C0.744,0.187 0.279,0.06 0.109,0.003C0.094,-0.096 0.268,-0.094 0.357,-0.083C0.446,-0.071 0.497,-0.047 0.933,0.045C0.766,-0.089 1.184,-0.526 1.295,-0.416C1.295,-0.416 1.455,-0.448 1.628,-0.369C1.801,-0.29 1.89,0.095 1.89,0.095L1.891,0.524C1.891,0.524 1.189,0.566 1.07,0.587C0.952,0.608 0.357,0.589 0.357,0.589L0.357,0.545C0.358,0.501 0.584,0.461 0.861,0.419C0.916,0.409 -0.041,0.321 -0.041,0.321C-0.041,0.321 -0.029,0.254 0.054,0.222ZM1.21,-0.24C1.154,-0.18 1.098,-0.122 1.115,-0.086C1.153,-0.008 1.444,0.072 1.503,-0.038C1.562,-0.149 1.511,-0.271 1.41,-0.304C1.352,-0.324 1.323,-0.358 1.308,-0.384C1.308,-0.382 1.308,-0.38 1.308,-0.379C1.303,-0.339 1.257,-0.289 1.21,-0.24Z" style="fill:rgb(255,191,157);fill-rule:nonzero;"/>
                </g>
                <g transform="matrix(-3.32662,-64.0374,-64.0374,3.32662,1905.21,904.883)">
                    <path d="M0.262,0.199C0.023,0.231 -0.192,0.175 -0.131,0.013C-0.07,-0.148 0.055,-0.155 0.196,-0.174C0.336,-0.193 0.94,-0.255 0.94,-0.255L0.984,0.011C0.984,0.011 0.499,0.167 0.262,0.199Z" style="fill:rgb(125,132,204);fill-rule:nonzero;"/>
                </g>
                <g transform="matrix(24.4342,-12.6592,12.6592,24.4342,1968.9,791.925)">
                    <path d="M0.487,0.852L0.803,1.016C0.861,0.834 0.914,0.555 0.744,0.355L0.487,0.852Z" style="fill:url(#_Linear5);fill-rule:nonzero;"/>
                </g>
                <g transform="matrix(-24.4342,-12.6592,-12.6592,24.4342,1980.09,791.854)">
                    <path d="M0.797,1.016L0.478,0.851L0.744,0.338C0.919,0.545 0.857,0.834 0.797,1.016Z" style="fill:url(#_Linear6);fill-rule:nonzero;"/>
                </g>
                <g transform="matrix(-54.5804,-46.4759,-46.4759,54.5804,2018.67,813.989)">
                    <path d="M0.859,0.305C0.859,0.306 0.802,0.39 0.732,0.488L0.341,0.155C0.407,0.086 0.46,0.032 0.494,0.003C0.542,0.022 0.567,0.031 0.641,0.065L0.772,0.175C0.772,0.175 0.832,0.246 0.859,0.305Z" style="fill:url(#_Linear7);fill-rule:nonzero;"/>
                </g>
                <g transform="matrix(0,-11.5121,-11.5121,0,1974.72,793.006)">
                    <path d="M0.657,0.641L0.418,0.692L0.406,-0.653C0.406,-0.653 0.434,-0.679 0.645,-0.655C0.683,-0.442 0.697,-0.234 0.697,-0.031C0.697,0.201 0.679,0.426 0.657,0.641Z" style="fill:url(#_Linear8);fill-rule:nonzero;"/>
                </g>
                <g transform="matrix(0,16.9364,16.9364,0,1974.87,795.778)">
                    <path d="M-0.024,-0.124L0.126,-0.031L0.127,0.048L0.007,0.124L-0.107,0.043L-0.111,-0.058L-0.024,-0.124Z" style="fill:rgb(75,67,111);fill-rule:nonzero;"/>
                </g>
                <g transform="matrix(16.9364,0,0,-16.9364,1968.75,802.254)">
                    <path d="M0.214,-0.256L0.55,-0.256C0.506,-0.085 0.426,0.208 0.409,0.256L0.331,0.256L0.214,-0.256Z" style="fill:rgb(75,67,111);fill-rule:nonzero;"/>
                </g>
                <g transform="matrix(-0.0686762,7.7919,7.7919,0.0686762,1974.35,781.908)">
                    <path d="M-0.151,-0.623C-0.151,-0.623 0.396,-0.63 0.528,-0.63C0.66,-0.63 0.746,-0.895 0.746,-0.895C0.746,-0.895 1.188,-0.605 1.405,0.047C1.122,0.802 0.746,0.895 0.746,0.895C0.746,0.895 0.67,0.684 0.566,0.659C0.462,0.635 -0.207,0.659 -0.207,0.659L-0.151,-0.623Z" style="fill:rgb(255,191,157);fill-rule:nonzero;"/>
                </g>
                <g transform="matrix(0.0893517,-10.1377,-10.1377,-0.0893517,1965.45,784.069)">
                    <path d="M1.101,0.098C1.042,0.145 0.761,0.069 0.649,0.01C0.536,-0.048 0.649,-0.177 0.649,-0.177L1.036,-0.113C1.124,-0.076 1.154,-0.032 1.154,0.008C1.153,0.044 1.129,0.076 1.101,0.098Z" style="fill:rgb(255,191,157);fill-rule:nonzero;"/>
                </g>
                <g transform="matrix(0.0893499,-10.1375,-10.1375,-0.0893499,1984.03,784.234)">
                    <path d="M1.036,0.113L0.649,0.177C0.649,0.177 0.536,0.048 0.649,-0.01C0.761,-0.069 1.042,-0.145 1.101,-0.098C1.13,-0.076 1.154,-0.043 1.154,-0.007C1.153,0.033 1.123,0.076 1.036,0.113Z" style="fill:rgb(255,191,157);fill-rule:nonzero;"/>
                </g>
                <g transform="matrix(-0.119716,13.5829,13.5829,0.119716,1974.91,760.072)">
                    <path d="M0.109,-0.406C0.213,-0.526 0.376,-0.626 0.633,-0.626C0.633,-0.626 1.15,-0.63 1.383,-0.565C1.581,-0.511 1.714,-0.428 1.797,-0.296C1.927,-0.091 1.914,0.154 1.804,0.303C1.681,0.467 1.582,0.511 1.383,0.565C1.15,0.629 0.633,0.626 0.633,0.626C0.376,0.626 0.213,0.525 0.11,0.405C0.008,0.287 -0.043,0.14 -0.041,-0.006C-0.04,-0.148 0.01,-0.291 0.109,-0.406Z" style="fill:rgb(255,191,157);fill-rule:nonzero;"/>
                </g>
                <g transform="matrix(-8.25034,14.012,14.012,8.25034,1973.1,786.193)">
                    <path d="M0.299,-0.301C0.453,-0.148 0.569,0.046 0.631,0.267C0.551,0.262 0.411,0.27 0.299,0.301C0.318,0.062 0.231,-0.173 0.14,-0.328C0.14,-0.328 0.224,-0.343 0.299,-0.301Z" style="fill:url(#_Linear9);fill-rule:nonzero;"/>
                </g>
                <g transform="matrix(8.39698,14.8547,14.8547,-8.39698,1975.34,784.704)">
                    <path d="M0.395,-0.272C0.502,-0.243 0.636,-0.234 0.712,-0.239C0.653,-0.028 0.543,0.156 0.395,0.301C0.325,0.342 0.244,0.328 0.244,0.328C0.331,0.18 0.413,-0.044 0.395,-0.272Z" style="fill:url(#_Linear10);fill-rule:nonzero;"/>
                </g>
                <g transform="matrix(1,0,0,1,1350.67,596.359)">
                    <clipPath id="_clip11">
                        <path d="M583.566,155.813C581.174,155.813 579.235,157.753 579.235,160.144L579.235,205.902C579.235,208.293 581.174,210.232 583.566,210.232L661.011,210.232C663.403,210.232 665.341,208.293 665.341,205.902L665.341,160.144C665.341,157.753 663.403,155.813 661.011,155.813L583.566,155.813Z" clip-rule="nonzero"/>
                    </clipPath>
                    <g clip-path="url(#_clip11)">
                        <g transform="matrix(1,0,0,1,631.625,174.271)">
                            <path d="M0,-8.427L0.003,-8.433C-0.007,-8.447 -0.022,-8.459 -0.032,-8.471C-0.103,-8.556 -0.177,-8.632 -0.251,-8.709C-0.341,-8.804 -0.433,-8.898 -0.541,-8.991C-0.61,-9.05 -0.681,-9.104 -0.753,-9.157C-3.591,-11.347 -11.208,-12.84 -14.341,-9.053L-14.344,-9.037C-15.583,-7.95 -16.355,-5.912 -16.364,-3.528C-16.376,-0.674 -15.782,4.266 -15.782,4.266C-15.782,4.266 -15.485,3.63 -15.426,2.696C-15.367,1.762 -15.606,-0.899 -14.625,-1.981C-14.104,-2.556 -13.507,-4.225 -13.061,-5.662L-1.843,-5.662C-1.39,-4.053 -0.752,-2.07 -0.209,-1.449C0.753,-0.351 0.441,2.243 0.484,3.178C0.527,4.113 0.747,4.413 0.747,4.413C0.747,4.413 1.426,-0.515 1.464,-3.37C1.491,-5.438 0.94,-7.256 0,-8.427" style="fill:rgb(68,63,61);fill-rule:nonzero;"/>
                        </g>
                    </g>
                </g>
                <g transform="matrix(1,0,0,1,1981.3,838.595)">
                    <clipPath id="_clip12">
                        <path d="M-47.061,-22.034C-49.453,-22.034 -51.392,-20.096 -51.392,-17.704L-51.392,28.053C-51.392,30.445 -49.453,32.384 -47.061,32.384L30.384,32.384C32.776,32.384 34.714,30.445 34.714,28.053L34.714,-17.704C34.714,-20.096 32.776,-22.034 30.384,-22.034L-47.061,-22.034Z" clip-rule="nonzero"/>
                    </clipPath>
                    <g clip-path="url(#_clip12)">
                        <path d="M0,8.311L-12.009,8.254C-12.009,8.254 -16.941,8.815 -17.565,5.697C-18.189,2.578 -5.332,0.209 -5.332,0.209C-5.332,0.209 -0.956,-0.504 0.39,0.209C1.735,0.921 2.43,2.77 2.335,3.356C2.241,3.941 4.058,3.098 4.058,3.41C4.058,3.722 3.427,8.327 0,8.311" style="fill:rgb(15,28,118);fill-rule:nonzero;"/>
                    </g>
                </g>
                <g transform="matrix(24.4342,-12.6592,12.6592,24.4342,1968.9,856.311)">
                    <path d="M0.487,0.852L0.803,1.016C0.861,0.834 0.914,0.555 0.744,0.355L0.487,0.852Z" style="fill:rgb(220,245,226);fill-rule:nonzero;"/>
                </g>
                <g transform="matrix(-24.4342,-12.6592,-12.6592,24.4342,1980.09,856.241)">
                    <path d="M0.797,1.016L0.478,0.851L0.744,0.338C0.919,0.545 0.857,0.834 0.797,1.016Z" style="fill:rgb(220,245,226);fill-rule:nonzero;"/>
                </g>
                <g transform="matrix(-54.5804,-46.4759,-46.4759,54.5804,2018.67,878.375)">
                    <path d="M0.859,0.305C0.859,0.306 0.802,0.39 0.732,0.488L0.341,0.155C0.407,0.086 0.46,0.032 0.494,0.003C0.542,0.022 0.567,0.031 0.641,0.065L0.772,0.175C0.772,0.175 0.832,0.246 0.859,0.305Z" style="fill:rgb(220,245,226);fill-rule:nonzero;"/>
                </g>
                <g transform="matrix(-0.104491,11.8554,11.8554,0.104491,1975.07,847.145)">
                    <path d="M-0.17,-0.471C-0.17,-0.471 0.189,-0.475 0.276,-0.475C0.363,-0.475 0.419,-0.65 0.419,-0.65C0.419,-0.65 1.411,-0.778 1.405,-0.093C1.398,0.722 0.419,0.527 0.419,0.527C0.419,0.527 0.369,0.388 0.301,0.372C0.233,0.356 -0.207,0.372 -0.207,0.372L-0.17,-0.471Z" style="fill:rgb(255,191,157);fill-rule:nonzero;"/>
                </g>
                <g transform="matrix(0.0893517,-10.1377,-10.1377,-0.0893517,1965.45,848.456)">
                    <path d="M1.101,0.098C1.042,0.145 0.761,0.069 0.649,0.01C0.536,-0.048 0.649,-0.177 0.649,-0.177L1.036,-0.113C1.124,-0.076 1.154,-0.032 1.154,0.008C1.153,0.044 1.129,0.076 1.101,0.098Z" style="fill:url(#_Linear13);fill-rule:nonzero;"/>
                </g>
                <g transform="matrix(0.0893499,-10.1375,-10.1375,-0.0893499,1984.03,848.621)">
                    <path d="M1.036,0.113L0.649,0.177C0.649,0.177 0.536,0.048 0.649,-0.01C0.761,-0.069 1.042,-0.145 1.101,-0.098C1.13,-0.076 1.154,-0.043 1.154,-0.007C1.153,0.033 1.123,0.076 1.036,0.113Z" style="fill:url(#_Linear14);fill-rule:nonzero;"/>
                </g>
                <g transform="matrix(-0.119716,13.5829,13.5829,0.119716,1974.91,824.459)">
                    <path d="M0.109,-0.406C0.213,-0.526 0.376,-0.626 0.633,-0.626C0.633,-0.626 1.15,-0.63 1.383,-0.565C1.581,-0.511 1.714,-0.428 1.797,-0.296C1.927,-0.091 1.914,0.154 1.804,0.303C1.681,0.467 1.581,0.511 1.384,0.565C1.15,0.629 0.633,0.626 0.633,0.626C0.376,0.626 0.213,0.525 0.11,0.405C0.008,0.287 -0.043,0.14 -0.041,-0.006C-0.04,-0.148 0.01,-0.291 0.109,-0.406Z" style="fill:rgb(255,191,157);fill-rule:nonzero;"/>
                </g>
                <g transform="matrix(1,0,0,1,1350.67,596.359)">
                    <clipPath id="_clip15">
                        <path d="M583.566,220.201C581.174,220.201 579.235,222.139 579.235,224.531L579.235,270.288C579.235,272.68 581.174,274.619 583.566,274.619L661.011,274.619C663.403,274.619 665.341,272.68 665.341,270.288L665.341,224.531C665.341,222.139 663.403,220.201 661.011,220.201L583.566,220.201Z" clip-rule="nonzero"/>
                    </clipPath>
                    <g clip-path="url(#_clip15)">
                        <g transform="matrix(1,0,0,1,631.648,247.16)">
                            <path d="M0,-17.013C-0.646,-17.657 -1.355,-18.055 -2.335,-18.624C-5.336,-20.367 -10.166,-20.595 -13.114,-18.663C-17.77,-15.612 -19.984,-9.353 -20.353,-3.992C-20.514,-1.646 -20.153,1.044 -18.243,2.415C-16.78,3.465 -14.828,3.434 -13.03,3.329C-15.101,1.778 -16.4,-0.801 -16.278,-3.385C-16.157,-5.97 -14.56,-8.466 -12.205,-9.539C-10.984,-10.096 -9.63,-10.274 -8.351,-10.68C-7.042,-11.096 -5.829,-11.75 -4.67,-12.477C-3.851,-12.991 -2.873,-14.056 -1.901,-14.178C-1.026,-12.02 -0.626,-9.781 0.372,-7.674C2.067,-4.097 1.762,0.571 -1.021,3.386C0.401,3.582 1.854,2.954 2.892,1.961C4.577,0.349 5.45,-1.71 5.197,-3.974C4.911,-6.536 4.255,-9.055 3.263,-11.434C2.608,-13.002 1.808,-14.51 0.871,-15.928C0.581,-16.368 0.297,-16.717 0,-17.013" style="fill-rule:nonzero;"/>
                        </g>
                    </g>
                </g>
                <g transform="matrix(1,0,0,1,1989.58,921.412)">
                    <path d="M0,-5.912C-1.344,-5.912 -2.465,-5.011 -2.824,-3.783L-212.796,-3.783L-212.796,-2.129L-2.824,-2.129C-2.465,-0.902 -1.344,0 0,0C1.633,0 2.956,-1.323 2.956,-2.956C2.956,-4.589 1.633,-5.912 0,-5.912" style="fill:white;fill-rule:nonzero;"/>
                </g>
                <g transform="matrix(-0.889593,-0.456754,-0.456754,0.889593,1782.32,922.069)">
                    <path d="M-3.994,5.749L-1.066,5.749L0.779,2.155L-0.927,-0.224L-3.994,5.749Z" style="fill:white;fill-rule:nonzero;"/>
                </g>
                <g transform="matrix(1,0,0,1,1350.67,754.934)">
                    <rect x="426.695" y="168.696" width="2.017" height="4.033" style="fill:white;"/>
                </g>
                <g transform="matrix(1,0,0,1,1350.67,755.015)">
                    <path d="M634.257,172.273L628.914,172.273L628.914,169.071L634.257,169.071L634.257,172.273ZM627.84,167.997L627.84,173.347L635.332,173.347L635.332,167.997L627.84,167.997Z" style="fill:white;fill-rule:nonzero;"/>
                </g>
                <g transform="matrix(-1,0,0,1,2185.44,740.552)">
                    <rect x="416.354" y="175.131" width="2.063" height="5.545" style="fill:white;"/>
                </g>
                <g transform="matrix(-1,0,0,1,2193.23,740.552)">
                    <rect x="420.25" y="175.131" width="2.063" height="5.545" style="fill:white;"/>
                </g>
                <g transform="matrix(-0.516627,0,0,0.516627,2267.1,803.338)">
                    <rect x="593.967" y="192.576" width="14.611" height="10.301" style="fill:white;"/>
                </g>
                <g transform="matrix(-0.49616,-0.143975,-0.143975,0.49616,1961.47,903.706)">
                    <path d="M-5.632,4.955L-0.501,4.955L0.306,2.174L-4.028,-0.573L-5.632,4.955Z" style="fill:white;fill-rule:nonzero;"/>
                </g>
                <g transform="matrix(0.516627,0,0,0.516627,1970.35,901.045)">
                    <path d="M0,11.114C1.58,11.114 2.861,9.834 2.861,8.254L2.861,2.862C2.861,1.282 1.58,0 0,0C-1.58,0 -2.86,1.282 -2.86,2.862L-2.86,8.254C-2.86,9.834 -1.58,11.114 0,11.114" style="fill:white;fill-rule:nonzero;"/>
                </g>
                <g transform="matrix(0.516627,0,0,0.516627,1973.25,909.609)">
                    <path d="M0,-8.323L-1.344,-8.323C-1.348,-5.965 -3.256,-4.057 -5.614,-4.052C-7.971,-4.057 -9.879,-5.965 -9.883,-8.323L-11.227,-8.323C-11.227,-5.453 -9.065,-3.113 -6.286,-2.777L-6.286,0L-4.942,0L-4.942,-2.777C-2.162,-3.113 0,-5.452 0,-8.323" style="fill:white;fill-rule:nonzero;"/>
                </g>
                <path d="M1833.25,768C1833.25,768 1824.47,773.359 1822.5,793.5C1820.58,813.178 1819.81,813.339 1815,822C1810.19,830.661 1799.62,836.5 1798.5,839C1797.38,841.5 1812.26,830.707 1822.9,840.669C1833.54,850.63 1829.98,845.793 1835,852C1840.02,858.207 1847.02,860.87 1849,862C1850.98,863.13 1853.96,854.138 1861.5,847.5C1869.04,840.862 1867.64,836.14 1875,835.5C1882.36,834.86 1892.77,837 1892.77,837C1892.77,837 1871.23,825.854 1870.5,817.5C1869.77,809.146 1871.44,784.699 1866.83,775.5C1861,763.886 1849.18,757.517 1833.25,768Z" style="fill:rgb(67,82,153);"/>
                <path d="M1843,825C1843,825 1844.58,827.56 1845,832.623C1845.42,837.686 1845.61,840 1845.61,840C1845.61,840 1845.24,833.309 1842,828.536C1838.76,823.764 1834.56,822.392 1834,821C1833.44,819.608 1831.57,815 1831.57,815L1843,825Z" style="fill:rgb(40,51,98);"/>
                <path d="M1845.61,824.106C1845.36,825.645 1846.8,827.494 1846.62,829C1846.52,829.874 1846.74,831.025 1846.29,831.776C1845.66,832.825 1847.02,836.399 1847.94,835.545C1849.13,834.435 1850.84,836.535 1851.67,829.776C1851.79,828.8 1852.55,828.059 1853.06,827.238C1853.46,826.587 1854.01,825.962 1854.13,825.185C1854.29,824.162 1853.71,823.091 1853.64,822.064" style="fill:rgb(40,51,98);"/>
                <path d="M1847.57,825.573C1846.62,827.164 1848.47,829.38 1848.93,831.045C1849.1,831.664 1843.93,836.119 1844.44,833.045C1844.56,832.261 1844.35,829.973 1843.74,829.554C1842.81,828.922 1842.79,827.08 1842.85,826.081C1842.9,825.431 1842.36,824.675 1842.73,824.106" style="fill:rgb(40,51,98);"/>
                <g transform="matrix(-1,0,0,1,3696.11,-2)">
                    <path d="M1843,825C1843,825 1844.58,827.56 1845,832.623C1845.42,837.686 1845.61,840 1845.61,840C1845.61,840 1845.24,833.309 1842,828.536C1838.76,823.764 1834.56,822.392 1834,821C1833.44,819.608 1831.57,815 1831.57,815L1843,825Z" style="fill:rgb(40,51,98);"/>
                </g>
                <g transform="matrix(-0.219579,24.9131,27.8518,0.24548,1847.3,779.076)">
                    <path d="M0.11,-0.417C0.214,-0.54 0.378,-0.642 0.636,-0.643C0.82,-0.645 1.005,-0.639 1.188,-0.619C1.388,-0.597 1.61,-0.486 1.749,-0.329C1.905,-0.155 1.959,0.075 1.772,0.3C1.489,0.64 1.04,0.634 0.636,0.633C0.378,0.632 0.214,0.53 0.11,0.408C0.008,0.287 -0.043,0.138 -0.041,-0.01C-0.04,-0.155 0.01,-0.3 0.11,-0.417Z" style="fill:rgb(255,191,157);fill-rule:nonzero;"/>
                </g>
                <g transform="matrix(1,0,0,1,572.289,64.1163)">
                    <path d="M1257.45,727.027C1257.01,724.709 1257.37,721.508 1258.41,719.358C1258.83,718.503 1259.48,717.795 1260.03,717.03C1260.76,716.016 1263.03,714.279 1263.96,713.429C1268.28,709.471 1273.49,708.316 1279.06,709.154C1280.67,709.397 1281.97,710.215 1283.46,710.929C1284.58,711.467 1288.18,712.67 1291.65,719.429C1292.66,721.408 1293.07,725.43 1292.89,726.716C1292.83,727.165 1292.79,727.62 1292.67,728.058C1292.63,728.201 1292.6,728.346 1292.56,728.488C1292.53,728.567 1292.5,728.809 1292.49,728.727C1292.39,727.843 1292.57,726.84 1292.31,725.988C1291.54,723.462 1291.59,721.118 1289.65,718.198C1288.88,717.049 1284.97,713.306 1283.65,712.674C1278.8,710.366 1275.58,709.907 1269.94,711.429C1268.8,711.736 1267.2,712.711 1266.15,713.206C1265.04,713.726 1261.97,716.289 1261.41,716.929C1260.22,718.293 1259.86,718.783 1259.15,720.429C1258.4,722.143 1257.04,725.001 1257.41,726.954" style="fill:rgb(59,73,136);"/>
                </g>
                <g transform="matrix(1,0,0,1,570.928,64.6005)">
                    <path d="M1271.01,747.445C1274.54,748.103 1278.15,748.186 1281.87,747.429C1282.49,747.618 1280.04,751.905 1275.51,751.239C1272.05,750.732 1271.01,747.445 1271.01,747.445Z" style="fill:white;"/>
                </g>
                <g transform="matrix(0.314164,0,0,0.314164,1573.63,545.23)">
                    <path d="M1271.01,747.445C1274.54,748.103 1278.15,748.186 1281.87,747.429C1282.49,747.618 1280.04,751.905 1275.51,751.239C1272.05,750.732 1271.01,747.445 1271.01,747.445Z" style="fill:white;"/>
                </g>
                <path d="M1842,857C1842,857 1839.8,870.202 1840,872C1840.2,873.798 1841.94,887.045 1841.94,887.045L1848.94,917.045C1853.25,919.247 1856.03,904.36 1856.44,886L1858,873L1853,857L1842,857Z" style="fill:rgb(67,82,153);"/>
                <path d="M1840.18,858C1841.13,856.235 1842.03,854.403 1845,855C1845,855 1849.76,853.941 1853,857C1854.64,858.547 1853.76,860.494 1853.76,860.494C1853.76,860.494 1852.02,862.107 1848.99,861.996C1845.97,861.886 1843.61,862.692 1842,861.74C1840.39,860.789 1840.18,858 1840.18,858Z" style="fill:rgb(134,146,200);"/>
            </g>
        </g>
        <g id="Padlock">
        </g>
        <g id="Speech-Bubble" serif:id="Speech Bubble">
        </g>
    </g>
    <defs>
        <linearGradient id="_Linear1" x1="0" y1="0" x2="1" y2="0" gradientUnits="userSpaceOnUse" gradientTransform="matrix(1,0,0,-1,0,-0.0183518)"><stop offset="0" style="stop-color:rgb(245,159,124);stop-opacity:1"/><stop offset="1" style="stop-color:rgb(245,211,172);stop-opacity:1"/></linearGradient>
        <linearGradient id="_Linear2" x1="0" y1="0" x2="1" y2="0" gradientUnits="userSpaceOnUse" gradientTransform="matrix(1,0,0,-1,0,-0.0325625)"><stop offset="0" style="stop-color:rgb(245,159,124);stop-opacity:1"/><stop offset="1" style="stop-color:rgb(245,211,172);stop-opacity:1"/></linearGradient>
        <linearGradient id="_Linear3" x1="0" y1="0" x2="1" y2="0" gradientUnits="userSpaceOnUse" gradientTransform="matrix(1,-1.73472e-18,-1.73472e-18,-1,0,-0.00537622)"><stop offset="0" style="stop-color:rgb(245,159,124);stop-opacity:1"/><stop offset="1" style="stop-color:rgb(245,211,172);stop-opacity:1"/></linearGradient>
        <linearGradient id="_Linear4" x1="0" y1="0" x2="1" y2="0" gradientUnits="userSpaceOnUse" gradientTransform="matrix(0.999999,0.0012964,0.0012964,-0.999999,3.99601e-07,-0.000616475)"><stop offset="0" style="stop-color:rgb(245,159,124);stop-opacity:1"/><stop offset="1" style="stop-color:rgb(245,211,172);stop-opacity:1"/></linearGradient>
        <linearGradient id="_Linear5" x1="0" y1="0" x2="1" y2="0" gradientUnits="userSpaceOnUse" gradientTransform="matrix(1,-5.55112e-17,-5.55112e-17,-1,0,1.3716)"><stop offset="0" style="stop-color:white;stop-opacity:1"/><stop offset="1" style="stop-color:rgb(201,222,255);stop-opacity:1"/></linearGradient>
        <linearGradient id="_Linear6" x1="0" y1="0" x2="1" y2="0" gradientUnits="userSpaceOnUse" gradientTransform="matrix(1,-5.55112e-17,-5.55112e-17,-1,0,1.35439)"><stop offset="0" style="stop-color:white;stop-opacity:1"/><stop offset="1" style="stop-color:rgb(201,222,255);stop-opacity:1"/></linearGradient>
        <linearGradient id="_Linear7" x1="0" y1="0" x2="1" y2="0" gradientUnits="userSpaceOnUse" gradientTransform="matrix(1,0,0,-1,0,0.490938)"><stop offset="0" style="stop-color:white;stop-opacity:1"/><stop offset="1" style="stop-color:rgb(201,222,255);stop-opacity:1"/></linearGradient>
        <linearGradient id="_Linear8" x1="0" y1="0" x2="1" y2="0" gradientUnits="userSpaceOnUse" gradientTransform="matrix(1,0,0,-1,0,0.0136622)"><stop offset="0" style="stop-color:white;stop-opacity:1"/><stop offset="1" style="stop-color:rgb(144,146,255);stop-opacity:1"/></linearGradient>
        <linearGradient id="_Linear9" x1="0" y1="0" x2="1" y2="0" gradientUnits="userSpaceOnUse" gradientTransform="matrix(-0.994287,-0.10674,-0.10674,0.994287,0.763314,0.0408548)"><stop offset="0" style="stop-color:white;stop-opacity:1"/><stop offset="1" style="stop-color:rgb(201,222,255);stop-opacity:1"/></linearGradient>
        <linearGradient id="_Linear10" x1="0" y1="0" x2="1" y2="0" gradientUnits="userSpaceOnUse" gradientTransform="matrix(-0.968992,0.247091,0.247091,0.968992,0.921342,-0.11562)"><stop offset="0" style="stop-color:white;stop-opacity:1"/><stop offset="1" style="stop-color:rgb(201,222,255);stop-opacity:1"/></linearGradient>
        <linearGradient id="_Linear13" x1="0" y1="0" x2="1" y2="0" gradientUnits="userSpaceOnUse" gradientTransform="matrix(1,0,0,-1,0,-0.0323369)"><stop offset="0" style="stop-color:rgb(245,159,124);stop-opacity:1"/><stop offset="1" style="stop-color:rgb(245,211,172);stop-opacity:1"/></linearGradient>
        <linearGradient id="_Linear14" x1="0" y1="0" x2="1" y2="0" gradientUnits="userSpaceOnUse" gradientTransform="matrix(1,0,0,-1,0,0.0321827)"><stop offset="0" style="stop-color:rgb(245,159,124);stop-opacity:1"/><stop offset="1" style="stop-color:rgb(245,211,172);stop-opacity:1"/></linearGradient>
    </defs>
</svg>
