<?xml version="1.0" encoding="UTF-8" standalone="no"?>
<!DOCTYPE svg PUBLIC "-//W3C//DTD SVG 1.1//EN" "http://www.w3.org/Graphics/SVG/1.1/DTD/svg11.dtd">
<svg width="100%" height="100%" viewBox="0 0 512 512" version="1.1" xmlns="http://www.w3.org/2000/svg" xmlns:xlink="http://www.w3.org/1999/xlink" xml:space="preserve" xmlns:serif="http://www.serif.com/" style="fill-rule:evenodd;clip-rule:evenodd;stroke-linejoin:round;stroke-miterlimit:2;">
    <g transform="matrix(1,0,0,1,-564,-3883.2)">
        <g id="Artboard2" transform="matrix(1,0,0,1,-0.358285,3883.2)">
            <rect x="564.358" y="0" width="512" height="512" style="fill:none;"/>
            <g id="Kino_Indonesia_logo.svg" transform="matrix(0.588759,0,0,0.588759,817.239,254.471)">
                <g transform="matrix(1,0,0,1,-375,-129.194)">
                    <g transform="matrix(1.00059,0,0,1.00059,652.223,242.44)">
                        <g id="Layer-1" serif:id="Layer 1">
                            <g id="g2300">
                                <path id="path1003" d="M-521.64,-113.18L-577.695,-36.558L-449.934,15.217C-448.777,15.685 -447.516,15.939 -446.308,15.939C-443.388,15.939 -440.532,14.605 -438.655,12.206C-435.997,8.791 -435.914,4.013 -438.482,0.509" style="fill:rgb(2,87,157);fill-rule:nonzero;"/>
                                <path id="path1005" d="M-613.18,-238.333C-615.632,-241.717 -620.016,-243.116 -624.01,-241.812C-627.988,-240.503 -630.689,-236.805 -630.689,-232.609L-630.689,-153.279L-571.959,-181.993" style="fill:rgb(2,87,157);fill-rule:nonzero;"/>
                                <path id="path1007" d="M-188.367,-154.891L-188.631,-154.951L-189.203,-154.891C-193.738,-154.269 -219.71,-149.157 -221.935,-113.837L-221.935,-32.546C-221.935,-29.505 -219.466,-27.011 -216.4,-27.011L-189.835,-27.011C-186.784,-27.011 -184.271,-29.505 -184.271,-32.546L-184.271,-149.526C-184.271,-152.089 -186.008,-154.234 -188.367,-154.891" style="fill:rgb(2,87,157);fill-rule:nonzero;"/>
                                <path id="path1009" d="M-295.586,-121.09C-296.138,-121.886 -296.85,-122.707 -297.671,-123.469L-243.178,-193.183C-240.854,-196.129 -241.332,-198.269 -241.84,-199.285C-242.327,-200.315 -243.716,-201.998 -247.449,-201.998L-252.949,-201.998C-270.32,-200.489 -281.923,-193.297 -289.11,-186.702L-332.304,-130.049L-332.304,-162.641C-335.281,-196.791 -361.029,-201.475 -365.021,-201.998L-366.34,-201.998C-369.396,-201.998 -371.89,-199.499 -371.89,-196.433L-371.89,-32.536C-371.89,-29.505 -369.396,-27.011 -366.34,-27.011L-337.819,-27.011C-334.778,-27.011 -332.304,-29.505 -332.304,-32.536L-332.304,-106.645L-285.89,-34.602C-283.152,-30.341 -277.04,-27.011 -271.968,-27.011L-243.004,-27.011C-240.267,-27.011 -238.201,-27.987 -237.275,-29.784C-236.325,-31.561 -236.658,-33.806 -238.191,-36.065" style="fill:rgb(2,87,157);fill-rule:nonzero;"/>
                                <path id="path1011" d="M-62.125,-149.974C-72.07,-155.479 -84.653,-158.256 -99.52,-158.256C-111.202,-158.256 -123.914,-156.628 -138.329,-153.214C-157.94,-148.635 -156.89,-136.689 -156.84,-136.325L-156.84,-32.536C-156.84,-29.5 -154.361,-27.006 -151.29,-27.006L-124.726,-27.006C-121.67,-27.006 -119.201,-29.5 -119.201,-32.536L-119.201,-127.605C-119.151,-129.277 -118.539,-130.9 -117.25,-132.398C-114.467,-135.494 -108.544,-137.5 -102.193,-137.5C-96.449,-137.5 -91.163,-135.922 -88.062,-133.279C-85.19,-130.935 -83.388,-127.64 -82.975,-123.996L-82.955,-32.536C-82.955,-29.5 -80.457,-27.006 -77.42,-27.006L-50.871,-27.006C-47.79,-27.006 -45.286,-29.5 -45.286,-32.536L-45.286,-124.265C-46.351,-141.263 -56.605,-146.912 -62.125,-149.974" style="fill:rgb(2,87,157);fill-rule:nonzero;"/>
                                <path id="path1013" d="M-187.869,-202.59C-197.157,-201.286 -220.86,-194.691 -222.104,-161.203L-222.104,-154.025C-222.104,-154.025 -222.243,-152.99 -221.377,-152.696C-220.765,-152.492 -220.452,-153.05 -219.775,-153.985C-215.614,-159.62 -205.883,-170.227 -190.099,-171.521C-179.607,-172.362 -180.523,-191.983 -183.499,-201.077C-183.808,-202.142 -185.575,-202.903 -187.869,-202.59" style="fill:rgb(2,87,157);fill-rule:nonzero;"/>
                                <path id="path1015" d="M37.618,-47.324C24.462,-47.523 16.095,-64.068 15.204,-91.534C14.483,-114.186 20.117,-124.912 24.98,-129.915C28.449,-133.523 32.815,-135.43 37.603,-135.43C50.201,-135.43 59.723,-116.884 59.723,-92.28C59.723,-64.969 51.156,-47.324 37.618,-47.324M80.001,-141.397C69.18,-152.328 53.929,-158.385 37.006,-158.385C20.874,-158.385 6.146,-152.467 -4.501,-141.736C-16.636,-129.541 -22.962,-112.066 -22.848,-91.215C-22.584,-50.614 0.934,-24.368 37.006,-24.368C73.331,-24.368 97.173,-50.674 97.71,-91.354C97.994,-112.066 91.862,-129.362 80.001,-141.397" style="fill:rgb(2,87,157);fill-rule:nonzero;"/>
                                <path id="path1017" d="M-521.64,-113.18L-504.989,-90.379L-565.591,-31.645L-577.695,-36.558" style="fill:rgb(19,40,91);fill-rule:nonzero;"/>
                                <path id="path1019" d="M-438.881,-238.816C-441.743,-242.235 -446.549,-243.275 -450.564,-241.309L-642.749,-147.4C-642.749,-147.4 -646.035,-145.713 -647.184,-145.021C-650.816,-142.751 -651.837,-139.8 -651.837,-136.589C-651.837,-131.204 -647.466,-126.848 -642.115,-126.848C-641.658,-126.848 -640.82,-126.948 -640.82,-126.948C-638.565,-127.137 -635.981,-127.545 -633.097,-128.143C-632.326,-128.302 -631.505,-128.506 -630.683,-128.69C-614.44,-132.428 -590.398,-141.452 -564.728,-152.263L-564.621,-152.313L-564.289,-152.403C-563.836,-152.572 -563.355,-152.671 -562.836,-152.671C-560.233,-152.671 -558.118,-150.541 -558.118,-147.933C-558.118,-146.385 -558.806,-144.966 -559.978,-144.1L-560.145,-143.996L-560.414,-143.787C-589.096,-120.194 -611.205,-88.602 -622.608,-54.741C-626.858,-42.138 -629.613,-29.201 -630.683,-16.255L-630.683,-16.23C-631.016,-12.323 -631.19,-8.376 -631.19,-4.459L-631.173,-3.936C-631.173,-1.149 -631.111,1.614 -630.92,4.361C-630.804,5.934 -630.588,7.303 -630.588,7.303C-630.186,11.061 -627.648,14.271 -624.011,15.451C-623.011,15.765 -622.006,15.939 -620.991,15.939C-617.966,15.939 -615.037,14.5 -613.181,11.957L-438.479,-226.895C-435.852,-230.493 -436.014,-235.411 -438.881,-238.816" style="fill:rgb(253,167,21);fill-rule:nonzero;"/>
                            </g>
                        </g>
                    </g>
                </g>
            </g>
        </g>
    </g>
</svg>
